<svg width="40" height="40" viewBox="0 0 40 40" fill="none" xmlns="http://www.w3.org/2000/svg">
<path d="M18.4024 27.1746C18.5255 27.1748 18.6473 27.1991 18.761 27.2463C18.8746 27.2934 18.9779 27.3625 19.0648 27.4494C19.1517 27.5364 19.2206 27.6396 19.2676 27.7531C19.3145 27.8666 19.3386 27.9882 19.3384 28.111C19.3382 28.2338 19.3138 28.3554 19.2665 28.4687C19.2193 28.5821 19.1501 28.6851 19.0629 28.7718C18.9757 28.8585 18.8723 28.9272 18.7585 28.9741C18.6447 29.0209 18.5228 29.0449 18.3997 29.0447C18.1511 29.0444 17.9128 28.9455 17.7373 28.7699C17.5618 28.5943 17.4633 28.3563 17.4637 28.1083C17.4641 27.8603 17.5632 27.6226 17.7392 27.4475C17.9152 27.2724 18.1538 27.1743 18.4024 27.1746ZM33.1013 21.3926C32.9782 21.3925 32.8563 21.3683 32.7426 21.3212C32.6289 21.2741 32.5257 21.2052 32.4387 21.1183C32.3517 21.0314 32.2827 20.9283 32.2357 20.8148C32.1887 20.7013 32.1645 20.5797 32.1646 20.4569C32.1647 20.3341 32.189 20.2125 32.2362 20.0991C32.2834 19.9857 32.3525 19.8827 32.4396 19.7959C32.5267 19.7091 32.6301 19.6403 32.7439 19.5934C32.8576 19.5465 32.9795 19.5224 33.1026 19.5225C33.3512 19.5227 33.5896 19.6214 33.7652 19.7968C33.9409 19.9723 34.0395 20.2102 34.0393 20.4582C34.0391 20.7062 33.9402 20.944 33.7643 21.1192C33.5884 21.2945 33.3499 21.3928 33.1013 21.3926ZM33.1013 17.5672C32.3327 17.5679 31.5958 17.8728 31.0524 18.415C30.5089 18.9571 30.2033 19.6922 30.2026 20.4589C30.2026 20.7688 30.2546 21.0774 30.3559 21.378L20.7811 26.463C20.5156 26.0784 20.1603 25.7641 19.746 25.5469C19.3316 25.3298 18.8705 25.2165 18.4024 25.2167C17.297 25.2167 16.2904 25.8485 15.8023 26.8341L7.20087 22.3091C6.29152 21.8329 5.61151 20.3405 5.68351 18.9811C5.72085 18.2722 5.96619 17.7215 6.34086 17.5087C6.5782 17.3757 6.86353 17.3863 7.16754 17.5446L7.22354 17.5752C9.50358 18.7723 16.9624 22.6921 17.277 22.8371C17.761 23.0619 18.0304 23.1524 18.8571 22.7613L34.276 14.762C34.5026 14.6769 34.7666 14.4601 34.7666 14.1316C34.7666 13.6767 34.2946 13.4971 34.2933 13.4971C33.416 13.0781 32.0679 12.449 30.7532 11.8345C27.9425 10.5216 24.7572 9.03458 23.3585 8.30302C22.1504 7.67255 21.1784 8.20459 21.0051 8.311L20.6691 8.47727C14.373 11.5831 5.94619 15.7463 5.46618 16.0376C4.60883 16.559 4.07682 17.5978 4.00749 18.8867C3.90082 20.9311 4.94484 23.0632 6.43953 23.844L15.5357 28.5233C15.6359 29.2107 15.9806 29.8392 16.507 30.2939C17.0333 30.7486 17.7061 30.9992 18.4024 31C19.1628 30.9987 19.8924 30.6998 20.4342 30.1675C20.9761 29.6352 21.2868 28.9121 21.2998 28.1536L31.3186 22.736C31.8253 23.1324 32.4559 23.3492 33.1013 23.3492C33.8699 23.3485 34.6067 23.0436 35.1502 22.5015C35.6937 21.9593 35.9993 21.2243 36 20.4576C35.9993 19.6909 35.6937 18.9558 35.1502 18.4136C34.6067 17.8715 33.8699 17.5666 33.1013 17.5659" fill="white"/>
</svg>
