<svg width="40" height="40" viewBox="0 0 40 40" fill="none" xmlns="http://www.w3.org/2000/svg">
<path fill-rule="evenodd" clip-rule="evenodd" d="M20.5112 6C13.0398 6 7 12.1875 7 19.8422C7 25.9611 10.8699 31.1406 16.2386 32.9737C16.9098 33.1115 17.1556 32.6759 17.1556 32.3094C17.1556 31.9885 17.1335 30.8886 17.1335 29.7425C13.375 30.5676 12.5924 28.0924 12.5924 28.0924C11.9884 26.4881 11.0934 26.0758 11.0934 26.0758C9.86325 25.2279 11.183 25.2279 11.183 25.2279C12.5476 25.3195 13.2636 26.6487 13.2636 26.6487C14.4713 28.757 16.4175 28.1613 17.2004 27.7945C17.3122 26.9007 17.6703 26.282 18.0506 25.9383C15.0529 25.6174 11.899 24.4257 11.899 19.1087C11.899 17.5962 12.4356 16.3587 13.2857 15.3962C13.1516 15.0526 12.6817 13.6314 13.4201 11.7293C13.4201 11.7293 14.5609 11.3626 17.1332 13.1502C18.2345 12.8472 19.3703 12.6931 20.5112 12.6918C21.652 12.6918 22.8149 12.8523 23.8888 13.1502C26.4614 11.3626 27.6022 11.7293 27.6022 11.7293C28.3406 13.6314 27.8705 15.0526 27.7364 15.3962C28.6089 16.3587 29.1233 17.5962 29.1233 19.1087C29.1233 24.4257 25.9694 25.5943 22.9493 25.9383C23.4416 26.3737 23.8664 27.1986 23.8664 28.505C23.8664 30.3612 23.8443 31.851 23.8443 32.3091C23.8443 32.6759 24.0904 33.1115 24.7614 32.974C30.13 31.1403 33.9999 25.9611 33.9999 19.8422C34.0221 12.1875 27.9601 6 20.5112 6Z" fill="white"/>
</svg>
