<svg width="180" height="85" viewBox="0 0 180 85" fill="none" xmlns="http://www.w3.org/2000/svg">
<g filter="url(#filter0_d_821_305)">
<path d="M32.0114 16.0515C31.3423 16.2109 31.1298 16.4766 30.5669 17.8685C29.3347 20.9076 27.837 23.2559 25.7551 25.3704C23.567 27.6125 20.7416 29.4402 17.8842 30.4709C16.6415 30.9278 16.2378 31.236 16.0679 31.8947C15.9192 32.4579 15.9723 32.6704 16.6627 34.2856C17.3213 35.7945 17.863 37.569 18.1498 39.1629C18.426 40.6824 18.426 44.7627 18.1498 46.2823C17.8524 47.9293 17.3107 49.6826 16.6309 51.1808C16.0998 52.3709 16.0254 52.6366 16.0148 53.2103C16.0148 53.8373 16.036 53.9011 16.3866 54.2304C16.6309 54.4642 17.0982 54.7086 17.7143 54.9317C23.652 57.0994 28.1026 61.5196 30.365 67.4705C30.8643 68.7771 31.1723 69.2128 31.7671 69.4043C32.277 69.5742 32.7762 69.468 33.9234 68.9262C36.632 67.6616 39.4787 67.0561 42.729 67.0561C45.905 67.0667 48.7941 67.7041 51.6302 69.0323C52.7349 69.5423 53.2447 69.6166 53.8289 69.33C54.2857 69.1172 54.4238 68.9049 54.8911 67.6297C57.0792 61.743 61.7635 57.0782 67.5632 55.0061C67.9881 54.8574 68.4661 54.6661 68.6359 54.5704C68.9653 54.4005 69.4963 53.476 69.4963 53.0616C69.4963 52.9341 69.2093 52.1371 68.8485 51.3083C68.1367 49.6401 67.6057 47.908 67.3081 46.2823C67.0216 44.7627 67.0216 40.6824 67.3081 39.1629C67.6057 37.5159 68.1473 35.7626 68.8167 34.2644C69.3371 33.1061 69.4326 32.798 69.4432 32.256C69.4432 31.3316 69.2093 31.0447 68.1473 30.6621C63.5587 29.0364 59.8199 26.1249 57.1749 22.1083C56.4207 20.9607 55.4222 18.9418 54.9867 17.6985C54.6256 16.6784 54.2113 16.1896 53.6059 16.0515C53.0854 15.9346 52.8623 15.9878 51.6408 16.5616C46.1705 19.1224 39.4787 19.133 34.0508 16.5828C32.8293 16.009 32.5319 15.924 32.0114 16.0515ZM37.0038 21.1094C41.0295 22.0233 45.1083 21.9808 49.0066 20.9926C49.5589 20.8544 50.0157 20.7588 50.0263 20.7694C50.0475 20.7907 49.4527 22.2677 48.7092 24.0528L47.3496 27.315L46.5529 27.6231C44.3117 28.4945 41.4013 28.5051 39.0219 27.6444L38.2253 27.3575L36.9188 24.2228C35.3574 20.4932 35.4211 20.6738 35.676 20.7694C35.7929 20.8119 36.3877 20.9713 37.0038 21.1094ZM33.7428 25.2854C34.4757 27.06 35.0812 28.5582 35.0812 28.6114C35.0812 28.8239 34.1889 30.4815 33.7216 31.1403C33.1268 31.9798 32.1495 32.9574 31.2998 33.5949C30.5881 34.1156 29.0054 34.9656 28.7293 34.9656C28.5699 34.9656 22.2605 32.3835 22.1437 32.2666C22.1224 32.2348 22.3349 32.0967 22.6216 31.9585C22.8978 31.8097 23.567 31.4059 24.0875 31.0659C27.1254 29.0683 29.8446 26.2205 31.7034 23.1071C32.0646 22.5014 32.362 22.0126 32.3832 22.0339C32.3938 22.0445 32.9993 23.5109 33.7428 25.2854ZM53.9033 23.309C54.8168 24.8604 56.0702 26.4437 57.5891 27.9525C59.1611 29.5146 60.6162 30.6621 62.337 31.6929C62.9428 32.0542 63.4313 32.3517 63.4101 32.3729C63.3995 32.3835 61.9227 32.9999 60.117 33.7437L56.8562 35.1038L56.2932 34.8487C53.8608 33.733 51.8957 31.831 50.8123 29.5464C50.6317 29.1639 50.483 28.7814 50.483 28.6857C50.483 28.5901 51.0672 27.1343 51.7683 25.4448C52.4799 23.7553 53.0854 22.3102 53.1173 22.2252C53.1704 22.087 53.1916 22.087 53.266 22.2252C53.3191 22.3102 53.6059 22.7883 53.9033 23.309ZM41.5181 31.5866C42.6228 31.7035 44.2692 31.6185 45.2995 31.3953C45.5757 31.3316 45.5438 31.4272 44.1311 34.7956C43.345 36.7083 42.6546 38.2278 42.6121 38.1853C42.5272 38.0897 39.8611 31.5335 39.8611 31.4059C39.8611 31.3635 39.9673 31.3528 40.1054 31.3953C40.2328 31.4272 40.8702 31.5122 41.5181 31.5866ZM38.2784 36.3789C38.9794 38.0684 39.5318 39.471 39.5106 39.5029C39.4787 39.5242 38.0022 38.9398 36.2283 38.2065C34.4651 37.4627 32.925 36.8252 32.8187 36.7827C32.6487 36.7189 32.7125 36.6339 33.2223 36.2514C34.1464 35.5501 35.1662 34.5512 35.9841 33.5418L36.717 32.6279L36.8657 32.968C36.94 33.1592 37.5773 34.7 38.2784 36.3789ZM49.8244 34.0412C50.4936 34.8487 51.3434 35.6457 52.31 36.3789C52.5968 36.5914 52.7774 36.7827 52.7242 36.8146C52.4587 36.9846 45.9793 39.6304 45.9368 39.5985C45.9156 39.5666 46.5317 38.0153 47.3071 36.1345L48.7304 32.7236L48.9428 32.9786C49.0597 33.1167 49.4527 33.6055 49.8244 34.0412ZM24.1299 36.7721L27.3272 38.1003L27.6352 38.8972C28.5062 41.1499 28.5168 44.0508 27.6564 46.431L27.3697 47.2279L24.0981 48.5987C22.303 49.3425 20.8159 49.9482 20.7947 49.9269C20.7841 49.9057 20.9221 49.2681 21.1133 48.5137C21.3045 47.7486 21.5382 46.5373 21.6338 45.8254C21.8462 44.1464 21.8568 41.2137 21.6444 39.5666C21.4957 38.451 20.9965 36.1026 20.7841 35.5607C20.7309 35.4332 20.7522 35.3801 20.8265 35.4013C20.8903 35.4226 22.3773 36.0389 24.1299 36.7721ZM64.6632 35.5713C64.4403 36.1557 63.9624 38.4403 63.8027 39.6517C63.6648 40.7355 63.6436 41.575 63.686 43.2964C63.7391 45.6872 63.9411 47.1748 64.4403 48.96C64.5889 49.47 64.6844 49.9057 64.6632 49.9269C64.6525 49.9482 63.1762 49.3744 61.3811 48.6518L58.1415 47.3448L57.9184 46.8348C56.9199 44.5396 56.9093 41.1712 57.8865 38.7378L58.1415 38.1003L61.3492 36.7614C63.1125 36.0176 64.5995 35.4119 64.6525 35.4013C64.695 35.3907 64.7056 35.4757 64.6632 35.5713ZM34.9962 41.3199C36.7913 42.0638 38.2678 42.6907 38.2678 42.7226C38.2678 42.797 31.4591 45.6234 31.406 45.5703C31.3848 45.5384 31.406 45.2622 31.4697 44.954C31.7353 43.5726 31.6928 41.288 31.3954 40.0767C31.321 39.7579 30.9068 39.6198 34.9962 41.3199ZM54.0626 40.0873C53.7546 41.3199 53.7121 43.9977 53.9776 45.1134C54.0414 45.3472 54.0626 45.549 54.0414 45.5703C53.9989 45.6234 47.1902 42.797 47.1902 42.7226C47.1902 42.6694 53.8714 39.8642 54.0307 39.8536C54.0732 39.8536 54.0945 39.9598 54.0626 40.0873ZM39.5424 45.9741C39.5424 46.0166 37.6942 50.5114 36.855 52.4771L36.717 52.8172L36.0159 51.9352C35.2405 50.9683 34.1571 49.9057 33.2223 49.1938C32.8825 48.9387 32.67 48.7156 32.7337 48.6943C32.7975 48.6731 34.327 48.0355 36.1221 47.2811C39.3831 45.921 39.5424 45.8572 39.5424 45.9741ZM49.0809 47.1748C50.7592 47.8762 52.2888 48.5137 52.4799 48.5987L52.8199 48.7369L51.9382 49.4381C50.9716 50.2032 49.9094 51.2977 49.1978 52.2328L48.7517 52.8278L48.6029 52.4771C47.7638 50.5008 45.9156 46.0166 45.9156 45.9741C45.9156 45.9422 45.9475 45.9103 45.9793 45.9103C46.0112 45.9103 47.4133 46.4841 49.0809 47.1748ZM44.1948 50.5964C44.9702 52.4771 45.5969 54.0285 45.565 54.0498C45.5438 54.071 45.2464 54.0392 44.8959 53.9648C44.0992 53.8054 41.38 53.8054 40.5621 53.9648C40.2116 54.0392 39.9248 54.0817 39.9142 54.0604C39.8823 54.0179 42.6759 47.1855 42.729 47.1855C42.7609 47.1855 43.4194 48.7262 44.1948 50.5964ZM29.7596 50.862C31.5866 51.7971 33.2648 53.4016 34.2846 55.208C35.1556 56.7488 35.2087 56.3769 33.6472 60.1064C32.7231 62.2954 32.2451 63.3154 32.192 63.2199C30.6306 60.5527 29.7065 59.3202 27.8689 57.482C26.3075 55.9306 24.8735 54.8043 23.1102 53.7523C22.5048 53.391 22.0374 53.0722 22.0905 53.0616C22.133 53.0404 23.5883 52.4346 25.309 51.7121C27.0297 50.9789 28.5275 50.3839 28.6231 50.3839C28.7187 50.3732 29.2285 50.5964 29.7596 50.862ZM60.1382 51.829C62.3052 52.7322 63.3142 53.2103 63.2187 53.2635C60.5419 54.8361 59.2886 55.7818 57.4935 57.5882C55.9321 59.1502 54.7955 60.6058 53.7652 62.3379C53.3934 62.9439 53.096 63.4326 53.0748 63.4114C53.0642 63.4008 52.4481 61.9341 51.7045 60.1489C50.1644 56.4406 50.2175 56.8125 51.0672 55.3143C52.0869 53.5079 53.7652 51.9034 55.5922 50.9683C56.1233 50.7026 56.6331 50.4795 56.7287 50.4795C56.8243 50.4795 58.3645 51.0851 60.1382 51.829ZM45.5544 57.4926C46.0006 57.6095 46.5954 57.8114 46.8609 57.9282L47.3496 58.1408L48.7092 61.3922C49.4527 63.1774 50.0475 64.6543 50.0263 64.6755C50.0157 64.6861 49.5695 64.5906 49.049 64.4526C45.1402 63.4432 40.6683 63.422 36.7382 64.3995C36.0903 64.5588 35.5485 64.6755 35.5273 64.6649C35.506 64.6437 36.1115 63.1668 36.855 61.371L38.2147 58.1089L38.7458 57.8964C40.7852 57.0888 43.5044 56.9294 45.5544 57.4926Z" fill="white"/>
</g>
<g filter="url(#filter1_d_821_305)">
<path d="M80.6418 52.4668C80.2814 52.4668 79.9854 52.351 79.7537 52.1193C79.522 51.8876 79.4062 51.5915 79.4062 51.2311V49.9955C79.4062 49.6608 79.2774 49.3777 79.02 49.146C78.7883 48.8886 78.5052 48.7599 78.1705 48.7599H76.9349C76.5745 48.7599 76.2784 48.644 76.0467 48.4123C75.8151 48.1806 75.6992 47.8846 75.6992 47.5242V35.1677C75.6992 34.8331 75.8151 34.5499 76.0467 34.3182C76.2784 34.0608 76.5745 33.9321 76.9349 33.9321H78.1705C78.5052 33.9321 78.7883 34.0608 79.02 34.3182C79.2774 34.5499 79.4062 34.8331 79.4062 35.1677V47.5242C79.4062 47.8846 79.522 48.1806 79.7537 48.4123C79.9854 48.644 80.2814 48.7599 80.6418 48.7599H81.8775C82.2121 48.7599 82.4953 48.644 82.727 48.4123C82.9844 48.1806 83.1131 47.8846 83.1131 47.5242V46.2886C83.1131 45.9539 83.2289 45.6707 83.4606 45.439C83.6923 45.1816 83.9884 45.0529 84.3488 45.0529H85.5844C85.9191 45.0529 86.2022 44.9371 86.4339 44.7054C86.6913 44.4737 86.8201 44.1777 86.8201 43.8173V35.1677C86.8201 34.8331 86.9359 34.5499 87.1676 34.3182C87.3993 34.0608 87.6953 33.9321 88.0557 33.9321H89.2913C89.626 33.9321 89.9092 34.0608 90.1409 34.3182C90.3983 34.5499 90.527 34.8331 90.527 35.1677V47.5242C90.527 47.8846 90.6428 48.1806 90.8745 48.4123C91.1062 48.644 91.4022 48.7599 91.7626 48.7599H92.9983C93.3329 48.7599 93.6161 48.644 93.8478 48.4123C94.1052 48.1806 94.2339 47.8846 94.2339 47.5242V46.2886C94.2339 45.9539 94.3498 45.6707 94.5815 45.439C94.8132 45.1816 95.1092 45.0529 95.4696 45.0529H96.7052C97.0399 45.0529 97.3231 44.9371 97.5547 44.7054C97.8122 44.4737 97.9409 44.1777 97.9409 43.8173V35.1677C97.9409 34.8331 98.0567 34.5499 98.2884 34.3182C98.5201 34.0608 98.8161 33.9321 99.1765 33.9321H100.412C100.747 33.9321 101.03 34.0608 101.262 34.3182C101.519 34.5499 101.648 34.8331 101.648 35.1677V43.8173C101.648 44.1777 101.519 44.4737 101.262 44.7054C101.03 44.9371 100.747 45.0529 100.412 45.0529H99.1765C98.8161 45.0529 98.5201 45.1816 98.2884 45.439C98.0567 45.6707 97.9409 45.9539 97.9409 46.2886V47.5242C97.9409 47.8846 97.8122 48.1806 97.5547 48.4123C97.3231 48.644 97.0399 48.7599 96.7052 48.7599H95.4696C95.1092 48.7599 94.8132 48.8886 94.5815 49.146C94.3498 49.3777 94.2339 49.6608 94.2339 49.9955V51.2311C94.2339 51.5915 94.1052 51.8876 93.8478 52.1193C93.6161 52.351 93.3329 52.4668 92.9983 52.4668H91.7626C91.4022 52.4668 91.1062 52.351 90.8745 52.1193C90.6428 51.8876 90.527 51.5915 90.527 51.2311V49.9955C90.527 49.6608 90.3983 49.3777 90.1409 49.146C89.9092 48.8886 89.626 48.7599 89.2913 48.7599H84.3488C83.9884 48.7599 83.6923 48.8886 83.4606 49.146C83.2289 49.3777 83.1131 49.6608 83.1131 49.9955V51.2311C83.1131 51.5915 82.9844 51.8876 82.727 52.1193C82.4953 52.351 82.2121 52.4668 81.8775 52.4668H80.6418ZM112.769 41.346C113.103 41.346 113.386 41.2301 113.618 40.9984C113.876 40.7668 114.004 40.4707 114.004 40.1103V38.8747C114.004 38.54 113.876 38.2568 113.618 38.0252C113.386 37.7677 113.103 37.639 112.769 37.639H107.826C107.466 37.639 107.17 37.7677 106.938 38.0252C106.706 38.2568 106.59 38.54 106.59 38.8747V40.1103C106.59 40.4707 106.706 40.7668 106.938 40.9984C107.17 41.2301 107.466 41.346 107.826 41.346H112.769ZM107.826 52.4668C107.466 52.4668 107.17 52.351 106.938 52.1193C106.706 51.8876 106.59 51.5915 106.59 51.2311V49.9955C106.59 49.6608 106.462 49.3777 106.204 49.146C105.973 48.8886 105.689 48.7599 105.355 48.7599H104.119C103.759 48.7599 103.463 48.644 103.231 48.4123C102.999 48.1806 102.883 47.8846 102.883 47.5242V38.8747C102.883 38.54 102.999 38.2568 103.231 38.0252C103.463 37.7677 103.759 37.639 104.119 37.639H105.355C105.689 37.639 105.973 37.5232 106.204 37.2915C106.462 37.0598 106.59 36.7638 106.59 36.4034V35.1677C106.59 34.8331 106.706 34.5499 106.938 34.3182C107.17 34.0608 107.466 33.9321 107.826 33.9321H112.769C113.103 33.9321 113.386 34.0608 113.618 34.3182C113.876 34.5499 114.004 34.8331 114.004 35.1677V36.4034C114.004 36.7638 114.12 37.0598 114.352 37.2915C114.584 37.5232 114.88 37.639 115.24 37.639H116.476C116.81 37.639 117.093 37.7677 117.325 38.0252C117.583 38.2568 117.711 38.54 117.711 38.8747V44.4351C117.711 44.6153 117.647 44.7697 117.518 44.8985C117.389 45.0014 117.248 45.0529 117.093 45.0529H107.826C107.466 45.0529 107.17 45.1816 106.938 45.439C106.706 45.6707 106.59 45.9539 106.59 46.2886V47.5242C106.59 47.8846 106.706 48.1806 106.938 48.4123C107.17 48.644 107.466 48.7599 107.826 48.7599H116.476C116.81 48.7599 117.093 48.8886 117.325 49.146C117.583 49.3777 117.711 49.6608 117.711 49.9955V51.2311C117.711 51.5915 117.583 51.8876 117.325 52.1193C117.093 52.351 116.81 52.4668 116.476 52.4668H107.826ZM128.832 48.7599C129.167 48.7599 129.45 48.644 129.682 48.4123C129.939 48.1806 130.068 47.8846 130.068 47.5242V38.8747C130.068 38.54 129.939 38.2568 129.682 38.0252C129.45 37.7677 129.167 37.639 128.832 37.639H123.889C123.529 37.639 123.233 37.7677 123.001 38.0252C122.77 38.2568 122.654 38.54 122.654 38.8747V47.5242C122.654 47.8846 122.77 48.1806 123.001 48.4123C123.233 48.644 123.529 48.7599 123.889 48.7599H128.832ZM120.183 52.4668C119.822 52.4668 119.526 52.351 119.294 52.1193C119.063 51.8876 118.947 51.5915 118.947 51.2311V27.7538C118.947 27.4192 119.063 27.136 119.294 26.9043C119.526 26.6469 119.822 26.5182 120.183 26.5182H121.418C121.753 26.5182 122.036 26.6469 122.268 26.9043C122.525 27.136 122.654 27.4192 122.654 27.7538V32.6964C122.654 33.0568 122.77 33.3529 123.001 33.5845C123.233 33.8162 123.529 33.9321 123.889 33.9321H132.539C132.874 33.9321 133.157 34.0608 133.389 34.3182C133.646 34.5499 133.775 34.8331 133.775 35.1677V47.5242C133.775 47.8846 133.646 48.1806 133.389 48.4123C133.157 48.644 132.874 48.7599 132.539 48.7599H131.303C130.943 48.7599 130.647 48.8886 130.415 49.146C130.184 49.3777 130.068 49.6608 130.068 49.9955V51.2311C130.068 51.5915 129.939 51.8876 129.682 52.1193C129.45 52.351 129.167 52.4668 128.832 52.4668H120.183ZM136.246 52.4668C135.886 52.4668 135.59 52.351 135.358 52.1193C135.126 51.8876 135.01 51.5915 135.01 51.2311V49.9955C135.01 49.6608 135.126 49.3777 135.358 49.146C135.59 48.8886 135.886 48.7599 136.246 48.7599H137.482C137.816 48.7599 138.099 48.8886 138.331 49.146C138.589 49.3777 138.717 49.6608 138.717 49.9955V51.2311C138.717 51.5915 138.589 51.8876 138.331 52.1193C138.099 52.351 137.816 52.4668 137.482 52.4668H136.246ZM149.838 48.7599C150.173 48.7599 150.456 48.644 150.688 48.4123C150.945 48.1806 151.074 47.8846 151.074 47.5242V46.2886C151.074 45.9539 150.945 45.6707 150.688 45.439C150.456 45.1816 150.173 45.0529 149.838 45.0529H144.896C144.535 45.0529 144.239 45.1816 144.007 45.439C143.776 45.6707 143.66 45.9539 143.66 46.2886V47.5242C143.66 47.8846 143.776 48.1806 144.007 48.4123C144.239 48.644 144.535 48.7599 144.896 48.7599H149.838ZM144.896 52.4668C144.535 52.4668 144.239 52.351 144.007 52.1193C143.776 51.8876 143.66 51.5915 143.66 51.2311V49.9955C143.66 49.6608 143.531 49.3777 143.274 49.146C143.042 48.8886 142.759 48.7599 142.424 48.7599H141.189C140.828 48.7599 140.532 48.644 140.3 48.4123C140.069 48.1806 139.953 47.8846 139.953 47.5242V42.5816C139.953 42.247 140.069 41.9638 140.3 41.7321C140.532 41.4747 140.828 41.346 141.189 41.346H149.838C150.173 41.346 150.456 41.2301 150.688 40.9984C150.945 40.7668 151.074 40.4707 151.074 40.1103V38.8747C151.074 38.54 150.945 38.2568 150.688 38.0252C150.456 37.7677 150.173 37.639 149.838 37.639H141.189C140.828 37.639 140.532 37.5232 140.3 37.2915C140.069 37.0598 139.953 36.7638 139.953 36.4034V35.1677C139.953 34.8331 140.069 34.5499 140.3 34.3182C140.532 34.0608 140.828 33.9321 141.189 33.9321H149.838C150.173 33.9321 150.456 34.0608 150.688 34.3182C150.945 34.5499 151.074 34.8331 151.074 35.1677V36.4034C151.074 36.7638 151.19 37.0598 151.421 37.2915C151.653 37.5232 151.949 37.639 152.309 37.639H153.545C153.88 37.639 154.163 37.7677 154.395 38.0252C154.652 38.2568 154.781 38.54 154.781 38.8747V51.2311C154.781 51.5915 154.652 51.8876 154.395 52.1193C154.163 52.351 153.88 52.4668 153.545 52.4668H144.896ZM157.252 52.4668C156.892 52.4668 156.596 52.351 156.364 52.1193C156.132 51.8876 156.016 51.5915 156.016 51.2311V35.1677C156.016 34.8331 156.132 34.5499 156.364 34.3182C156.596 34.0608 156.892 33.9321 157.252 33.9321H158.488C158.822 33.9321 159.105 34.0608 159.337 34.3182C159.595 34.5499 159.723 34.8331 159.723 35.1677V51.2311C159.723 51.5915 159.595 51.8876 159.337 52.1193C159.105 52.351 158.822 52.4668 158.488 52.4668H157.252ZM157.252 30.2251C156.892 30.2251 156.596 30.1093 156.364 29.8776C156.132 29.6459 156.016 29.3499 156.016 28.9895V27.7538C156.016 27.4192 156.132 27.136 156.364 26.9043C156.596 26.6469 156.892 26.5182 157.252 26.5182H158.488C158.822 26.5182 159.105 26.6469 159.337 26.9043C159.595 27.136 159.723 27.4192 159.723 27.7538V28.9895C159.723 29.3499 159.595 29.6459 159.337 29.8776C159.105 30.1093 158.822 30.2251 158.488 30.2251H157.252Z" fill="white"/>
</g>
<defs>
<filter id="filter0_d_821_305" x="0.532593" y="0.532593" width="84.4309" height="84.4309" filterUnits="userSpaceOnUse" color-interpolation-filters="sRGB">
<feFlood flood-opacity="0" result="BackgroundImageFix"/>
<feColorMatrix in="SourceAlpha" type="matrix" values="0 0 0 0 0 0 0 0 0 0 0 0 0 0 0 0 0 0 127 0" result="hardAlpha"/>
<feOffset/>
<feGaussianBlur stdDeviation="7.7337"/>
<feComposite in2="hardAlpha" operator="out"/>
<feColorMatrix type="matrix" values="0 0 0 0 1 0 0 0 0 1 0 0 0 0 1 0 0 0 1 0"/>
<feBlend mode="normal" in2="BackgroundImageFix" result="effect1_dropShadow_821_305"/>
<feBlend mode="normal" in="SourceGraphic" in2="effect1_dropShadow_821_305" result="shape"/>
</filter>
<filter id="filter1_d_821_305" x="55.4637" y="6.283" width="124.495" height="66.4194" filterUnits="userSpaceOnUse" color-interpolation-filters="sRGB">
<feFlood flood-opacity="0" result="BackgroundImageFix"/>
<feColorMatrix in="SourceAlpha" type="matrix" values="0 0 0 0 0 0 0 0 0 0 0 0 0 0 0 0 0 0 127 0" result="hardAlpha"/>
<feOffset/>
<feGaussianBlur stdDeviation="10.1178"/>
<feComposite in2="hardAlpha" operator="out"/>
<feColorMatrix type="matrix" values="0 0 0 0 1 0 0 0 0 1 0 0 0 0 1 0 0 0 1 0"/>
<feBlend mode="normal" in2="BackgroundImageFix" result="effect1_dropShadow_821_305"/>
<feBlend mode="normal" in="SourceGraphic" in2="effect1_dropShadow_821_305" result="shape"/>
</filter>
</defs>
</svg>
