<svg width="108" height="100" viewBox="0 0 108 100" fill="none" xmlns="http://www.w3.org/2000/svg">
<g filter="url(#filter0_d_938_1443)">
<path d="M28.1543 18.1817C27.9382 18.2536 27.596 18.5593 27.3799 18.8291C27.0017 19.3146 26.9837 19.4045 27.0377 25.177L27.0917 31.0394L28.3704 33.1075C29.487 34.9238 30.6757 36.812 34.2416 42.4946L35.1061 43.8972H32.1885H29.2529L26.4073 39.5993C23.3457 34.9957 22.7694 34.2764 21.9949 34.1325C21.3286 33.9886 19.7977 34.7439 18.7892 35.715C17.8347 36.6141 17.7626 37.2615 18.483 38.4844C19.0954 39.5454 22.9134 45.2819 24.4623 47.4578C26.2272 49.9934 25.9751 49.9035 32.3146 50.0114L37.5374 50.1013L35.9165 50.6948C35.034 51.0184 32.9989 51.7378 31.4141 52.3132C29.2169 53.1045 28.4064 53.4821 27.9562 53.9137C27.632 54.2374 25.795 56.8629 23.8499 59.7581C20.6802 64.5056 20.338 65.0991 20.338 65.7644C20.338 66.7175 20.8603 67.3829 22.3011 68.264C23.5258 69.0013 24.3722 69.0733 25.0746 68.5338C25.3268 68.336 27.0017 65.9802 28.7846 63.3367L32.0444 58.4993L35.6103 57.3125L39.1943 56.1076L41.5896 56.1616L43.9849 56.2155L44.6693 59.5423C45.7318 64.6495 46.2902 65.8903 48.4873 67.9404C50.0722 69.415 51.1528 69.8286 53.6562 69.9365C55.241 69.9904 55.7273 69.9544 56.6818 69.6307C58.969 68.8575 60.6259 67.3649 61.7786 65.0271C62.3549 63.8582 62.643 62.8872 63.2734 59.902L64.0478 56.2155L66.4431 56.1616L68.8384 56.1076L72.4224 57.3125L75.9883 58.4993L79.2481 63.3367C81.031 65.9802 82.706 68.336 82.9581 68.5338C83.2102 68.7316 83.6785 68.8934 83.9846 68.8934C85.0832 68.8934 87.1904 67.4728 87.6226 66.4298C87.8568 65.8903 87.8568 65.7464 87.5506 65.0631C87.0643 63.9841 80.7969 54.651 80.0765 53.9137C79.5542 53.4102 78.7798 53.0685 75.52 51.9176C73.3409 51.1623 71.2877 50.425 70.9456 50.2811C70.3873 50.0474 70.8555 50.0294 75.52 50.0294C81.8415 50.0114 81.7334 50.0474 83.3543 47.7635C84.651 45.9653 88.9013 39.5993 89.5497 38.4844C90.4502 36.9558 90.0359 35.9847 87.9828 34.7439C86.8842 34.0965 85.9657 33.9707 85.2994 34.4202C85.0832 34.5641 83.5344 36.758 81.8415 39.2936L78.7798 43.8792L75.8442 43.8972H72.9266L73.7911 42.5125C77.357 36.812 78.5457 34.9238 79.6623 33.1075L80.941 31.0394V25.0511V19.0448L80.3467 18.5233C79.7884 18.0378 79.6803 18.0018 78.1315 18.0018C77.0869 18.0018 76.3305 18.0918 76.0063 18.2536C75.0878 18.7391 75.0158 19.1168 74.9077 24.4757L74.8177 29.421L71.0536 35.4453C68.9645 38.7541 66.9654 41.9371 66.6052 42.4946L65.9388 43.5376L65.9568 40.0669C65.9749 37.2615 65.9208 36.3983 65.6507 35.4453C64.426 30.9855 61.0222 27.4429 56.8979 26.3459C55.3491 25.9503 52.6836 25.9503 51.1348 26.3459C49.0817 26.9034 47.6049 27.8025 45.8219 29.5828C44.4892 30.9136 44.0389 31.507 43.4446 32.7478C42.2019 35.2834 42.0398 36.1106 42.0759 40.0129C42.0939 43.2858 42.0759 43.4117 41.7697 42.9981C41.6076 42.7643 39.6085 39.6173 37.3393 36.0027L33.215 29.421L33.125 24.4757C33.0169 19.1527 32.9629 18.8291 32.0444 18.3076C31.4861 17.9659 28.8567 17.8939 28.1543 18.1817ZM55.4031 30.8057C55.5112 30.9315 55.6913 31.471 55.8173 31.9925C55.9974 32.8018 56.1415 32.9996 56.6098 33.2334C57.1681 33.4851 57.2221 33.4851 58.1226 32.9097L59.0771 32.3162L60.0496 33.2873C60.5899 33.8268 61.0402 34.3303 61.0402 34.4022C61.0402 34.4922 60.806 34.9238 60.5179 35.3733C60.0496 36.1466 60.0136 36.2545 60.2297 36.776C60.4278 37.2256 60.644 37.3874 61.4364 37.6032C62.8412 37.9988 62.8412 37.9988 62.8412 39.4914V40.8221L61.8146 41.1099C61.2383 41.2717 60.698 41.4156 60.6259 41.4515C60.5359 41.4695 60.3558 41.7213 60.2297 42.027C60.0136 42.5305 60.0496 42.6564 60.5179 43.4297C60.806 43.8792 61.0402 44.3108 61.0402 44.4007C61.0402 44.4727 60.6079 44.9762 60.0676 45.4977L59.0951 46.4688L58.1766 45.9113C57.3121 45.3718 57.2581 45.3538 56.6278 45.6056C56.2856 45.7674 55.9974 45.9832 55.9974 46.1091C55.9974 46.235 55.8714 46.7745 55.7273 47.278L55.4391 48.2131H54.0164H52.5936L52.4135 47.5298C52.3234 47.1701 52.1794 46.6306 52.1073 46.3609C52.0353 46.0192 51.8011 45.7854 51.4229 45.6236C50.9187 45.4078 50.7926 45.4437 49.9281 45.9113L48.9916 46.4328L48.0731 45.5876C47.5869 45.1201 47.1726 44.5986 47.1726 44.4007C47.1726 44.2209 47.3707 43.7534 47.6229 43.3577C48.0551 42.6924 48.0551 42.6024 47.821 42.027C47.6049 41.5055 47.4428 41.3976 46.6143 41.1998C46.074 41.0739 45.5337 40.8941 45.4257 40.7862C45.2816 40.6783 45.1916 40.1568 45.1916 39.4015C45.1916 38.6462 45.2816 38.1247 45.4257 38.0168C45.5337 37.9089 46.074 37.7291 46.5963 37.6032C47.3167 37.4414 47.6049 37.2795 47.803 36.9019C48.0191 36.4523 48.0011 36.3444 47.5148 35.5711C47.2267 35.1036 46.9925 34.5821 46.9925 34.3843C46.9925 34.2044 47.4068 33.6829 47.893 33.2154L48.8115 32.3702L49.8201 32.9277C50.7926 33.4851 50.8646 33.5031 51.4229 33.2334C51.8912 32.9996 52.0353 32.8018 52.2154 31.9925C52.3414 31.471 52.5215 30.9315 52.6296 30.8057C52.7377 30.6798 53.2599 30.5899 54.0164 30.5899C54.7728 30.5899 55.295 30.6798 55.4031 30.8057Z" fill="white"/>
<path d="M52.3959 36.1967C49.7485 37.6173 49.8025 41.4477 52.4859 42.6525C54.8993 43.7495 57.6187 42.0591 57.6187 39.4516C57.6187 36.7541 54.7192 34.9558 52.3959 36.1967Z" fill="white"/>
<path d="M38.6187 60.4936L36.8537 61.069L35.0527 64.7375C33.6299 67.5968 33.2157 68.6039 33.1617 69.3412C33.0897 70.1504 33.2878 70.9237 34.6205 74.9518C36.5115 80.6884 36.7997 81.4257 37.466 81.7494C38.1684 82.127 38.5826 82.091 40.2035 81.5516C41.7163 81.048 42.3107 80.4546 42.3107 79.5015C42.2927 79.2497 41.6263 76.9839 40.7978 74.4663L39.303 69.8807L40.5457 67.399L41.7884 64.9174L41.2841 62.5077C41.014 61.1769 40.6898 60.044 40.5997 60.008C40.4917 59.9721 39.6092 60.1879 38.6187 60.4936Z" fill="white"/>
<path d="M67.4161 60.0441C67.3081 60.116 67.0199 61.231 66.7498 62.5437L66.2455 64.8995L67.4882 67.3991L68.7308 69.8807L67.236 74.4664C66.4076 76.984 65.7412 79.2498 65.7232 79.5016C65.7232 80.4547 66.3175 81.0481 67.8304 81.5516C69.5053 82.1091 69.9555 82.1271 70.6939 81.6775C71.2162 81.3538 71.3783 80.9582 73.1072 75.8151C74.7281 70.9597 74.9442 70.1685 74.8722 69.3412C74.8182 68.6039 74.4039 67.5969 72.9812 64.7376L71.1802 61.0691L70.1176 60.7274C67.9024 60.0261 67.5782 59.9362 67.4161 60.0441Z" fill="white"/>
</g>
<defs>
<filter id="filter0_d_938_1443" x="0.799999" y="0.801952" width="106.4" height="98.398" filterUnits="userSpaceOnUse" color-interpolation-filters="sRGB">
<feFlood flood-opacity="0" result="BackgroundImageFix"/>
<feColorMatrix in="SourceAlpha" type="matrix" values="0 0 0 0 0 0 0 0 0 0 0 0 0 0 0 0 0 0 127 0" result="hardAlpha"/>
<feOffset/>
<feGaussianBlur stdDeviation="8.6"/>
<feComposite in2="hardAlpha" operator="out"/>
<feColorMatrix type="matrix" values="0 0 0 0 1 0 0 0 0 1 0 0 0 0 1 0 0 0 0.55 0"/>
<feBlend mode="normal" in2="BackgroundImageFix" result="effect1_dropShadow_938_1443"/>
<feBlend mode="normal" in="SourceGraphic" in2="effect1_dropShadow_938_1443" result="shape"/>
</filter>
</defs>
</svg>
