<svg width="108" height="99" viewBox="0 0 108 99" fill="none" xmlns="http://www.w3.org/2000/svg">
<g filter="url(#filter0_d_938_1421)">
<path d="M28.1738 17.7238C27.9577 17.7957 27.6155 18.1014 27.3994 18.3712C27.0212 18.8567 27.0032 18.9466 27.0572 24.7193L27.1112 30.5818L28.3899 32.6498C29.5065 34.4661 30.6952 36.3544 34.2611 42.0371L35.1256 43.4398H32.208H29.2724L26.4269 39.1418C23.3652 34.5381 22.7889 33.8187 22.0145 33.6749C21.3481 33.531 19.8173 34.2863 18.8087 35.2574C17.8542 36.1566 17.7822 36.804 18.5026 38.0268C19.1149 39.0878 22.933 44.8245 24.4818 47.0004C26.2468 49.5361 25.9946 49.4461 32.3341 49.554L37.5569 49.644L35.936 50.2374C35.0536 50.5611 33.0185 51.2804 31.4336 51.8559C29.2364 52.6472 28.426 53.0248 27.9757 53.4564C27.6515 53.7801 25.8145 56.4056 23.8695 59.3009C20.6998 64.0485 20.3576 64.6419 20.3576 65.3073C20.3576 66.2604 20.8799 66.9258 22.3206 67.807C23.5453 68.5443 24.3918 68.6162 25.0941 68.0767C25.3463 67.8789 27.0212 65.5231 28.8042 62.8796L32.0639 58.0421L35.6299 56.8552L39.2138 55.6503L41.6091 55.7043L44.0044 55.7582L44.6888 59.0851C45.7514 64.1924 46.3097 65.4332 48.5069 67.4833C50.0917 68.9579 51.1723 69.3715 53.6757 69.4794C55.2606 69.5334 55.7468 69.4974 56.7013 69.1737C58.9886 68.4004 60.6455 66.9078 61.7981 64.57C62.3744 63.4011 62.6626 62.43 63.2929 59.4448L64.0673 55.7582L66.4626 55.7043L68.858 55.6503L72.4419 56.8552L76.0078 58.0421L79.2676 62.8796C81.0506 65.5231 82.7255 67.8789 82.9776 68.0767C83.2298 68.2746 83.698 68.4364 84.0042 68.4364C85.1028 68.4364 87.2099 67.0157 87.6422 65.9727C87.8763 65.4332 87.8763 65.2893 87.5701 64.606C87.0839 63.527 80.8165 54.1937 80.0961 53.4564C79.5738 52.9529 78.7994 52.6112 75.5396 51.4603C73.3604 50.705 71.3073 49.9677 70.9651 49.8238C70.4068 49.59 70.875 49.572 75.5396 49.572C81.861 49.554 81.753 49.59 83.3738 47.3061C84.6706 45.5078 88.9209 39.1418 89.5692 38.0268C90.4697 36.4982 90.0555 35.5272 88.0024 34.2863C86.9038 33.6389 85.9853 33.513 85.3189 33.9626C85.1028 34.1065 83.5539 36.3004 81.861 38.8361L78.7994 43.4218L75.8638 43.4398H72.9462L73.8106 42.0551C77.3766 36.3544 78.5652 34.4661 79.6818 32.6498L80.9605 30.5818V24.5934V18.587L80.3662 18.0655C79.8079 17.5799 79.6998 17.544 78.151 17.544C77.1064 17.544 76.35 17.6339 76.0258 17.7957C75.1073 18.2813 75.0353 18.6589 74.9273 24.0179L74.8372 28.9633L71.0732 34.9877C68.984 38.2966 66.9849 41.4796 66.6247 42.0371L65.9584 43.0801L65.9764 39.6093C65.9944 36.804 65.9404 35.9408 65.6702 34.9877C64.4456 30.5278 61.0417 26.9851 56.9175 25.8882C55.3686 25.4925 52.7032 25.4925 51.1543 25.8882C49.1012 26.4456 47.6244 27.3448 45.8414 29.1251C44.5087 30.4559 44.0585 31.0493 43.4641 32.2902C42.2215 34.8258 42.0594 35.653 42.0954 39.5554C42.1134 42.8283 42.0954 42.9542 41.7892 42.5406C41.6271 42.3068 39.6281 39.1598 37.3588 35.5451L33.2346 28.9633L33.1445 24.0179C33.0365 18.6949 32.9824 18.3712 32.0639 17.8497C31.5056 17.508 28.8762 17.4361 28.1738 17.7238ZM53.3155 31.5708C55.5487 32.0924 57.3857 32.5419 57.4217 32.5779C57.4758 32.6139 55.4046 39.7172 55.0084 40.9041C54.9544 41.048 54.5041 40.4186 53.9458 39.4655C52.8653 37.5772 52.8472 37.5593 51.4965 38.4224C49.8576 39.4655 48.1107 41.6954 48.0927 42.7564C48.0927 43.3858 47.7505 43.0621 47.1742 41.8932C45.8774 39.2856 46.6699 36.9119 49.5514 34.7898L50.7761 33.8727L50.3619 33.2253C49.3353 31.5529 48.759 30.4379 49.0112 30.5278C49.1552 30.5818 51.0823 31.0493 53.3155 31.5708ZM60.9697 41.7673C61.618 43.0801 61.672 44.5547 61.1137 45.7776C60.6455 46.8206 59.2947 48.2952 58.1601 49.0325L57.2777 49.608L57.6198 50.1655C58.5203 51.6401 59.2227 52.8809 59.1687 52.9349C59.1147 52.9888 50.7761 51.0287 50.6681 50.9388C50.65 50.9028 51.1363 49.1045 51.7847 46.9285C52.433 44.7705 52.9553 42.9003 52.9553 42.7744C52.9553 42.2349 53.2975 42.6305 54.1079 44.0692C54.5762 44.9144 55.0444 45.6337 55.1345 45.7056C55.4226 45.8855 57.1516 44.8065 58.1241 43.8354C59.1147 42.8643 59.9791 41.4077 59.9791 40.7243C59.9791 40.1309 60.3573 40.5445 60.9697 41.7673Z" fill="white"/>
<path d="M38.6378 60.0362L36.8728 60.6117L35.0718 64.2802C33.649 67.1396 33.2348 68.1466 33.1808 68.8839C33.1088 69.6932 33.3069 70.4665 34.6396 74.4947C36.5306 80.2313 36.8188 80.9686 37.4851 81.2923C38.1875 81.67 38.6017 81.634 40.2226 81.0945C41.7354 80.591 42.3298 79.9975 42.3298 79.0444C42.3118 78.7927 41.6454 76.5268 40.8169 74.0091L39.3221 69.4234L40.5648 66.9417L41.8075 64.4601L41.3032 62.0503C41.0331 60.7196 40.7089 59.5866 40.6188 59.5507C40.5108 59.5147 39.6283 59.7305 38.6378 60.0362Z" fill="white"/>
<path d="M67.4351 59.5867C67.327 59.6586 67.0389 60.7736 66.7687 62.0864L66.2645 64.4422L67.5071 66.9418L68.7498 69.4235L67.255 74.0092C66.4266 76.5269 65.7602 78.7927 65.7422 79.0445C65.7422 79.9976 66.3365 80.5911 67.8493 81.0946C69.5242 81.6521 69.9745 81.6701 70.7129 81.2205C71.2352 80.8968 71.3973 80.5011 73.1262 75.358C74.7471 70.5025 74.9632 69.7112 74.8912 68.884C74.8371 68.1467 74.4229 67.1396 73.0001 64.2803L71.1992 60.6117L70.1366 60.2701C67.9214 59.5687 67.5972 59.4788 67.4351 59.5867Z" fill="white"/>
</g>
<defs>
<filter id="filter0_d_938_1421" x="0.81953" y="0.344921" width="106.4" height="98.398" filterUnits="userSpaceOnUse" color-interpolation-filters="sRGB">
<feFlood flood-opacity="0" result="BackgroundImageFix"/>
<feColorMatrix in="SourceAlpha" type="matrix" values="0 0 0 0 0 0 0 0 0 0 0 0 0 0 0 0 0 0 127 0" result="hardAlpha"/>
<feOffset/>
<feGaussianBlur stdDeviation="8.6"/>
<feComposite in2="hardAlpha" operator="out"/>
<feColorMatrix type="matrix" values="0 0 0 0 1 0 0 0 0 1 0 0 0 0 1 0 0 0 0.55 0"/>
<feBlend mode="normal" in2="BackgroundImageFix" result="effect1_dropShadow_938_1421"/>
<feBlend mode="normal" in="SourceGraphic" in2="effect1_dropShadow_938_1421" result="shape"/>
</filter>
</defs>
</svg>
