<svg width="108" height="100" viewBox="0 0 108 100" fill="none" xmlns="http://www.w3.org/2000/svg">
<g filter="url(#filter0_d_938_1410)">
<path d="M28.1504 18.2003C27.9343 18.2723 27.5921 18.578 27.376 18.8477C26.9978 19.3333 26.9797 19.4232 27.0338 25.1958L27.0878 31.0583L28.3665 33.1264C29.4831 34.9427 30.6718 36.8309 34.2377 42.5136L35.1022 43.9163H32.1846H29.249L26.4034 39.6183C23.3418 35.0146 22.7655 34.2953 21.991 34.1514C21.3247 34.0076 19.7938 34.7629 18.7853 35.734C17.8308 36.6331 17.7587 37.2805 18.4791 38.5034C19.0915 39.5644 22.9095 45.301 24.4584 47.477C26.2233 50.0126 25.9712 49.9227 32.3106 50.0306L37.5335 50.1205L35.9126 50.714C35.0301 51.0377 32.995 51.757 31.4102 52.3325C29.213 53.1237 28.4025 53.5014 27.9523 53.933C27.6281 54.2567 25.7911 56.8822 23.846 59.7775C20.6763 64.5251 20.3341 65.1185 20.3341 65.7839C20.3341 66.737 20.8564 67.4024 22.2972 68.2836C23.5219 69.0209 24.3683 69.0928 25.0707 68.5533C25.3228 68.3555 26.9978 65.9997 28.7807 63.3562L32.0405 58.5187L35.6064 57.3318L39.1904 56.1269L41.5857 56.1809L43.981 56.2348L44.6654 59.5617C45.7279 64.6689 46.2862 65.9098 48.4834 67.9599C50.0683 69.4345 51.1489 69.8481 53.6523 69.956C55.2371 70.0099 55.7234 69.974 56.6779 69.6503C58.9651 68.877 60.622 67.3844 61.7747 65.0466C62.351 63.8777 62.6391 62.9066 63.2695 59.9214L64.0439 56.2348L66.4392 56.1809L68.8345 56.1269L72.4185 57.3318L75.9844 58.5187L79.2442 63.3562C81.0271 65.9997 82.7021 68.3555 82.9542 68.5533C83.2063 68.7511 83.6746 68.913 83.9808 68.913C85.0793 68.913 87.1865 67.4923 87.6187 66.4493C87.8529 65.9098 87.8529 65.7659 87.5467 65.0825C87.0604 64.0036 80.793 54.6703 80.0726 53.933C79.5503 53.4294 78.7759 53.0878 75.5161 51.9368C73.337 51.1815 71.2838 50.4442 70.9417 50.3004C70.3834 50.0666 70.8516 50.0486 75.5161 50.0486C81.8376 50.0306 81.7295 50.0666 83.3504 47.7827C84.6471 45.9844 88.8974 39.6183 89.5458 38.5034C90.4463 36.9748 90.032 36.0037 87.9789 34.7629C86.8803 34.1155 85.9618 33.9896 85.2955 34.4392C85.0793 34.583 83.5305 36.777 81.8376 39.3126L78.7759 43.8983L75.8403 43.9163H72.9227L73.7872 42.5316C77.3531 36.8309 78.5418 34.9427 79.6584 33.1264L80.9371 31.0583V25.0699V19.0635L80.3428 18.542C79.7845 18.0565 79.6764 18.0205 78.1276 18.0205C77.083 18.0205 76.3266 18.1104 76.0024 18.2723C75.0839 18.7578 75.0119 19.1355 74.9038 24.4945L74.8138 29.4398L71.0497 35.4642C68.9606 38.7731 66.9615 41.9562 66.6013 42.5136L65.9349 43.5567L65.9529 40.0859C65.971 37.2805 65.9169 36.4173 65.6468 35.4642C64.4221 31.0044 61.0183 27.4617 56.894 26.3647C55.3452 25.9691 52.6797 25.9691 51.1309 26.3647C49.0778 26.9222 47.601 27.8214 45.818 29.6017C44.4853 30.9325 44.035 31.5259 43.4407 32.7667C42.198 35.3024 42.0359 36.1296 42.072 40.032C42.09 43.3049 42.072 43.4308 41.7658 43.0172C41.6037 42.7834 39.6046 39.6363 37.3354 36.0217L33.2111 29.4398L33.1211 24.4945C33.013 19.1714 32.959 18.8477 32.0405 18.3262C31.4822 17.9846 28.8528 17.9126 28.1504 18.2003ZM54.5167 31.8316C55.111 32.4251 57.7585 36.4713 58.659 38.1617C60.0097 40.6793 60.3699 41.9202 60.2799 43.5746C60.1358 46.1103 58.749 48.2862 56.5698 49.3472C53.7963 50.714 50.5546 49.7249 48.8256 47.0094C47.691 45.2291 47.4209 42.9812 48.0872 40.9851C48.7536 38.953 51.9773 33.4861 53.4001 31.9575C53.8864 31.418 54.0845 31.4 54.5167 31.8316Z" fill="white"/>
<path d="M38.6143 60.5128L36.8494 61.0882L35.0484 64.7568C33.6256 67.6161 33.2114 68.6232 33.1574 69.3605C33.0853 70.1697 33.2834 70.943 34.6161 74.9713C36.5072 80.7079 36.7953 81.4452 37.4617 81.7689C38.1641 82.1465 38.5783 82.1106 40.1992 81.5711C41.712 81.0676 42.3063 80.4741 42.3063 79.521C42.2883 79.2692 41.622 77.0034 40.7935 74.4857L39.2987 69.9L40.5414 67.4183L41.784 64.9366L41.2798 62.5269C41.0096 61.1961 40.6855 60.0632 40.5954 60.0272C40.4873 59.9913 39.6049 60.207 38.6143 60.5128Z" fill="white"/>
<path d="M67.4117 60.0633C67.3036 60.1352 67.0155 61.2501 66.7453 62.5629L66.241 64.9187L67.4837 67.4184L68.7264 69.9001L67.2316 74.4858C66.4031 77.0034 65.7368 79.2693 65.7188 79.5211C65.7188 80.4742 66.3131 81.0676 67.8259 81.5712C69.5008 82.1286 69.9511 82.1466 70.6895 81.697C71.2117 81.3733 71.3738 80.9777 73.1028 75.8345C74.7236 70.9791 74.9398 70.1878 74.8677 69.3606C74.8137 68.6233 74.3995 67.6162 72.9767 64.7569L71.1757 61.0883L70.1131 60.7466C67.8979 60.0453 67.5738 59.9554 67.4117 60.0633Z" fill="white"/>
</g>
<defs>
<filter id="filter0_d_938_1410" x="0.796093" y="0.821484" width="106.4" height="98.398" filterUnits="userSpaceOnUse" color-interpolation-filters="sRGB">
<feFlood flood-opacity="0" result="BackgroundImageFix"/>
<feColorMatrix in="SourceAlpha" type="matrix" values="0 0 0 0 0 0 0 0 0 0 0 0 0 0 0 0 0 0 127 0" result="hardAlpha"/>
<feOffset/>
<feGaussianBlur stdDeviation="8.6"/>
<feComposite in2="hardAlpha" operator="out"/>
<feColorMatrix type="matrix" values="0 0 0 0 1 0 0 0 0 1 0 0 0 0 1 0 0 0 0.55 0"/>
<feBlend mode="normal" in2="BackgroundImageFix" result="effect1_dropShadow_938_1410"/>
<feBlend mode="normal" in="SourceGraphic" in2="effect1_dropShadow_938_1410" result="shape"/>
</filter>
</defs>
</svg>
