<svg width="173" height="172" viewBox="0 0 173 172" fill="none" xmlns="http://www.w3.org/2000/svg">
<g filter="url(#filter0_d_836_397)">
<path fill-rule="evenodd" clip-rule="evenodd" d="M86.5269 54C68.5404 54 54 68.6666 54 86.8112C54 101.315 63.3165 113.592 76.241 117.938C77.8569 118.264 78.4488 117.232 78.4488 116.363C78.4488 115.602 78.3955 112.995 78.3955 110.278C69.3473 112.234 67.4631 106.367 67.4631 106.367C66.009 102.564 63.8545 101.587 63.8545 101.587C60.893 99.5771 64.0702 99.5771 64.0702 99.5771C67.3552 99.7945 69.079 102.945 69.079 102.945C71.9865 107.942 76.6717 106.53 78.5566 105.661C78.8256 103.542 79.6878 102.076 80.6033 101.261C73.3867 100.5 65.7939 97.6758 65.7939 85.0725C65.7939 81.4872 67.0856 78.5539 69.1323 76.2726C68.8093 75.4579 67.6782 72.0893 69.4558 67.5806C69.4558 67.5806 72.2022 66.7113 78.3948 70.9486C81.0461 70.2304 83.7803 69.865 86.5269 69.8619C89.2733 69.8619 92.073 70.2426 94.6583 70.9486C100.852 66.7113 103.598 67.5806 103.598 67.5806C105.376 72.0893 104.244 75.4579 103.921 76.2726C106.021 78.5539 107.26 81.4872 107.26 85.0725C107.26 97.6758 99.6671 100.446 92.3966 101.261C93.5817 102.293 94.6044 104.248 94.6044 107.345C94.6044 111.745 94.5511 115.276 94.5511 116.362C94.5511 117.232 95.1436 118.264 96.7589 117.938C109.683 113.592 119 101.315 119 86.8112C119.053 68.6666 104.459 54 86.5269 54Z" fill="white"/>
</g>
<defs>
<filter id="filter0_d_836_397" x="0.5" y="0.5" width="172" height="171" filterUnits="userSpaceOnUse" color-interpolation-filters="sRGB">
<feFlood flood-opacity="0" result="BackgroundImageFix"/>
<feColorMatrix in="SourceAlpha" type="matrix" values="0 0 0 0 0 0 0 0 0 0 0 0 0 0 0 0 0 0 127 0" result="hardAlpha"/>
<feOffset/>
<feGaussianBlur stdDeviation="26.75"/>
<feComposite in2="hardAlpha" operator="out"/>
<feColorMatrix type="matrix" values="0 0 0 0 1 0 0 0 0 1 0 0 0 0 1 0 0 0 0.44 0"/>
<feBlend mode="normal" in2="BackgroundImageFix" result="effect1_dropShadow_836_397"/>
<feBlend mode="normal" in="SourceGraphic" in2="effect1_dropShadow_836_397" result="shape"/>
</filter>
</defs>
</svg>
