<svg width="200" height="115" viewBox="0 0 200 115" fill="none" xmlns="http://www.w3.org/2000/svg">
<g clip-path="url(#clip0_1102_149)">
<g filter="url(#filter0_d_1102_149)">
<path d="M46.2621 30.0523C45.5825 30.2142 45.3667 30.484 44.7949 31.8978C43.5435 34.9844 42.0223 37.3695 39.9078 39.5171C37.6855 41.7943 34.8158 43.6506 31.9137 44.6974C30.6515 45.1615 30.2416 45.4745 30.069 46.1436C29.9179 46.7156 29.9719 46.9314 30.6731 48.5718C31.342 50.1043 31.8922 51.9066 32.1834 53.5255C32.4639 55.0688 32.4639 59.213 32.1834 60.7563C31.8814 62.4291 31.3312 64.2099 30.6407 65.7316C30.1013 66.9403 30.0258 67.2101 30.015 67.7929C30.015 68.4296 30.0366 68.4944 30.3926 68.8289C30.6407 69.0664 31.1154 69.3146 31.7411 69.5412C37.7718 71.7428 42.292 76.2322 44.5899 82.2763C45.097 83.6033 45.4098 84.0458 46.014 84.2404C46.5318 84.4129 47.0388 84.305 48.204 83.7547C50.955 82.4704 53.8462 81.8553 57.1474 81.8553C60.3731 81.8661 63.3075 82.5135 66.188 83.8625C67.31 84.3805 67.8278 84.456 68.4212 84.1649C68.8851 83.9488 69.0253 83.7332 69.5 82.438C71.7223 76.4591 76.48 71.7213 82.3704 69.6168C82.802 69.4657 83.2874 69.2714 83.4599 69.1743C83.7944 69.0016 84.3338 68.0627 84.3338 67.6418C84.3338 67.5123 84.0423 66.7029 83.6759 65.861C82.9529 64.1667 82.4136 62.4075 82.1113 60.7563C81.8203 59.213 81.8203 55.0688 82.1113 53.5255C82.4136 51.8527 82.9637 50.072 83.6436 48.5503C84.1721 47.3739 84.2691 47.0609 84.2799 46.5105C84.2799 45.5716 84.0423 45.2802 82.9637 44.8917C78.3032 43.2405 74.5059 40.2834 71.8195 36.2039C71.0535 35.0383 70.0394 32.9878 69.5971 31.7251C69.2303 30.6891 68.8095 30.1926 68.1946 30.0523C67.666 29.9336 67.4394 29.9876 66.1987 30.5703C60.6428 33.1713 53.8462 33.1821 48.3334 30.5919C47.0928 30.0091 46.7907 29.9228 46.2621 30.0523ZM51.3326 35.1894C55.4213 36.1176 59.564 36.0744 63.5233 35.0707C64.0843 34.9304 64.5482 34.8333 64.559 34.8441C64.5805 34.8657 63.9764 36.3658 63.2212 38.1789L61.8403 41.4921L61.0312 41.8051C58.7549 42.6901 55.7989 42.7008 53.3823 41.8267L52.5732 41.5353L51.2463 38.3516C49.6604 34.5635 49.7251 34.747 49.984 34.8441C50.1027 34.8873 50.7069 35.0491 51.3326 35.1894ZM48.0206 39.4308C48.765 41.2331 49.3799 42.7548 49.3799 42.8088C49.3799 43.0246 48.4737 44.7082 47.999 45.3774C47.3949 46.2299 46.4023 47.2228 45.5393 47.8704C44.8165 48.3992 43.209 49.2626 42.9285 49.2626C42.7667 49.2626 36.3585 46.64 36.2398 46.5213C36.2182 46.489 36.434 46.3487 36.7253 46.2084C37.0058 46.0572 37.6854 45.6471 38.2141 45.3018C41.2995 43.2729 44.0613 40.3805 45.9493 37.2184C46.3161 36.6032 46.6181 36.1068 46.6397 36.1284C46.6505 36.1392 47.2654 37.6285 48.0206 39.4308ZM68.4966 37.4234C69.4245 38.9991 70.6975 40.6072 72.2402 42.1396C73.8368 43.7261 75.3146 44.8917 77.0624 45.9385C77.6776 46.3055 78.1739 46.6076 78.1523 46.6292C78.1415 46.64 76.6416 47.266 74.8076 48.0214L71.4958 49.4029L70.924 49.1438C68.4535 48.0107 66.4577 46.0788 65.3573 43.7585C65.1739 43.37 65.0229 42.9815 65.0229 42.8843C65.0229 42.7872 65.6162 41.3086 66.3282 39.5927C67.051 37.8767 67.666 36.409 67.6983 36.3226C67.7523 36.1823 67.7739 36.1823 67.8494 36.3226C67.9033 36.409 68.1946 36.8946 68.4966 37.4234ZM55.9176 45.8306C57.0396 45.9493 58.7117 45.863 59.7582 45.6363C60.0387 45.5716 60.0063 45.6687 58.5715 49.0899C57.7731 51.0325 57.0719 52.5758 57.0288 52.5326C56.9424 52.4355 54.2346 45.7766 54.2346 45.6471C54.2346 45.604 54.3425 45.5932 54.4827 45.6363C54.6122 45.6687 55.2595 45.7551 55.9176 45.8306ZM52.6272 50.6979C53.3392 52.4139 53.9002 53.8385 53.8786 53.8708C53.8462 53.8925 52.3467 53.2989 50.545 52.5542C48.7542 51.7987 47.1899 51.1512 47.082 51.108C46.9094 51.0433 46.9741 50.957 47.492 50.5684C48.4305 49.8561 49.4662 48.8417 50.2969 47.8164L51.0413 46.8882L51.1923 47.2336C51.2678 47.4279 51.9151 48.9927 52.6272 50.6979ZM64.354 48.3236C65.0336 49.1438 65.8967 49.9533 66.8784 50.6979C67.1697 50.9138 67.3531 51.108 67.2992 51.1404C67.0295 51.3131 60.4487 54.0004 60.4055 53.968C60.3839 53.9356 61.0096 52.3599 61.7972 50.4497L63.2428 46.9854L63.4586 47.2444C63.5773 47.3847 63.9764 47.8811 64.354 48.3236ZM38.2572 51.0972L41.5045 52.4463L41.8174 53.2557C42.702 55.5436 42.7128 58.4899 41.8389 60.9074L41.5476 61.7168L38.2249 63.1091C36.4016 63.8645 34.8913 64.4796 34.8697 64.4581C34.8589 64.4365 34.9992 63.7889 35.1934 63.0227C35.3876 62.2457 35.6249 61.0153 35.722 60.2923C35.9378 58.5871 35.9485 55.6084 35.7328 53.9356C35.5817 52.8024 35.0747 50.4173 34.8589 49.8669C34.805 49.7374 34.8266 49.6834 34.9021 49.7051C34.9668 49.7266 36.4772 50.3526 38.2572 51.0972ZM79.425 49.8777C79.1987 50.4713 78.7132 52.7916 78.5511 54.0219C78.411 55.1227 78.3894 55.9754 78.4325 57.7237C78.4864 60.1519 78.6916 61.6629 79.1986 63.476C79.3495 63.994 79.4465 64.4365 79.425 64.4581C79.4142 64.4796 77.9148 63.8969 76.0915 63.163L72.8012 61.8355L72.5746 61.3175C71.5605 58.9864 71.5498 55.5652 72.5422 53.0938L72.8012 52.4463L76.0592 51.0865C77.8501 50.331 79.3603 49.7158 79.4142 49.7051C79.4573 49.6942 79.4681 49.7806 79.425 49.8777ZM49.2936 55.7163C51.1168 56.4718 52.6164 57.1085 52.6164 57.1409C52.6164 57.2165 45.7011 60.0872 45.6472 60.0332C45.6256 60.0009 45.6472 59.7203 45.7119 59.4073C45.9816 58.0043 45.9384 55.6839 45.6364 54.4536C45.5609 54.1299 45.1401 53.9896 49.2936 55.7163ZM68.6585 54.4644C68.3456 55.7163 68.3025 58.436 68.5722 59.5692C68.6369 59.8066 68.6585 60.0116 68.6369 60.0332C68.5938 60.0872 61.6785 57.2165 61.6785 57.1409C61.6785 57.087 68.4643 54.2378 68.6261 54.227C68.6693 54.227 68.6909 54.3349 68.6585 54.4644ZM53.911 60.4434C53.911 60.4865 52.0338 65.0516 51.1815 67.0482L51.0413 67.3936L50.3293 66.4978C49.5417 65.5157 48.4413 64.4365 47.492 63.7134C47.1468 63.4544 46.931 63.2277 46.9957 63.2062C47.0604 63.1846 48.6139 62.537 50.4371 61.7708C53.7491 60.3894 53.911 60.3246 53.911 60.4434ZM63.5988 61.6629C65.3033 62.3752 66.8569 63.0227 67.051 63.1091L67.3963 63.2493L66.5008 63.9616C65.5191 64.7387 64.4403 65.8503 63.7175 66.8L63.2644 67.4044L63.1133 67.0482C62.2611 65.0409 60.3839 60.4865 60.3839 60.4434C60.3839 60.411 60.4163 60.3786 60.4487 60.3786C60.481 60.3786 61.905 60.9614 63.5988 61.6629ZM58.6362 65.138C59.4237 67.0482 60.0603 68.6239 60.0279 68.6455C60.0063 68.667 59.7042 68.6347 59.3483 68.5591C58.5391 68.3972 55.7773 68.3972 54.9466 68.5591C54.5906 68.6347 54.2993 68.6779 54.2886 68.6563C54.2562 68.6131 57.0935 61.6737 57.1474 61.6737C57.1798 61.6737 57.8487 63.2385 58.6362 65.138ZM43.975 65.4078C45.8306 66.3575 47.5351 67.9872 48.5708 69.8218C49.4554 71.3867 49.5094 71.009 47.9235 74.7969C46.9849 77.0202 46.4995 78.0561 46.4455 77.9591C44.8596 75.2502 43.9211 73.9984 42.0547 72.1314C40.4688 70.5557 39.0124 69.4117 37.2216 68.3433C36.6066 67.9763 36.1319 67.6526 36.1859 67.6418C36.229 67.6202 37.707 67.005 39.4547 66.2712C41.2024 65.5265 42.7236 64.9221 42.8207 64.9221C42.9178 64.9114 43.4356 65.138 43.975 65.4078ZM74.8292 66.3899C77.0301 67.3072 78.0549 67.7929 77.9579 67.8469C75.2392 69.4441 73.9663 70.4046 72.1431 72.2393C70.5572 73.8257 69.4029 75.3041 68.3564 77.0633C67.9788 77.6788 67.6768 78.1752 67.6552 78.1536C67.6444 78.1428 67.0187 76.6532 66.2635 74.84C64.6992 71.0737 64.7531 71.4515 65.6162 69.9298C66.6519 68.0951 68.3564 66.4654 70.212 65.5157C70.7514 65.2459 71.2693 65.0193 71.3664 65.0193C71.4634 65.0193 73.0277 65.6344 74.8292 66.3899ZM60.0171 72.1422C60.4702 72.2609 61.0744 72.4659 61.3441 72.5846L61.8403 72.8005L63.2212 76.1028C63.9764 77.916 64.5805 79.416 64.559 79.4375C64.5482 79.4483 64.0951 79.3513 63.5664 79.2111C59.5964 78.186 55.0545 78.1644 51.0629 79.1572C50.4048 79.3189 49.8546 79.4375 49.833 79.4268C49.8114 79.4052 50.4264 77.9052 51.1815 76.0813L52.5624 72.7681L53.1018 72.5523C55.1732 71.7321 57.935 71.5702 60.0171 72.1422Z" fill="white"/>
</g>
<g filter="url(#filter1_d_1102_149)">
<path d="M105.781 48.3042C105.781 47.8848 105.915 47.5416 106.182 47.2747C106.468 46.9887 106.82 46.8457 107.24 46.8457H108.612C109.032 46.8457 109.375 46.9887 109.642 47.2747C109.928 47.5416 110.071 47.8848 110.071 48.3042V62.5454C110.071 62.9648 109.937 63.3175 109.67 63.6034C109.403 63.8703 109.06 64.0038 108.641 64.0038C108.221 64.0038 107.878 64.0705 107.611 64.204C107.345 64.3374 107.211 64.4995 107.211 64.6901V65.405C107.211 65.8244 107.068 66.1771 106.782 66.4631C106.515 66.73 106.172 66.8635 105.753 66.8635H104.38C103.961 66.8635 103.608 66.73 103.322 66.4631C103.055 66.1962 102.922 65.853 102.922 65.4336C102.922 65.0142 102.855 64.671 102.721 64.4041C102.588 64.1372 102.426 64.0038 102.235 64.0038H101.52C101.101 64.0038 100.748 63.8703 100.462 63.6034C100.195 63.3175 100.062 62.9648 100.062 62.5454V59.7429C100.062 59.3235 99.9953 58.9803 99.8618 58.7134C99.7284 58.4274 99.5568 58.2844 99.3471 58.2844C99.1374 58.2844 98.9658 58.4274 98.8323 58.7134C98.6989 58.9803 98.6321 59.3235 98.6321 59.7429V62.5454C98.6321 62.9648 98.4987 63.3175 98.2318 63.6034C97.9649 63.8703 97.6217 64.0038 97.2023 64.0038C96.7829 64.0038 96.4397 64.0705 96.1728 64.204C95.9059 64.3374 95.7725 64.4995 95.7725 64.6901V65.405C95.7725 65.8244 95.6295 66.1771 95.3435 66.4631C95.0766 66.73 94.7335 66.8635 94.314 66.8635H92.9414C92.522 66.8635 92.1693 66.73 91.8833 66.4631C91.6164 66.1962 91.483 65.853 91.483 65.4336C91.483 65.0142 91.4162 64.671 91.2828 64.4041C91.1493 64.1372 90.9873 64.0038 90.7966 64.0038H90.0817C89.6623 64.0038 89.3096 63.8703 89.0236 63.6034C88.7567 63.3175 88.6233 62.9648 88.6233 62.5454V48.3042C88.6233 47.8848 88.7567 47.5416 89.0236 47.2747C89.3096 46.9887 89.6623 46.8457 90.0817 46.8457H91.4544C91.8738 46.8457 92.217 46.9887 92.4839 47.2747C92.7698 47.5416 92.9128 47.8848 92.9128 48.3042V62.5454C92.9128 62.9648 92.9795 63.3175 93.113 63.6034C93.2464 63.8703 93.418 64.0038 93.6277 64.0038C93.8374 64.0038 94.009 63.8703 94.1425 63.6034C94.2759 63.3175 94.3426 62.9648 94.3426 62.5454V59.7429C94.3426 59.3235 94.4761 58.9803 94.743 58.7134C95.0099 58.4274 95.3531 58.2844 95.7725 58.2844C96.1919 58.2844 96.5351 58.151 96.802 57.8841C97.0689 57.5981 97.2023 57.2454 97.2023 56.826V54.0235C97.2023 53.6041 97.3358 53.2609 97.6027 52.994C97.8886 52.7081 98.2413 52.5651 98.6607 52.5651H100.033C100.453 52.5651 100.796 52.7081 101.063 52.994C101.349 53.2609 101.492 53.6041 101.492 54.0235V56.826C101.492 57.2454 101.558 57.5981 101.692 57.8841C101.825 58.151 101.997 58.2844 102.207 58.2844H102.893C103.312 58.2844 103.656 58.4274 103.922 58.7134C104.208 58.9803 104.351 59.3235 104.351 59.7429V62.5454C104.351 62.9648 104.418 63.3175 104.552 63.6034C104.685 63.8703 104.857 64.0038 105.066 64.0038C105.276 64.0038 105.448 63.8703 105.581 63.6034C105.715 63.3175 105.781 62.9648 105.781 62.5454V48.3042ZM112.919 62.5454V56.8832C112.919 56.4638 113.053 56.1206 113.32 55.8537C113.586 55.5678 113.93 55.4248 114.349 55.4248C114.768 55.4248 115.112 55.358 115.379 55.2246C115.645 55.0911 115.779 54.9196 115.779 54.7098V54.0235C115.779 53.6041 115.912 53.2609 116.179 52.994C116.465 52.7081 116.818 52.5651 117.237 52.5651H121.47C121.889 52.5651 122.232 52.7081 122.499 52.994C122.785 53.2609 122.928 53.6041 122.928 54.0235V54.7098C122.928 54.9005 122.995 55.0721 123.128 55.2246C123.281 55.358 123.452 55.4248 123.643 55.4248H124.329C124.749 55.4248 125.092 55.5678 125.359 55.8537C125.645 56.1206 125.788 56.4638 125.788 56.8832V59.6857C125.788 60.1051 125.645 60.4578 125.359 60.7438C125.092 61.0107 124.749 61.1441 124.329 61.1441H118.667C118.248 61.1441 117.895 61.2776 117.609 61.5445C117.342 61.8114 117.209 62.1545 117.209 62.5739C117.209 62.9934 117.342 63.3365 117.609 63.6034C117.895 63.8703 118.248 64.0038 118.667 64.0038H121.47C121.889 64.0038 122.232 64.1372 122.499 64.4041C122.785 64.671 122.928 65.0142 122.928 65.4336C122.928 65.853 122.785 66.1962 122.499 66.4631C122.232 66.73 121.889 66.8635 121.47 66.8635H117.237C116.818 66.8635 116.465 66.73 116.179 66.4631C115.912 66.1962 115.779 65.853 115.779 65.4336C115.779 65.0142 115.712 64.671 115.579 64.4041C115.445 64.1372 115.283 64.0038 115.093 64.0038H114.378C113.958 64.0038 113.606 63.8703 113.32 63.6034C113.053 63.3175 112.919 62.9648 112.919 62.5454ZM117.638 57.8841C117.905 58.151 118.248 58.2844 118.667 58.2844H120.04C120.459 58.2844 120.802 58.151 121.069 57.8841C121.355 57.6172 121.498 57.274 121.498 56.8546C121.498 56.4352 121.355 56.092 121.069 55.8251C120.802 55.5582 120.459 55.4248 120.04 55.4248H118.667C118.248 55.4248 117.895 55.5582 117.609 55.8251C117.342 56.092 117.209 56.4352 117.209 56.8546C117.209 57.274 117.352 57.6172 117.638 57.8841ZM138.651 54.7098C138.651 54.9005 138.717 55.0721 138.851 55.2246C139.003 55.358 139.175 55.4248 139.366 55.4248H140.052C140.471 55.4248 140.815 55.5678 141.081 55.8537C141.367 56.1206 141.51 56.4638 141.51 56.8832V62.5454C141.51 62.9648 141.377 63.3175 141.11 63.6034C140.843 63.8703 140.5 64.0038 140.081 64.0038C139.661 64.0038 139.318 64.0705 139.051 64.204C138.784 64.3374 138.651 64.4995 138.651 64.6901V65.405C138.651 65.8244 138.508 66.1771 138.222 66.4631C137.955 66.73 137.612 66.8635 137.192 66.8635H130.1C129.681 66.8635 129.328 66.73 129.042 66.4631C128.775 66.1771 128.642 65.8244 128.642 65.405V48.3042C128.642 47.8848 128.775 47.5416 129.042 47.2747C129.328 46.9887 129.681 46.8457 130.1 46.8457H131.473C131.892 46.8457 132.236 46.9887 132.502 47.2747C132.788 47.5416 132.931 47.8848 132.931 48.3042V51.1067C132.931 51.5261 133.065 51.8788 133.332 52.1647C133.618 52.4316 133.97 52.5651 134.39 52.5651H137.192C137.612 52.5651 137.955 52.7081 138.222 52.994C138.508 53.2609 138.651 53.6041 138.651 54.0235V54.7098ZM137.221 56.8832C137.221 56.4638 137.078 56.1206 136.792 55.8537C136.525 55.5678 136.182 55.4248 135.762 55.4248H134.39C133.97 55.4248 133.618 55.5678 133.332 55.8537C133.065 56.1206 132.931 56.4638 132.931 56.8832V62.5454C132.931 62.9648 133.065 63.3175 133.332 63.6034C133.618 63.8703 133.97 64.0038 134.39 64.0038H135.762C136.182 64.0038 136.525 63.8703 136.792 63.6034C137.078 63.3175 137.221 62.9648 137.221 62.5454V56.8832ZM165.812 48.2756C165.812 47.8562 165.945 47.513 166.212 47.2461C166.498 46.9792 166.851 46.8457 167.27 46.8457H168.643C169.063 46.8457 169.406 46.9792 169.673 47.2461C169.959 47.513 170.102 47.8562 170.102 48.2756C170.102 48.695 169.959 49.0382 169.673 49.3051C169.406 49.572 169.063 49.7054 168.643 49.7054H167.27C166.851 49.7054 166.498 49.572 166.212 49.3051C165.945 49.0382 165.812 48.695 165.812 48.2756ZM165.812 54.0235C165.812 53.6041 165.945 53.2609 166.212 52.994C166.498 52.7081 166.851 52.5651 167.27 52.5651H168.643C169.063 52.5651 169.406 52.7081 169.673 52.994C169.959 53.2609 170.102 53.6041 170.102 54.0235V65.405C170.102 65.8244 169.959 66.1771 169.673 66.4631C169.406 66.73 169.063 66.8635 168.643 66.8635H167.27C166.851 66.8635 166.498 66.73 166.212 66.4631C165.945 66.1771 165.812 65.8244 165.812 65.405V54.0235Z" fill="white"/>
</g>
<g filter="url(#filter2_d_1102_149)">
<path d="M162.402 66.0182C162.402 66.4045 162.27 66.7299 162.006 66.9943C161.741 67.2586 161.416 67.3908 161.03 67.3908C160.643 67.3908 160.318 67.2586 160.053 66.9943C159.789 66.7299 159.657 66.4045 159.657 66.0182V59.1549H151.421V66.0182C151.421 66.4045 151.289 66.7299 151.025 66.9943C150.76 67.2586 150.435 67.3908 150.048 67.3908C149.662 67.3908 149.337 67.2586 149.072 66.9943C148.808 66.7299 148.676 66.4045 148.676 66.0182V52.2917C148.676 51.9054 148.808 51.58 149.072 51.3156C149.337 51.0513 149.662 50.9191 150.048 50.9191H151.421V49.5464C151.421 49.1601 151.553 48.8347 151.818 48.5703C152.082 48.306 152.407 48.1738 152.794 48.1738H158.284C158.671 48.1738 158.996 48.306 159.26 48.5703C159.525 48.8347 159.657 49.1601 159.657 49.5464V50.9191H161.03C161.416 50.9191 161.741 51.0513 162.006 51.3156C162.27 51.58 162.402 51.9054 162.402 52.2917V66.0182ZM159.657 56.4097V50.9191H151.421V56.4097H159.657Z" fill="white"/>
<mask id="mask0_1102_149" style="mask-type:luminance" maskUnits="userSpaceOnUse" x="147" y="47" width="17" height="22">
<path d="M163.676 47.3906H147.676V68.3906H163.676V47.3906Z" fill="white"/>
<path d="M162.402 66.0182C162.402 66.4045 162.27 66.7299 162.006 66.9943C161.741 67.2586 161.416 67.3908 161.03 67.3908C160.643 67.3908 160.318 67.2586 160.053 66.9943C159.789 66.7299 159.657 66.4045 159.657 66.0182V59.1549H151.421V66.0182C151.421 66.4045 151.289 66.7299 151.025 66.9943C150.76 67.2586 150.435 67.3908 150.048 67.3908C149.662 67.3908 149.337 67.2586 149.072 66.9943C148.808 66.7299 148.676 66.4045 148.676 66.0182V52.2917C148.676 51.9054 148.808 51.58 149.072 51.3156C149.337 51.0513 149.662 50.9191 150.048 50.9191H151.421V49.5464C151.421 49.1601 151.553 48.8347 151.818 48.5703C152.082 48.306 152.407 48.1738 152.794 48.1738H158.284C158.671 48.1738 158.996 48.306 159.26 48.5703C159.525 48.8347 159.657 49.1601 159.657 49.5464V50.9191H161.03C161.416 50.9191 161.741 51.0513 162.006 51.3156C162.27 51.58 162.402 51.9054 162.402 52.2917V66.0182ZM159.657 56.4097V50.9191H151.421V56.4097H159.657Z" fill="black"/>
</mask>
<g mask="url(#mask0_1102_149)">
<path d="M159.657 59.155H160.134V58.6784H159.657V59.155ZM151.421 59.155V58.6784H150.944V59.155H151.421ZM151.421 50.9192V51.3958H151.898V50.9192H151.421ZM159.657 50.9192H159.18V51.3958H159.657V50.9192ZM159.657 56.4098V56.8864H160.134V56.4098H159.657ZM159.657 50.9192H160.134V50.4426H159.657V50.9192ZM151.421 50.9192V50.4426H150.944V50.9192H151.421ZM151.421 56.4098H150.944V56.8864H151.421V56.4098ZM161.926 66.0183C161.926 66.283 161.84 66.4857 161.669 66.6573L162.343 67.3314C162.7 66.9743 162.879 66.5263 162.879 66.0183H161.926ZM161.669 66.6573C161.497 66.829 161.294 66.9143 161.03 66.9143V67.8675C161.538 67.8675 161.986 67.6884 162.343 67.3314L161.669 66.6573ZM161.03 66.9143C160.765 66.9143 160.562 66.829 160.39 66.6573L159.716 67.3314C160.073 67.6884 160.522 67.8675 161.03 67.8675V66.9143ZM160.39 66.6573C160.219 66.4857 160.134 66.283 160.134 66.0183H159.18C159.18 66.5263 159.359 66.9743 159.716 67.3314L160.39 66.6573ZM160.134 66.0183V59.155H159.18V66.0183H160.134ZM159.657 58.6784H151.421V59.6317H159.657V58.6784ZM150.944 59.155V66.0183H151.898V59.155H150.944ZM150.944 66.0183C150.944 66.283 150.859 66.4857 150.688 66.6573L151.362 67.3314C151.719 66.9743 151.898 66.5263 151.898 66.0183H150.944ZM150.688 66.6573C150.516 66.829 150.313 66.9143 150.048 66.9143V67.8675C150.556 67.8675 151.005 67.6884 151.362 67.3314L150.688 66.6573ZM150.048 66.9143C149.784 66.9143 149.581 66.829 149.409 66.6573L148.735 67.3314C149.092 67.6884 149.54 67.8675 150.048 67.8675V66.9143ZM149.409 66.6573C149.238 66.4857 149.152 66.283 149.152 66.0183H148.199C148.199 66.5263 148.378 66.9743 148.735 67.3314L149.409 66.6573ZM149.152 66.0183V52.2918H148.199V66.0183H149.152ZM149.152 52.2918C149.152 52.0271 149.238 51.8244 149.409 51.6527L148.735 50.9787C148.378 51.3357 148.199 51.7838 148.199 52.2918H149.152ZM149.409 51.6527C149.581 51.4811 149.784 51.3958 150.048 51.3958V50.4426C149.54 50.4426 149.092 50.6217 148.735 50.9787L149.409 51.6527ZM150.048 51.3958H151.421V50.4426H150.048V51.3958ZM151.898 50.9192V49.5465H150.944V50.9192H151.898ZM151.898 49.5465C151.898 49.2818 151.983 49.0791 152.155 48.9075L151.481 48.2334C151.124 48.5905 150.944 49.0385 150.944 49.5465H151.898ZM152.155 48.9075C152.326 48.7358 152.529 48.6505 152.794 48.6505V47.6973C152.286 47.6973 151.838 47.8764 151.481 48.2334L152.155 48.9075ZM152.794 48.6505H158.284V47.6973H152.794V48.6505ZM158.284 48.6505C158.549 48.6505 158.752 48.7358 158.923 48.9075L159.597 48.2334C159.24 47.8764 158.792 47.6973 158.284 47.6973V48.6505ZM158.923 48.9075C159.095 49.0791 159.18 49.2818 159.18 49.5465H160.134C160.134 49.0385 159.954 48.5905 159.597 48.2334L158.923 48.9075ZM159.18 49.5465V50.9192H160.134V49.5465H159.18ZM159.657 51.3958H161.03V50.4426H159.657V51.3958ZM161.03 51.3958C161.294 51.3958 161.497 51.4811 161.669 51.6527L162.343 50.9787C161.986 50.6217 161.538 50.4426 161.03 50.4426V51.3958ZM161.669 51.6527C161.84 51.8244 161.926 52.0271 161.926 52.2918H162.879C162.879 51.7838 162.7 51.3357 162.343 50.9787L161.669 51.6527ZM161.926 52.2918V66.0183H162.879V52.2918H161.926ZM160.134 56.4098V50.9192H159.18V56.4098H160.134ZM159.657 50.4426H151.421V51.3958H159.657V50.4426ZM150.944 50.9192V56.4098H151.898V50.9192H150.944ZM151.421 56.8864H159.657V55.9331H151.421V56.8864Z" fill="white"/>
</g>
</g>
</g>
<defs>
<filter id="filter0_d_1102_149" x="0.164" y="0.164" width="114.006" height="114.006" filterUnits="userSpaceOnUse" color-interpolation-filters="sRGB">
<feFlood flood-opacity="0" result="BackgroundImageFix"/>
<feColorMatrix in="SourceAlpha" type="matrix" values="0 0 0 0 0 0 0 0 0 0 0 0 0 0 0 0 0 0 127 0" result="hardAlpha"/>
<feOffset/>
<feGaussianBlur stdDeviation="14.918"/>
<feComposite in2="hardAlpha" operator="out"/>
<feColorMatrix type="matrix" values="0 0 0 0 1 0 0 0 0 1 0 0 0 0 1 0 0 0 0.7 0"/>
<feBlend mode="normal" in2="BackgroundImageFix" result="effect1_dropShadow_1102_149"/>
<feBlend mode="normal" in="SourceGraphic" in2="effect1_dropShadow_1102_149" result="shape"/>
</filter>
<filter id="filter1_d_1102_149" x="58.7873" y="17.0097" width="141.151" height="79.6896" filterUnits="userSpaceOnUse" color-interpolation-filters="sRGB">
<feFlood flood-opacity="0" result="BackgroundImageFix"/>
<feColorMatrix in="SourceAlpha" type="matrix" values="0 0 0 0 0 0 0 0 0 0 0 0 0 0 0 0 0 0 127 0" result="hardAlpha"/>
<feOffset/>
<feGaussianBlur stdDeviation="14.918"/>
<feComposite in2="hardAlpha" operator="out"/>
<feColorMatrix type="matrix" values="0 0 0 0 1 0 0 0 0 1 0 0 0 0 1 0 0 0 0.7 0"/>
<feBlend mode="normal" in2="BackgroundImageFix" result="effect1_dropShadow_1102_149"/>
<feBlend mode="normal" in="SourceGraphic" in2="effect1_dropShadow_1102_149" result="shape"/>
</filter>
<filter id="filter2_d_1102_149" x="118.363" y="17.8613" width="74.3519" height="79.8419" filterUnits="userSpaceOnUse" color-interpolation-filters="sRGB">
<feFlood flood-opacity="0" result="BackgroundImageFix"/>
<feColorMatrix in="SourceAlpha" type="matrix" values="0 0 0 0 0 0 0 0 0 0 0 0 0 0 0 0 0 0 127 0" result="hardAlpha"/>
<feOffset/>
<feGaussianBlur stdDeviation="14.918"/>
<feComposite in2="hardAlpha" operator="out"/>
<feColorMatrix type="matrix" values="0 0 0 0 1 0 0 0 0 1 0 0 0 0 1 0 0 0 0.7 0"/>
<feBlend mode="normal" in2="BackgroundImageFix" result="effect1_dropShadow_1102_149"/>
<feBlend mode="normal" in="SourceGraphic" in2="effect1_dropShadow_1102_149" result="shape"/>
</filter>
<clipPath id="clip0_1102_149">
<rect width="200" height="115" fill="white"/>
</clipPath>
</defs>
</svg>
