<svg width="129" height="129" viewBox="0 0 129 129" fill="none" xmlns="http://www.w3.org/2000/svg">
<path d="M73.0522 12.7859C72.7794 12.6494 72.1658 12.6148 71.7057 12.6656C70.8878 12.7672 70.7856 12.8353 65.3703 18.3528L59.87 23.9556L59.1226 27.1249C58.4601 29.9023 57.7977 32.8161 55.7935 41.5744L55.2839 43.7213L52.5208 40.9583L49.7407 38.1782L51.1159 31.4134C52.5759 24.1544 52.7113 22.9274 52.1141 22.0578C51.6193 21.2905 49.4543 20.556 47.5796 20.5204C45.8242 20.4679 45.1429 21.0128 44.6671 22.853C44.2423 24.4376 42.4258 33.4858 41.8321 37.0131C41.1024 41.0857 40.9488 40.7618 46.8503 46.8676L51.7113 51.899L49.6143 50.9259C48.4721 50.3967 45.8636 49.1506 43.8177 48.1946C40.9876 46.8631 39.8625 46.4532 39.0274 46.4355C38.4139 46.435 34.1879 47.1816 29.6041 48.0813C22.1066 49.5752 21.2206 49.8131 20.5905 50.4431C19.6879 51.3457 19.5525 52.4704 20.0825 54.6693C20.5441 56.5273 21.2776 57.397 22.4537 57.5513C22.8798 57.6028 26.6968 56.9582 30.8886 56.1434L38.5566 54.6496L43.0576 56.9027L47.5927 59.1559L49.81 61.4754L52.0274 63.7949L49.5251 67.5935C45.695 73.4361 45.0488 75.1398 45.1882 79.162C45.2927 82.0593 45.9244 83.4743 48.193 85.9473C49.6428 87.4993 50.1374 87.9257 51.3479 88.5231C54.2462 89.957 57.2288 90.1127 60.5342 88.9905C62.1869 88.4293 63.3794 87.7827 66.8032 85.5528L71.0276 82.7952L73.3471 85.0125L75.6666 87.2298L77.9198 91.7649L80.1729 96.2659L78.6791 103.934C77.8644 108.126 77.2197 111.943 77.2712 112.369C77.3226 112.795 77.6128 113.392 77.9028 113.682C78.9432 114.722 82.284 115.372 83.6811 114.794C84.4137 114.505 84.5499 114.369 84.9071 113.431C85.4683 111.949 88.3711 97.1755 88.387 95.7951C88.3692 94.8237 87.9594 93.7667 85.9622 89.5897C84.6136 86.8107 83.3675 84.1682 83.1796 83.7079C82.8723 82.9578 83.3328 83.3842 87.7502 87.8017C93.7539 93.7712 93.6175 93.703 97.3152 93.0753C100.246 92.6004 110.3 90.5972 111.97 90.1554C114.27 89.5607 114.797 88.2488 114.028 85.1294C113.6 83.476 112.85 82.4869 111.793 82.2816C111.452 82.2131 107.908 82.8239 103.903 83.6218L96.6613 85.0648L93.8642 82.3017L91.1012 79.5386L93.2311 79.0461C102.006 77.0248 104.92 76.3625 107.698 75.7L110.867 74.9526L116.538 69.2818L122.225 63.594L122.156 62.5373C122.088 61.5488 122.019 61.4124 120.552 59.9456C119.563 58.9564 118.762 58.3252 118.301 58.1714C116.972 57.7614 116.546 58.0508 111.369 63.0232L106.601 67.6209L97.3311 69.7611C92.2193 70.916 87.3119 72.037 86.4428 72.2237L84.8241 72.5804L88.1278 69.3108C90.8014 66.6713 91.5676 65.8027 92.2144 64.6443C95.2778 59.2613 95.409 52.6829 92.542 47.7384C91.4499 45.8969 88.9256 43.3726 87.0842 42.2805C84.6119 40.864 82.3618 40.3169 78.9874 40.3143C76.4651 40.3123 75.4767 40.4479 73.7389 41.0601C70.1609 42.2843 69.2241 42.9142 65.5628 46.6436C62.4805 49.76 62.3443 49.8622 62.446 49.1805C62.5139 48.8057 63.6008 43.9323 64.8747 38.3604L67.2016 28.2219L71.7994 23.4536C76.7377 18.3106 76.993 17.9529 76.617 16.5892C76.4119 15.7369 73.9898 13.1786 73.0522 12.7859ZM89.5144 55.4051C89.5829 55.746 87.5578 59.545 87.0299 60.0729C86.7404 60.3624 86.5529 60.3111 85.9901 59.8505L85.3079 59.2705L81.049 61.4827C75.7339 64.2054 76.0065 64.1034 75.5971 63.694C75.3925 63.4893 74.505 61.9207 73.6175 60.1817C72.7128 58.4256 71.8596 56.9593 71.7232 56.9251C71.5868 56.8909 70.1558 57.5715 68.5204 58.4223C66.8849 59.2732 65.3858 59.9878 65.1472 59.9876C64.8063 59.9874 64.6186 59.7316 64.1407 58.7427C63.5945 57.6516 63.5772 57.43 63.969 57.1065C64.2074 56.9022 66.3538 55.7109 68.7218 54.5027C72.2993 52.6649 73.1001 52.3417 73.3559 52.5976C73.5435 52.7852 74.448 54.4049 75.3697 56.2122C76.3597 58.0876 77.1958 59.4687 77.3663 59.4688C77.5196 59.4519 79.0359 58.7203 80.7735 57.8354L83.8569 56.2188L83.737 55.4177C83.6685 54.9745 83.6852 54.5485 83.7704 54.4633C83.9066 54.3271 89.2072 54.8255 89.3778 54.996C89.4289 55.0472 89.4802 55.2347 89.5144 55.4051Z" fill="white"/>
<path d="M42.892 62.7653L40.6755 61.6388L35.496 63.4072C31.4409 64.7674 30.095 65.3287 29.3456 65.9758C28.5111 66.6739 27.9664 67.5937 25.414 72.6704C21.7725 79.8936 21.3472 80.8647 21.6718 81.8023C21.9793 82.8251 22.4057 83.1833 24.4516 84.2075C26.3611 85.1634 27.4859 85.1642 28.3885 84.2617C28.6098 84.0062 30.1244 81.2295 31.724 78.0608L34.6508 72.3027L38.1777 71.1295L41.7046 69.9563L43.5089 67.1968C44.5133 65.6808 45.2791 64.301 45.2279 64.1817C45.1596 64.0453 44.1195 63.4139 42.892 62.7653Z" fill="white"/>
<path d="M70.59 89.6121C70.4195 89.5779 69.0908 90.3608 67.5919 91.3481L64.8835 93.1014L63.6932 96.6453L62.5201 100.172L56.762 103.099C53.5933 104.699 50.8165 106.213 50.5611 106.435C49.6585 107.337 49.6594 108.462 50.6153 110.371C51.6735 112.486 52.0829 112.929 53.2079 113.202C54.0091 113.391 54.5372 113.169 61.045 109.936C67.1779 106.874 68.1319 106.329 68.847 105.477C69.494 104.728 70.0554 103.382 71.4156 99.327L73.184 94.1475L72.5013 92.8176C71.0675 90.0556 70.8457 89.6634 70.59 89.6121Z" fill="white"/>
</svg>
