<svg width="129" height="129" viewBox="0 0 129 129" fill="none" xmlns="http://www.w3.org/2000/svg">
<path d="M12.7869 58.7405C12.6503 59.0133 12.6157 59.6269 12.6665 60.087C12.7681 60.9049 12.8362 61.0071 18.3538 66.4224L23.9565 71.9227L27.1258 72.6701C29.9033 73.3326 32.817 73.995 41.5753 75.9992L43.7223 76.5088L40.9593 79.2719L38.1791 82.052L31.4143 80.6768C24.1553 79.2168 22.9284 79.0814 22.0587 79.6786C21.2914 80.1734 20.5569 82.3384 20.5214 84.2131C20.4689 85.9685 21.0137 86.6498 22.8539 87.1256C24.4386 87.5504 33.4867 89.3669 37.0141 89.9606C41.0867 90.6903 40.7628 90.8439 46.8686 84.9424L51.8999 80.0814L50.9269 82.1784C50.3977 83.3207 49.1515 85.9291 48.1956 87.975C46.864 90.8051 46.4541 91.9302 46.4364 92.7653C46.436 93.3788 47.1825 97.6048 48.0822 102.189C49.5761 109.686 49.814 110.572 50.4441 111.202C51.3467 112.105 52.4714 112.24 54.6703 111.71C56.5283 111.249 57.398 110.515 57.5523 109.339C57.6038 108.913 56.9591 105.096 56.1444 100.904L54.6506 93.2361L56.9037 88.7351L59.1569 84.2L61.4764 81.9827L63.7959 79.7654L67.5944 82.2677C73.4371 86.0977 75.1408 86.744 79.163 86.6045C82.0603 86.5 83.4753 85.8683 85.9482 83.5997C87.5002 82.1499 87.9267 81.6553 88.5241 80.4448C89.958 77.5465 90.1137 74.5639 88.9914 71.2585C88.4303 69.6058 87.7836 68.4134 85.5537 64.9895L82.7961 60.7651L85.0135 58.4456L87.2308 56.1261L91.7659 53.873L96.2669 51.6198L103.935 53.1136C108.127 53.9284 111.944 54.573 112.37 54.5216C112.796 54.4701 113.393 54.1799 113.683 53.89C114.723 52.8495 115.373 49.5087 114.795 48.1117C114.506 47.3791 114.369 47.2428 113.432 46.8857C111.95 46.3244 97.1765 43.4216 95.7961 43.4057C94.8246 43.4235 93.7677 43.8333 89.5907 45.8306C86.8117 47.1791 84.1691 48.4253 83.7088 48.6131C82.9587 48.9204 83.3852 48.4599 87.8026 44.0425C93.7722 38.0388 93.7039 38.1752 93.0762 34.4775C92.6013 31.5465 90.5981 21.493 90.1563 19.8232C89.5616 17.5229 88.2498 16.9956 85.1304 17.7649C83.4769 18.1923 82.4879 18.9429 82.2825 19.9997C82.2141 20.3406 82.8249 23.885 83.6227 27.8894L85.0657 35.1314L82.3026 37.9285L79.5396 40.6915L79.047 38.5616C77.0258 29.7863 76.3634 26.8725 75.7009 24.0951L74.9535 20.9257L69.2828 15.255L63.595 9.56721L62.5383 9.6362C61.5498 9.70514 61.4134 9.77342 59.9466 11.2402C58.9573 12.2295 58.3261 13.031 58.1724 13.4912C57.7623 14.8209 58.0517 15.2467 63.0241 20.4238L67.6219 25.1921L69.762 34.4616C70.9169 39.5734 72.0379 44.4808 72.2247 45.3499L72.5813 46.9686L69.3117 43.6649C66.6722 40.9913 65.8037 40.2251 64.6453 39.5783C59.2622 36.5149 52.6839 36.3837 47.7393 39.2507C45.8978 40.3428 43.3736 42.8671 42.2814 44.7085C40.865 47.1808 40.3178 49.4309 40.3152 52.8053C40.3133 55.3276 40.4488 56.3159 41.061 58.0538C42.2853 61.6318 42.9151 62.5686 46.6446 66.2299C49.761 69.3122 49.8631 69.4484 49.1815 69.3467C48.8066 69.2788 43.9333 68.1919 38.3614 66.918L28.2229 64.5911L23.4545 59.9933C18.3115 55.055 17.9538 54.7996 16.5901 55.1756C15.7378 55.3808 13.1796 57.8029 12.7869 58.7405ZM51.7878 49.064C54.1226 49.0792 55.9972 49.2141 56.1845 49.4014C56.6613 49.8783 56.3028 50.7136 55.2795 51.6006L54.3927 52.3853L57.3217 55.3143C60.8298 58.8224 60.7957 58.7542 58.7831 60.7668C56.8729 62.6771 56.8388 62.6771 53.3137 59.152L50.4699 56.3081L49.6852 57.195C48.7811 58.2353 47.9628 58.5768 47.486 58.0999C47.0943 57.7083 47.0836 49.6471 47.4588 49.2719C47.5953 49.1355 49.5382 49.0317 51.7878 49.064ZM61.8078 50.3174C62.0805 50.3171 63.1024 51.2026 65.1629 53.2631L68.109 56.2092L69.2006 55.1176C70.3604 53.9578 71.0081 53.7869 71.3995 54.5194C71.5186 54.7409 71.6024 56.6666 71.6007 58.7799C71.5815 61.5919 71.4613 62.7339 71.1543 63.0409C70.8302 63.3649 69.6883 63.451 66.7229 63.4533C64.5074 63.421 62.6498 63.3713 62.5817 63.3032C62.5135 63.2351 62.3945 62.9454 62.2924 62.6728C62.1735 62.2469 62.3441 61.9741 63.2481 61.0701L64.3567 59.9615L61.4106 57.0154C59.3501 54.9549 58.4647 53.933 58.4649 53.6603C58.4651 53.4217 59.011 52.7055 59.932 51.7845C60.853 50.8635 61.5692 50.3175 61.8078 50.3174Z" fill="white"/>
<path d="M62.766 88.9012L61.6395 91.1177L63.4079 96.2972C64.7681 100.352 65.3295 101.698 65.9765 102.448C66.6746 103.282 67.5945 103.827 72.6712 106.379C79.8944 110.021 80.8655 110.446 81.8031 110.121C82.8259 109.814 83.1841 109.388 84.2082 107.342C85.1641 105.432 85.165 104.307 84.2624 103.405C84.007 103.183 81.2302 101.669 78.0615 100.069L72.3034 97.1424L71.1302 93.6155L69.9571 90.0886L67.1976 88.2843C65.6816 87.2799 64.3017 86.5141 64.1824 86.5653C64.046 86.6336 63.4146 87.6737 62.766 88.9012Z" fill="white"/>
<path d="M89.6126 61.2025C89.5784 61.3729 90.3613 62.7016 91.3486 64.2006L93.1019 66.909L96.6458 68.0992L100.173 69.2724L103.1 75.0305C104.699 78.1992 106.214 80.9759 106.435 81.2314C107.338 82.134 108.462 82.1331 110.372 81.1772C112.486 80.1189 112.929 79.7096 113.203 78.5845C113.391 77.7834 113.17 77.2552 109.937 70.7475C106.874 64.6146 106.329 63.6606 105.478 62.9455C104.728 62.2985 103.383 61.7371 99.3275 60.3769L94.1479 58.6085L92.8181 59.2912C90.0561 60.7249 89.6639 60.9468 89.6126 61.2025Z" fill="white"/>
</svg>
