<svg width="129" height="129" viewBox="0 0 129 129" fill="none" xmlns="http://www.w3.org/2000/svg">
<path d="M56.7274 116.808C56.5612 116.654 56.395 116.501 56.2237 116.342C55.4522 115.59 54.8762 115.02 54.7377 113.924C54.8159 112.685 55.2741 112.19 56.1554 111.361C57.1422 110.423 58.1155 109.472 59.0852 108.516C59.5026 108.109 59.9239 107.706 60.3493 107.307C63.5417 104.304 64.921 101.865 65.4922 97.4981C65.6104 96.6416 65.798 95.8218 66.0026 94.9824C66.0603 94.7311 66.118 94.4798 66.1774 94.2209C66.2334 93.9778 66.2895 93.7348 66.3472 93.4843C66.8126 91.4554 67.2746 89.4259 67.728 87.3943C67.7724 87.1951 67.8168 86.9959 67.8626 86.7907C68.2218 85.1776 68.5763 83.5633 68.9305 81.9491C68.6999 82.1877 68.6999 82.1877 68.4647 82.4311C67.8812 83.0321 67.2954 83.6305 66.7079 84.2276C66.4564 84.4842 66.2057 84.7417 65.9562 85.0002C62.1778 88.9101 57.8585 91.1652 52.3241 91.3005C48.0188 91.1706 44.1909 89.4305 41.1726 86.3936C38.2472 83.2961 36.9028 79.5065 36.9217 75.265C36.9194 75.0555 36.9171 74.846 36.9148 74.6302C37.0166 70.3409 38.9172 66.4027 41.9361 63.4292C42.1194 63.2466 42.1194 63.2466 42.3065 63.0603C42.6927 62.676 43.0801 62.2928 43.4675 61.9098C43.7314 61.6476 43.9952 61.3853 44.2589 61.123C44.9017 60.4839 45.5455 59.8459 46.19 59.2085C41.9545 60.131 37.7268 61.0835 33.5022 62.0533C32.3005 62.3291 31.0987 62.6045 29.8969 62.8798C29.6219 62.943 29.347 63.0062 29.0637 63.0713C28.8055 63.1304 28.5472 63.1896 28.2812 63.2505C28.0556 63.3023 27.8301 63.354 27.5977 63.4074C26.9047 63.5597 26.9047 63.5597 26.1074 63.6228C24.7743 64.0267 24.0229 64.8922 23.0578 65.8659C22.8569 66.0629 22.656 66.2598 22.449 66.4627C21.8087 67.0909 21.173 67.7235 20.5378 68.3568C19.9002 68.9889 19.2617 69.6199 18.6212 70.2491C18.2233 70.6403 17.8271 71.0334 17.4328 71.4283C17.2525 71.6063 17.0721 71.7843 16.8863 71.9677C16.729 72.1245 16.5718 72.2814 16.4098 72.4429C15.6577 73.0622 14.9943 73.3279 14.0234 73.3968C12.8379 73.0664 12.195 72.3458 11.3525 71.4751C11.1909 71.3187 11.0292 71.1623 10.8627 71.0011C10.1226 70.2526 9.70114 69.801 9.45182 68.7619C9.50124 67.6465 9.88119 67.2971 10.6461 66.5104C10.8599 66.29 11.0737 66.0697 11.294 65.8427C11.53 65.6016 11.7662 65.3607 12.0026 65.12C12.1218 64.9986 12.241 64.8772 12.3638 64.752C12.9964 64.1084 13.6304 63.4661 14.2652 62.8246C14.7878 62.2961 15.3073 61.7648 15.8242 61.2308C16.4504 60.5841 17.0815 59.9427 17.7164 59.3045C17.9561 59.0619 18.1941 58.8176 18.4302 58.5715C20.0485 56.8882 21.3668 56.0371 23.668 55.5958C23.9379 55.5248 24.2078 55.4538 24.4858 55.3807C24.6996 55.3294 24.9134 55.2781 25.1336 55.2253C25.5029 55.1364 25.5029 55.1364 25.8797 55.0456C26.2607 54.9552 26.2607 54.9552 26.6495 54.8629C27.0561 54.7656 27.0561 54.7656 27.4709 54.6664C29.3994 54.2075 31.332 53.7689 33.268 53.3421C35.5448 52.8388 37.8111 52.2937 40.0771 51.745C38.9968 49.7947 37.6155 47.7865 35.5409 46.8137C32.2256 45.8583 27.6624 47.7305 24.4761 48.6406C23.5268 48.901 22.5767 49.1287 21.6109 49.3213C21.382 49.367 21.1531 49.4127 20.9173 49.4598C19.9413 49.5101 19.3309 49.1545 18.5403 48.6108C17.4732 47.1667 17.2792 45.1488 17.2044 43.3918C17.4978 42.5055 18.1696 41.9323 18.8918 41.365C19.5388 41.0635 20.1906 40.9253 20.8898 40.7883C21.1952 40.7217 21.1952 40.7217 21.5067 40.6538C22.2688 40.4916 23.0327 40.3415 23.7976 40.1927C24.1406 40.1254 24.4836 40.0581 24.8267 39.9908C26.8884 39.5876 28.9512 39.1884 31.0186 38.8146C31.8864 38.6576 32.7495 38.4916 33.6103 38.3002C33.7735 38.2658 33.9367 38.2315 34.1049 38.1961C34.5452 38.1031 34.9845 38.0049 35.4235 37.9064C37.1614 37.8071 38.4672 38.2675 39.7991 39.3951C40.1782 39.7465 40.5533 40.1023 40.9247 40.4618C41.1247 40.6492 41.3247 40.8366 41.5308 41.0297C42.1636 41.6243 42.7909 42.2243 43.4182 42.8247C43.8485 43.2309 44.2791 43.6366 44.71 44.042C45.7612 45.0323 46.8078 46.0271 47.8512 47.0255C47.7129 46.7462 47.5746 46.4669 47.4321 46.1791C46.9163 45.1341 46.4061 44.0864 45.8976 43.0378C45.6774 42.5859 45.4558 42.1347 45.2325 41.6842C44.9104 41.0336 44.5939 40.3804 44.2784 39.7266C44.1788 39.5284 44.0792 39.3302 43.9765 39.126C42.9676 37.0068 42.9469 34.9871 43.3816 32.7215C43.4359 32.4205 43.4359 32.4205 43.4914 32.1134C46.1055 17.9601 46.1055 17.9601 47.6037 16.726C48.8321 16.3871 49.7643 16.393 51.01 16.6502C51.2934 16.705 51.5767 16.7599 51.8687 16.8164C52.7912 17.1125 53.3377 17.4271 54.0394 18.0968C54.4846 19.1457 54.6072 19.861 54.4026 20.9739C54.3523 21.2541 54.302 21.5343 54.2502 21.823C54.1844 22.1609 54.1182 22.4986 54.0516 22.8363C54.0129 23.0372 53.9742 23.238 53.9343 23.445C53.6126 25.1118 53.2796 26.7763 52.9447 28.4404C52.7468 29.4241 52.5498 30.4079 52.3533 31.3918C52.3082 31.6144 52.2631 31.837 52.2166 32.0663C52.0992 32.6544 51.9888 33.2434 51.8795 33.8331C51.8259 34.0952 51.7723 34.3573 51.7171 34.6274C51.713 35.6491 52.0687 36.3648 52.5166 37.2716C52.6036 37.453 52.6906 37.6343 52.7803 37.8211C53.0651 38.4074 53.3569 38.9897 53.6505 39.5716C53.7488 39.7691 53.8471 39.9665 53.9484 40.17C55.6319 43.5242 57.5374 46.2508 60.3814 48.7506C60.5321 48.6385 60.6829 48.5265 60.8381 48.411C70.1976 41.4996 70.1976 41.4996 75.2587 41.6797C75.4472 41.6828 75.6358 41.6859 75.83 41.6891C79.0817 41.8356 81.4905 43.5066 83.7326 45.764C86.0101 48.345 86.6156 51.1571 86.4259 54.5378C86.1279 57.1557 85.0951 59.2904 83.678 61.474C83.5283 61.7091 83.3785 61.9442 83.2243 62.1864C82.7921 62.8629 82.356 63.5366 81.9183 64.2095C81.7468 64.4745 81.7468 64.4745 81.5719 64.7448C80.0423 67.1037 80.0423 67.1037 79.3885 67.7576C82.0264 70.7589 84.9388 72.702 88.4617 74.5094C88.7451 74.66 88.7451 74.66 89.0343 74.8137C91.5508 76.1392 93.1799 76.7048 95.9978 75.9253C96.5419 75.8112 97.0874 75.7074 97.6337 75.6038C98.2282 75.4909 98.8214 75.3725 99.4144 75.2524C99.6145 75.2119 99.8145 75.1715 100.021 75.1298C100.426 75.0476 100.831 74.9652 101.236 74.8828C103.25 74.4737 105.266 74.068 107.297 73.7487C107.708 73.6828 107.708 73.6828 108.127 73.6156C108.931 73.586 109.347 73.7024 110.042 74.0996C110.931 75.062 111.242 75.8853 111.478 77.1607C111.535 77.4491 111.591 77.7375 111.649 78.0346C111.788 79.1776 111.705 79.7981 111.16 80.8097C109.795 82.4556 106.674 82.5924 104.674 82.969C104.414 83.0189 104.155 83.0689 103.887 83.1203C103.342 83.2246 102.797 83.3283 102.252 83.4313C101.425 83.5879 100.598 83.7468 99.771 83.9062C99.2378 84.008 98.7046 84.1096 98.1714 84.2111C97.9279 84.2579 97.6844 84.3047 97.4336 84.353C94.1497 84.9706 91.5679 85.3866 88.4786 83.8608C88.2668 83.7591 88.055 83.6573 87.8368 83.5525C87.1656 83.2292 86.4964 82.902 85.8271 82.5745C85.3704 82.3537 84.9134 82.1331 84.4564 81.9128C83.3406 81.3742 82.2266 80.832 81.1135 80.2878C81.2183 80.3974 81.3231 80.5069 81.4311 80.6197C82.5264 81.7659 83.6158 82.9174 84.702 84.0721C85.1075 84.5017 85.5145 84.9299 85.9229 85.3567C86.5116 85.9723 87.0948 86.5928 87.6773 87.2143C87.8594 87.4025 88.0415 87.5907 88.2291 87.7846C89.5658 89.2267 90.2889 90.5747 90.2806 92.5678C90.2178 92.8863 90.2178 92.8863 90.1537 93.2112C90.1074 93.4597 90.0611 93.7082 90.0134 93.9642C89.931 94.3589 89.931 94.3589 89.847 94.7616C89.7658 95.182 89.7658 95.182 89.683 95.6109C89.5324 96.382 89.3767 97.1519 89.2181 97.9214C89.112 98.4391 89.0078 98.9573 88.9043 99.4756C88.433 101.834 87.9557 104.191 87.4441 106.541C87.3866 106.807 87.329 107.073 87.2697 107.348C87.1872 107.708 87.1872 107.708 87.103 108.075C87.0562 108.281 87.0095 108.487 86.9613 108.7C86.6515 109.605 86.0926 110.303 85.2546 110.767C84.1324 110.987 83.25 110.882 82.1439 110.611C81.7489 110.516 81.7489 110.516 81.346 110.419C80.2653 110.139 79.7895 109.84 79.1122 108.947C78.1671 107.137 79.1855 104.526 79.7213 102.7C81.501 97.4043 81.501 97.4043 81.1036 92.0812C80.0164 90.2757 78.2214 89.0398 76.3941 88.062C75.6884 90.8368 75.0114 93.6154 74.4056 96.4144C73.9305 98.6058 73.4393 100.793 72.9281 102.976C72.8536 103.294 72.7794 103.613 72.7055 103.931C72.6023 104.376 72.4978 104.82 72.3932 105.264C72.3034 105.647 72.3034 105.647 72.2118 106.038C71.9233 107.107 71.4308 107.667 70.6674 108.443C70.3402 108.777 70.3402 108.777 70.0063 109.118C69.7668 109.36 69.5272 109.602 69.2875 109.844C69.1668 109.966 69.046 110.088 68.9217 110.214C68.2827 110.86 67.6427 111.505 67.0018 112.149C66.3408 112.814 65.6838 113.483 65.0276 114.152C64.5217 114.667 64.0127 115.179 63.5029 115.69C63.2594 115.935 63.017 116.181 62.7758 116.429C62.4377 116.775 62.0949 117.117 61.7519 117.458C61.5583 117.654 61.3648 117.849 61.1654 118.051C60.4321 118.583 59.9376 118.645 59.0385 118.655C58.0908 118.337 57.4343 117.494 56.7274 116.808ZM45.9669 83.4449C46.7966 83.1796 47.2012 82.7052 47.7724 82.0637C47.9508 82.2143 48.1292 82.3649 48.3131 82.52C50.2529 83.9643 52.6824 84.4094 55.0458 84.2089C56.7973 83.9544 58.2985 83.1806 59.7909 82.264C60.0288 82.4601 60.2667 82.6562 60.5118 82.8583C61.1544 83.3944 61.1544 83.3944 61.9944 83.4546C62.4848 82.9084 62.4848 82.9084 62.8377 82.2719C62.6426 81.6907 62.4143 81.4759 61.9776 81.053C61.7572 80.8395 61.5367 80.626 61.3095 80.406C61.4836 80.2179 61.6576 80.0298 61.837 79.8361C63.2895 77.9491 63.7947 75.4706 63.4912 73.1331C63.127 71.2727 62.5792 69.9452 61.2789 68.5572C61.5018 68.3553 61.7247 68.1534 61.9544 67.9453C62.5048 67.393 62.5048 67.393 62.7657 66.6673C62.5772 66.0202 62.3196 65.7399 61.7784 65.3424C60.9074 65.5144 60.7722 65.5887 60.2043 66.1952C59.9989 66.4146 59.7935 66.6341 59.5818 66.8601C59.3614 66.6536 59.1409 66.447 58.9137 66.2342C56.9468 64.6748 54.385 64.3814 51.9591 64.64C50.2293 64.9935 49.0317 65.6514 47.733 66.8295C47.407 66.4816 47.0811 66.1336 46.7551 65.7856C46.3445 65.3963 46.3445 65.3963 45.5286 65.3004C45.0358 65.6518 45.0358 65.6518 44.6844 66.1446C44.6871 67.1623 45.2345 67.5712 45.875 68.3481C45.7714 68.5261 45.6678 68.7041 45.561 68.8875C44.0725 71.5524 43.4667 73.9476 44.1953 76.9698C44.6085 78.33 45.1269 79.3073 46.0753 80.3667C45.7409 80.6695 45.7409 80.6695 45.3998 80.9785C44.8446 81.5319 44.8446 81.5319 44.5991 82.2671C44.8105 83.0356 45.1713 83.3978 45.9669 83.4449Z" fill="white"/>
<path d="M61.0422 42.3193C60.604 41.8243 60.2312 41.3341 59.8533 40.7928C59.6931 40.5679 59.5329 40.3431 59.3678 40.1114C58.6024 38.8617 58.0022 37.8362 58.2711 36.3458C58.5676 35.1916 58.9956 34.091 59.4312 32.9842C59.572 32.5989 59.7116 32.2131 59.85 31.8269C60.2204 30.8042 60.6083 29.7895 61.0072 28.7778C61.0691 28.6195 61.131 28.4613 61.1948 28.2983C62.7431 24.3652 67.3748 22.9294 70.9406 21.1738C71.6665 20.8153 72.39 20.452 73.1135 20.0888C73.5786 19.859 74.0438 19.6296 74.5092 19.4004C74.7233 19.292 74.9375 19.1837 75.1581 19.072C76.3653 18.4853 77.2353 18.1635 78.584 18.3286C80.1669 19.2793 81.0647 21.0422 81.6422 22.7374C81.8244 23.6371 81.8244 23.6371 81.6466 24.4301C80.5694 25.862 79.1554 26.6292 77.5674 27.3837C77.3429 27.4944 77.1184 27.6051 76.8871 27.7191C76.1761 28.0695 75.4632 28.4154 74.7496 28.7603C73.8063 29.217 72.8652 29.6778 71.9252 30.1409C71.7093 30.2437 71.4933 30.3465 71.2709 30.4524C70.1788 30.9904 69.372 31.3942 68.8032 32.5218C68.5722 33.1776 68.5722 33.1776 68.4166 33.8802C67.1007 38.8636 67.1007 38.8636 64.8346 40.1815C64.3577 40.4382 63.8787 40.6771 63.3863 40.9028C62.5618 41.3044 61.8053 41.8134 61.0422 42.3193Z" fill="white"/>
<path d="M85.8178 67.0956C86.346 66.2048 86.8817 65.319 87.419 64.4337C87.5685 64.1814 87.7179 63.9292 87.8719 63.6692C88.0197 63.4274 88.1674 63.1856 88.3197 62.9364C88.4538 62.7134 88.588 62.4904 88.7262 62.2606C89.542 61.2511 90.6464 60.951 91.859 60.5917C92.1018 60.5166 92.3447 60.4415 92.5949 60.3642C93.1011 60.2097 93.6081 60.0581 94.1159 59.9092C94.3583 59.8333 94.6007 59.7573 94.8505 59.679C95.1804 59.58 95.1804 59.58 95.5169 59.4789C96.965 58.7323 97.561 57.0394 98.2426 55.6346C98.4541 55.2075 98.6657 54.7805 98.8774 54.3535C99.2064 53.6862 99.5345 53.0183 99.8603 52.3493C100.178 51.6995 100.499 51.052 100.821 50.4046C100.916 50.2068 101.011 50.0089 101.109 49.8051C101.753 48.5187 102.504 47.3228 103.707 46.4911C105.25 46.2377 106.674 46.8276 107.942 47.6869C108.89 48.4751 109.691 49.1709 109.98 50.4004C109.5 52.8572 107.936 55.299 106.83 57.5139C106.489 58.1973 106.151 58.8825 105.814 59.5678C103.4 64.4425 101.86 66.2621 96.6819 67.9911C94.9292 68.5716 94.9292 68.5716 93.2289 69.2848C91.908 69.867 91.0216 70.1565 89.6468 69.6306C88.2031 68.9738 86.9189 68.248 85.8178 67.0956Z" fill="white"/>
<path d="M49.1213 80.373C49.285 80.2233 49.4487 80.0736 49.6174 79.9194C50.2071 79.3794 50.2071 79.3794 50.3014 78.5141C49.8203 77.9486 49.8203 77.9486 49.2832 77.4959C48.7817 77.9973 48.2803 78.4988 47.7637 79.0154C46.4804 77.2508 45.895 75.566 46.1516 73.3725C46.4028 71.9934 46.7294 70.8855 47.7401 69.8749C48.4957 70.4633 48.4957 70.4633 49.2666 71.0637C49.7866 70.7743 49.7866 70.7743 50.2804 70.3892C50.278 69.4541 49.8321 69.0702 49.2596 68.3554C50.7165 67.1076 52.4082 66.7701 54.2914 66.845C55.7009 66.9763 56.8217 67.2053 57.9129 68.1661C58.0705 68.3551 58.0705 68.3551 58.2312 68.5478C57.8412 68.9378 57.4512 69.3278 57.0494 69.7296C57.218 70.1211 57.3866 70.5125 57.5603 70.9158C58.0179 71.0168 58.0179 71.0168 58.5759 70.9185C59.2305 70.3489 59.2305 70.3489 59.7577 69.7366C61.0527 71.754 61.5284 73.641 61.0963 76.0136C60.8534 77.1085 60.5852 78.0733 59.7813 78.8771C58.9417 78.2047 58.9417 78.2047 58.0851 77.5186C57.7403 77.849 57.4028 78.1871 57.0721 78.5316C57.0734 79.0385 57.3544 79.2636 57.6675 79.6545C57.8636 79.8994 58.0597 80.1443 58.2618 80.3966C56.901 81.698 55.0667 82.0895 53.206 82.0716C51.7091 81.8945 50.2109 81.4626 49.1213 80.373ZM53.5101 75.6449C54.1116 75.4813 54.1116 75.4813 54.6936 75.1401C54.8718 74.5331 54.8718 74.5331 54.8598 73.9557C54.0958 73.3856 54.0958 73.3856 53.1654 73.2742C52.6563 73.8817 52.6563 73.8817 52.4918 74.6266C52.8243 74.9729 53.1635 75.3127 53.5101 75.6449Z" fill="white"/>
</svg>
