<svg width="129" height="129" viewBox="0 0 129 129" fill="none" xmlns="http://www.w3.org/2000/svg">
<path d="M21.2407 98.83C21.337 99.1194 21.7465 99.5777 22.1077 99.8672C22.7579 100.374 22.8784 100.398 30.609 100.325L38.46 100.253L41.2296 98.5405C43.662 97.0451 46.1907 95.4531 53.8009 90.6772L55.6794 89.5194L55.6794 93.427L55.6794 97.3586L49.9236 101.17C43.7583 105.27 42.795 106.042 42.6023 107.079C42.4097 107.972 43.4211 110.022 44.7216 111.373C45.9258 112.651 46.7928 112.748 48.4304 111.783C49.8513 110.963 57.5338 105.849 60.4478 103.775C63.8435 101.411 63.7231 101.749 63.8676 93.2581L63.988 86.2631L64.7828 88.434C65.2162 89.6159 66.1796 92.3415 66.9502 94.4642C68.0099 97.4069 68.5156 98.4923 69.0936 99.0953C69.5271 99.5295 73.0432 101.99 76.9206 104.595C83.2785 108.84 84.0732 109.298 84.9643 109.298C86.2407 109.298 87.1318 108.599 88.3118 106.669C89.2992 105.029 89.3956 103.895 88.6731 102.955C88.4082 102.617 85.2533 100.374 81.7131 97.9858L75.2348 93.6199L73.6453 88.8441L72.0317 84.0441L72.104 80.836L72.1762 77.628L76.6316 76.7114C83.4711 75.2883 85.1329 74.5405 87.8783 71.5978C89.8531 69.4752 90.407 68.028 90.5515 64.6752C90.6238 62.5526 90.5756 61.9013 90.1421 60.6229C89.1066 57.5596 87.1077 55.3405 83.9769 53.7968C82.4115 53.0249 81.111 52.639 77.1132 51.7948L72.1762 50.7576L72.104 47.5496L72.0317 44.3415L73.6453 39.5415L75.2348 34.7656L81.7131 30.3998C85.2533 28.0119 88.4082 25.7686 88.6731 25.4309C88.938 25.0933 89.1547 24.4661 89.1547 24.0561C89.1547 22.5847 87.2522 19.7626 85.8554 19.1837C85.1329 18.8701 84.9402 18.8701 84.0251 19.2802C82.5801 19.9314 70.081 28.3254 69.0936 29.2902C68.4193 29.9897 67.9617 31.0269 66.4204 35.3928C65.4089 38.3114 64.4215 41.0611 64.2288 41.5194C63.9158 42.2671 63.8917 41.64 63.8917 35.3928C63.8676 26.9264 63.9158 27.0712 60.8572 24.9003C58.4489 23.1636 49.9235 17.4711 48.4304 16.6028C46.3833 15.3968 45.0829 15.9515 43.4211 18.7013C42.5542 20.1727 42.3856 21.4028 42.9876 22.2953C43.1803 22.5847 46.1184 24.6591 49.5141 26.9264L55.6553 31.0269L55.6794 34.9586L55.6794 38.8661L53.825 37.7083C46.1907 32.9325 43.662 31.3405 41.2296 29.845L38.46 28.1325L30.4404 28.1325L22.3967 28.1325L21.6983 28.9284C21.048 29.6762 20.9999 29.8209 20.9999 31.8953C20.9999 33.2943 21.1203 34.3073 21.337 34.7415C21.9873 35.9717 22.493 36.0681 29.6698 36.2129L36.2926 36.3335L44.3604 41.3747C48.7916 44.1727 53.0543 46.8501 53.8009 47.3325L55.1977 48.2249L50.5497 48.2008C46.7928 48.1767 45.6368 48.2491 44.3604 48.6109C38.3878 50.2511 33.6434 54.8099 32.1744 60.3335C31.6446 62.4079 31.6446 65.9777 32.1744 68.0521C32.921 70.8018 34.1251 72.7797 36.5093 75.1677C38.2915 76.9526 39.0862 77.5556 40.7479 78.3516C44.1436 80.0159 45.2515 80.233 50.4775 80.1848C54.8606 80.1606 55.0291 80.1848 54.4752 80.5948C54.1622 80.8119 49.9476 83.4893 45.107 86.5285L36.2926 92.0521L29.6698 92.1727C22.5412 92.3174 22.1077 92.3898 21.4093 93.6199C20.9517 94.3677 20.8554 97.8893 21.2407 98.83ZM40.3385 59.3445C43.8787 51.9877 53.8972 51.4571 58.3044 58.3556C60.5682 61.9254 60.207 67.039 57.4615 70.3918C54.1862 74.3717 48.0451 75.2159 43.7342 72.2973C40.6998 70.2471 39.2548 67.3285 39.3752 63.4692C39.4474 61.3948 39.5197 61.0089 40.3385 59.3445Z" fill="white"/>
<path d="M48.1897 62.7453L51.0797 65.5191L49.6347 67.0146C48.551 68.1242 48.2138 68.6548 48.2138 69.1855C48.2138 70.0779 48.864 70.7051 49.8033 70.7051C50.4053 70.7051 50.9352 70.295 52.7414 68.4377C54.4272 66.7252 54.957 66.0257 54.957 65.5433C54.957 65.0126 54.2345 64.1925 51.3205 61.3463C49.3216 59.3925 47.5395 57.7041 47.3468 57.6076C46.5039 57.1252 45.3238 58.0659 45.3238 59.1995C45.3238 59.8749 45.6851 60.3332 48.1897 62.7453Z" fill="white"/>
<path d="M77.9082 84.8169L78.6789 87.1807L83.5918 89.5927C87.421 91.4983 88.7697 92.053 89.7571 92.1254C90.8408 92.2219 91.8764 91.9566 97.2709 90.1716C104.953 87.639 105.941 87.253 106.374 86.3606C106.88 85.4199 106.832 84.8651 106.109 82.6942C105.435 80.6681 104.64 79.8721 103.364 79.8721C103.027 79.8962 99.9923 80.7887 96.6207 81.8983L90.4795 83.9003L87.1561 82.2359L83.8326 80.5716L80.6055 81.247C78.8234 81.6088 77.3061 82.043 77.258 82.1636C77.2098 82.3083 77.4988 83.4902 77.9082 84.8169Z" fill="white"/>
<path d="M77.306 46.2483C77.4024 46.393 78.8955 46.7789 80.6536 47.1408L83.8084 47.8161L87.156 46.1518L90.4794 44.4875L96.6206 46.4895C99.9922 47.599 103.027 48.4915 103.364 48.5156C104.64 48.5156 105.435 47.7196 106.109 45.6935C106.856 43.4503 106.88 42.8473 106.278 41.8583C105.844 41.1588 105.315 40.9418 98.4268 38.6262C91.9244 36.4553 90.8648 36.1659 89.7569 36.2624C88.7695 36.3347 87.4209 36.8895 83.5917 38.795L78.6788 41.2071L78.2212 42.6302C77.2819 45.597 77.1615 46.0312 77.306 46.2483Z" fill="white"/>
</svg>
