<svg width="129" height="129" viewBox="0 0 129 129" fill="none" xmlns="http://www.w3.org/2000/svg">
<path d="M106.469 29.5997C106.373 29.3103 105.964 28.852 105.602 28.5625C104.952 28.056 104.832 28.0319 97.101 28.1042L89.2499 28.1766L86.4804 29.8891C84.048 31.3846 81.5193 32.9766 73.909 37.7525L72.0306 38.9103L72.0306 35.0027L72.0306 31.0711L77.7864 27.26C83.9517 23.1595 84.915 22.3876 85.1076 21.3504C85.3003 20.458 84.2888 18.4077 82.9883 17.057C81.7842 15.7786 80.9172 15.6821 79.2796 16.6469C77.8587 17.467 70.1762 22.5806 67.2621 24.655C63.8664 27.0188 63.9869 26.6811 63.8424 35.1716L63.7219 42.1665L62.9272 39.9957C62.4937 38.8138 61.5304 36.0881 60.7597 33.9655C59.7001 31.0228 59.1943 29.9374 58.6164 29.3344C58.1829 28.9002 54.6667 26.4399 50.7894 23.8349C44.4315 19.5896 43.6367 19.1314 42.7457 19.1314C41.4693 19.1313 40.5782 19.8308 39.3981 21.7605C38.4107 23.4007 38.3144 24.5344 39.0369 25.4751C39.3018 25.8128 42.4567 28.056 45.9969 30.4439L52.4752 34.8098L54.0647 39.5856L55.6782 44.3856L55.606 47.5937L55.5337 50.8017L51.0784 51.7183C44.2388 53.1414 42.5771 53.8892 39.8316 56.8319C37.8568 58.9545 37.3029 60.4017 37.1584 63.7545C37.0862 65.8771 37.1343 66.5284 37.5678 67.8068C38.6034 70.8701 40.6023 73.0892 43.7331 74.6329C45.2985 75.4048 46.5989 75.7907 50.5967 76.6349L55.5337 77.6721L55.606 80.8801L55.6782 84.0882L54.0647 88.8882L52.4752 93.6641L45.9969 98.0299C42.4567 100.418 39.3018 102.661 39.0369 102.999C38.772 103.336 38.5552 103.964 38.5552 104.374C38.5552 105.845 40.4578 108.667 41.8546 109.246C42.5771 109.56 42.7697 109.56 43.6849 109.149C45.1299 108.498 57.6289 100.104 58.6163 99.1394C59.2907 98.4399 59.7482 97.4028 61.2896 93.0369C62.301 90.1183 63.2884 87.3686 63.4811 86.9103C63.7942 86.1625 63.8183 86.7897 63.8183 93.0369C63.8424 101.503 63.7942 101.359 66.8527 103.529C69.261 105.266 77.7864 110.959 79.2796 111.827C81.3266 113.033 82.6271 112.478 84.2888 109.728C85.1558 108.257 85.3244 107.027 84.7223 106.134C84.5296 105.845 81.5915 103.771 78.1958 101.503L72.0547 97.4028L72.0306 93.4711L72.0306 89.5636L73.885 90.7213C81.5193 95.4972 84.048 97.0892 86.4804 98.5847L89.2499 100.297L97.2695 100.297L105.313 100.297L106.012 99.5013C106.662 98.7535 106.71 98.6088 106.71 96.5344C106.71 95.1354 106.59 94.1224 106.373 93.6882C105.723 92.458 105.217 92.3616 98.0402 92.2168L91.4174 92.0962L83.3496 87.055C78.9183 84.257 74.6556 81.5796 73.909 81.0972L72.5122 80.2048L77.1602 80.2289C80.9172 80.253 82.0732 80.1806 83.3496 79.8188C89.3222 78.1786 94.0665 73.6198 95.5356 68.0962C96.0654 66.0218 96.0654 62.452 95.5356 60.3776C94.789 57.6279 93.5848 55.65 91.2006 53.262C89.4185 51.4771 88.6238 50.8741 86.962 50.0781C83.5663 48.4138 82.4585 48.1967 77.2325 48.2449C72.8494 48.2691 72.6808 48.2449 73.2347 47.8349C73.5478 47.6178 77.7623 44.9404 82.603 41.9012L91.4174 36.3776L98.0402 36.257C105.169 36.1123 105.602 36.0399 106.301 34.8098C106.758 34.062 106.855 30.5404 106.469 29.5997ZM87.3714 69.0852C83.8312 76.4419 73.8127 76.9726 69.4055 70.0741C67.1417 66.5042 67.503 61.3907 70.2484 58.0379C73.5237 54.058 79.6649 53.2138 83.9757 56.1324C87.0102 58.1826 88.4552 61.1012 88.3348 64.9605C88.2625 67.0349 88.1903 67.4208 87.3714 69.0852Z" fill="white"/>
<path d="M49.8017 43.6128L49.0311 41.249L44.1182 38.837C40.289 36.9314 38.9403 36.3766 37.9529 36.3043C36.8692 36.2078 35.8336 36.4731 30.439 38.2581C22.7565 40.7907 21.7691 41.1767 21.3356 42.0691C20.8299 43.0098 20.8781 43.5646 21.6006 45.7354C22.2749 47.7616 23.0696 48.5576 24.346 48.5576C24.6832 48.5334 27.7176 47.641 31.0893 46.5314L37.2304 44.5294L40.5539 46.1937L43.8773 47.8581L47.1044 47.1827C48.8866 46.8209 50.4038 46.3867 50.452 46.2661C50.5001 46.1214 50.2111 44.9395 49.8017 43.6128Z" fill="white"/>
<path d="M50.4039 82.1834C50.3076 82.0386 48.8145 81.6527 47.0564 81.2909L43.9015 80.6155L40.554 82.2798L37.2305 83.9442L31.0894 81.9421C27.7178 80.8326 24.6833 79.9401 24.3461 79.916C23.0697 79.916 22.275 80.712 21.6007 82.7381C20.8541 84.9813 20.83 85.5844 21.4321 86.5733C21.8656 87.2728 22.3954 87.4899 29.2831 89.8055C35.7856 91.9763 36.8452 92.2658 37.953 92.1693C38.9404 92.0969 40.2891 91.5422 44.1183 89.6366L49.0312 87.2246L49.4888 85.8014C50.428 82.8346 50.5484 82.4004 50.4039 82.1834Z" fill="white"/>
<path d="M74.6953 64.1094C74.6953 64.1094 75.5424 64.1094 76.5703 64.1094C77.5982 64.1094 77.8203 68.4844 80.9453 68.4844C82.8203 68.4844 84.0703 66.6094 84.0703 64.1094C84.0703 62.2344 82.8203 60.3594 80.9453 60.3594" stroke="white" stroke-width="2" stroke-linecap="round" stroke-linejoin="round"/>
<path d="M71.5362 64.1775C71.3793 64.1775 71.2522 64.0504 71.2522 63.8935C71.2522 63.7365 71.3794 63.6094 71.5362 63.6094C71.6931 63.6094 71.8203 63.7366 71.8203 63.8935C71.8203 64.0503 71.6932 64.1775 71.5362 64.1775Z" fill="white" stroke="white" stroke-width="2.5"/>
</svg>
