<svg width="129" height="129" viewBox="0 0 129 129" fill="none" xmlns="http://www.w3.org/2000/svg">
<path d="M111.386 65.8312C111.232 65.9982 111.078 66.1652 110.919 66.3372C110.163 67.1123 109.59 67.6908 108.488 67.8281C107.241 67.7471 106.742 67.2849 105.906 66.3963C104.959 65.4014 104.001 64.42 103.037 63.4422C102.626 63.0213 102.22 62.5966 101.817 62.1677C98.7887 58.949 96.3315 57.5561 91.9358 56.9728C91.0736 56.8522 90.2482 56.6618 89.403 56.4542C89.1499 56.3957 88.8969 56.3372 88.6363 56.2769C88.3915 56.22 88.1468 56.1631 87.8946 56.1045C85.8518 55.6323 83.8084 55.1633 81.7628 54.7031C81.5623 54.658 81.3617 54.6129 81.1551 54.5664C79.5309 54.2018 77.9057 53.8419 76.2803 53.4823C76.5209 53.7149 76.5209 53.7149 76.7664 53.9521C77.3723 54.5404 77.9758 55.1312 78.5778 55.7236C78.8365 55.9772 79.0962 56.23 79.3568 56.4817C83.2991 60.2918 85.5771 64.6432 85.724 70.2134C85.6015 74.5461 83.8577 78.3951 80.8072 81.427C77.6954 84.3651 73.8841 85.7108 69.6154 85.6836C69.4046 85.6855 69.1938 85.6874 68.9766 85.6893C64.6595 85.5785 60.6924 83.658 57.694 80.6141C57.5098 80.4292 57.5098 80.4292 57.3219 80.2406C56.9344 79.8512 56.5481 79.4606 56.1618 79.0699C55.8974 78.8038 55.633 78.5378 55.3684 78.2719C54.724 77.6237 54.0807 76.9745 53.4379 76.3247C54.3745 80.5891 55.3413 84.8458 56.3256 89.0994C56.6054 90.3093 56.885 91.5194 57.1643 92.7295C57.2284 93.0063 57.2926 93.2831 57.3587 93.5684C57.4187 93.8284 57.4787 94.0884 57.5405 94.3562C57.5931 94.5833 57.6456 94.8104 57.6997 95.0444C57.8544 95.7422 57.8544 95.7422 57.9195 96.5446C58.3285 97.8872 59.201 98.645 60.1829 99.6182C60.3815 99.8208 60.58 100.023 60.7846 100.232C61.4181 100.878 62.056 101.519 62.6946 102.159C63.3319 102.802 63.9683 103.446 64.6027 104.092C64.9973 104.493 65.3936 104.892 65.7918 105.29C65.9713 105.472 66.1508 105.654 66.3358 105.841C66.4939 106 66.652 106.158 66.8149 106.322C67.4396 107.08 67.7084 107.748 67.7796 108.725C67.4494 109.918 66.7253 110.563 65.8507 111.409C65.6936 111.572 65.5365 111.734 65.3746 111.902C64.6227 112.645 64.1691 113.068 63.1238 113.317C62.0011 113.265 61.6488 112.882 60.8555 112.111C60.6333 111.895 60.4112 111.68 60.1823 111.457C59.9392 111.219 59.6963 110.981 59.4536 110.743C59.3311 110.623 59.2087 110.503 59.0826 110.379C58.4335 109.741 57.7859 109.101 57.1391 108.461C56.6061 107.934 56.0705 107.411 55.5321 106.889C54.88 106.258 54.2332 105.621 53.5897 104.981C53.3451 104.739 53.0987 104.499 52.8506 104.261C51.1533 102.629 50.2942 101.301 49.8456 98.9841C49.7737 98.7124 49.7018 98.4407 49.6276 98.1607C49.5756 97.9455 49.5236 97.7302 49.4699 97.5084C49.3797 97.1366 49.3797 97.1366 49.2877 96.7573C49.1959 96.3736 49.1959 96.3736 49.1023 95.9822C49.0036 95.5728 49.0036 95.5728 48.9029 95.1551C48.4374 93.2134 47.9922 91.2675 47.5589 89.3183C47.048 87.0259 46.495 84.744 45.9383 82.4624C43.9776 83.5458 41.9592 84.9321 40.9843 87.0181C40.0291 90.3528 41.9222 94.9489 42.8443 98.1575C43.1082 99.1134 43.3392 100.07 43.5349 101.042C43.5813 101.273 43.6278 101.503 43.6756 101.741C43.7282 102.723 43.3714 103.337 42.8258 104.131C41.3745 105.202 39.344 105.394 37.5759 105.466C36.6833 105.169 36.1052 104.491 35.5328 103.763C35.2281 103.112 35.0878 102.455 34.9485 101.752C34.8809 101.444 34.8809 101.444 34.8119 101.13C34.6473 100.363 34.4947 99.594 34.3435 98.824C34.2751 98.4786 34.2067 98.1332 34.1383 97.7879C33.7285 95.7121 33.3228 93.6353 32.9426 91.5539C32.7829 90.6802 32.6142 89.8113 32.4198 88.9446C32.3849 88.7803 32.3501 88.616 32.3141 88.4466C32.2197 88.0033 32.12 87.5611 32.02 87.119C31.9167 85.3698 32.3776 84.0564 33.5098 82.7182C33.8627 82.3374 34.2201 81.9606 34.5811 81.5875C34.7693 81.3866 34.9576 81.1856 35.1515 80.9786C35.7487 80.3429 36.3514 79.7127 36.9544 79.0825C37.3623 78.6503 37.7698 78.2177 38.177 77.7848C39.1716 76.7288 40.1707 75.6774 41.1736 74.6293C40.8927 74.7679 40.6119 74.9065 40.3225 75.0493C39.2718 75.5665 38.2183 76.0779 37.164 76.5877C36.7096 76.8084 36.256 77.0306 35.8031 77.2543C35.1489 77.5773 34.4921 77.8945 33.8347 78.2108C33.6354 78.3107 33.4361 78.4106 33.2308 78.5135C31.1 79.5247 29.0674 79.5417 26.7864 79.0998C26.4834 79.0445 26.4834 79.0445 26.1743 78.9881C11.9251 76.3299 11.9251 76.3299 10.6801 74.8196C10.3366 73.5827 10.3407 72.6445 10.5972 71.3913C10.6518 71.1063 10.7065 70.8212 10.7628 70.5275C11.059 69.5996 11.3746 69.0502 12.0472 68.3453C13.102 67.8993 13.8216 67.7773 14.9421 67.9854C15.2242 68.0365 15.5063 68.0877 15.797 68.1404C16.1371 68.2072 16.4771 68.2745 16.8171 68.3422C17.0194 68.3815 17.2216 68.4209 17.4299 68.4615C19.1081 68.7885 20.7839 69.1268 22.4593 69.4671C23.4497 69.6681 24.4402 69.8683 25.4308 70.068C25.6549 70.1138 25.879 70.1596 26.11 70.2068C26.702 70.3261 27.295 70.4384 27.8887 70.5495C28.1526 70.6039 28.4165 70.6584 28.6884 70.7145C29.7167 70.7206 30.4362 70.364 31.3481 69.915C31.5304 69.8278 31.7127 69.7406 31.9006 69.6507C32.49 69.3652 33.0755 69.0727 33.6606 68.7783C33.8591 68.6797 34.0577 68.5812 34.2623 68.4796C37.6347 66.7918 40.3751 64.8794 42.8854 62.022C42.7723 61.8701 42.6593 61.7182 42.5428 61.5616C35.5689 52.1288 35.5689 52.1288 35.7404 47.0355C35.7431 46.8458 35.7459 46.6561 35.7488 46.4606C35.8898 43.1883 37.5669 40.7673 39.8345 38.5151C42.4276 36.2281 45.2566 35.6241 48.6594 35.8216C51.2946 36.1266 53.445 37.1701 55.6454 38.6006C55.8823 38.7517 56.1192 38.9028 56.3632 39.0586C57.0449 39.4948 57.7238 39.935 58.4018 40.3768C58.6688 40.5499 58.6688 40.5499 58.9413 40.7265C61.3183 42.2705 61.3183 42.2705 61.9776 42.9298C64.993 40.2808 66.943 37.3534 68.7551 33.8114C68.9062 33.5265 68.9062 33.5265 69.0603 33.2357C70.3894 30.7056 70.9554 29.0672 70.1655 26.2297C70.0496 25.6819 69.9441 25.1326 69.8388 24.5827C69.724 23.9841 69.6037 23.3869 69.4817 22.7898C69.4406 22.5884 69.3995 22.387 69.3571 22.1795C69.2736 21.7717 69.1899 21.3639 69.1062 20.9561C68.6906 18.9279 68.2783 16.8985 67.9531 14.8534C67.886 14.4399 67.886 14.4399 67.8175 14.018C67.7861 13.2092 67.9025 12.7904 68.3009 12.0916C69.2677 11.199 70.0957 10.8875 71.3789 10.6522C71.669 10.596 71.9591 10.5398 72.258 10.482C73.4081 10.3449 74.0327 10.4294 75.0519 10.9799C76.711 12.3568 76.8547 15.4975 77.2376 17.5111C77.2883 17.7728 77.3391 18.0344 77.3914 18.304C77.4975 18.8525 77.6028 19.4011 77.7076 19.9499C77.8667 20.7828 78.0283 21.6153 78.1903 22.4477C78.2938 22.9845 78.3971 23.5214 78.5003 24.0582C78.5479 24.3034 78.5955 24.5485 78.6445 24.801C79.2724 28.1071 79.6961 30.7063 78.1665 33.8125C78.0645 34.0255 77.9625 34.2384 77.8574 34.4578C77.5334 35.1327 77.2053 35.8056 76.8771 36.4785C76.6557 36.9378 76.4346 37.3972 76.2138 37.8567C75.6739 38.9787 75.1304 40.0988 74.5849 41.218C74.6949 41.1127 74.8049 41.0074 74.9183 40.899C76.0696 39.7989 77.2265 38.7047 78.3865 37.6138C78.8181 37.2065 79.2482 36.7977 79.6769 36.3875C80.2954 35.7962 80.9187 35.2104 81.5431 34.6255C81.7321 34.4426 81.9211 34.2597 82.1159 34.0712C83.5647 32.7287 84.92 32.0036 86.9258 32.0158C87.2465 32.0796 87.2465 32.0796 87.5736 32.1448C87.8238 32.1918 88.074 32.2389 88.3318 32.2875C88.7292 32.3711 88.7292 32.3711 89.1346 32.4565C89.5578 32.539 89.5578 32.539 89.9896 32.6232C90.766 32.7762 91.5411 32.9344 92.3158 33.0955C92.8371 33.2033 93.3588 33.3091 93.8806 33.4144C96.255 33.8932 98.628 34.3781 100.994 34.8975C101.262 34.956 101.53 35.0144 101.806 35.0746C102.169 35.1584 102.169 35.1584 102.539 35.2439C102.746 35.2913 102.954 35.3387 103.168 35.3876C104.08 35.7012 104.783 36.265 105.251 37.1093C105.476 38.2391 105.371 39.1269 105.1 40.2397C105.006 40.637 105.006 40.637 104.909 41.0423C104.629 42.1294 104.33 42.6077 103.432 43.2876C101.612 44.2353 98.9818 43.2053 97.1431 42.6625C91.8104 40.8612 91.8104 40.8612 86.4539 41.2508C84.6389 42.3414 83.3986 44.1455 82.418 45.9827C85.2121 46.6983 88.0098 47.385 90.8279 48.0002C93.0343 48.4825 95.2361 48.9811 97.4342 49.4998C97.7547 49.5754 98.0754 49.6507 98.3961 49.7257C98.8436 49.8304 99.2909 49.9364 99.7382 50.0425C100.124 50.1337 100.124 50.1337 100.517 50.2266C101.594 50.5191 102.158 51.0158 102.941 51.7856C103.278 52.1156 103.278 52.1156 103.621 52.4522C103.865 52.6937 104.11 52.9353 104.354 53.1771C104.477 53.2988 104.6 53.4205 104.727 53.546C105.378 54.1902 106.028 54.8356 106.678 55.4819C107.348 56.1484 108.022 56.8109 108.698 57.4726C109.217 57.9828 109.733 58.496 110.248 59.0101C110.495 59.2557 110.744 59.5001 110.993 59.7433C111.342 60.0842 111.687 60.4299 112.031 60.7758C112.229 60.9709 112.426 61.1661 112.629 61.3672C113.166 62.1062 113.229 62.604 113.241 63.5089C112.922 64.462 112.076 65.1211 111.386 65.8312ZM78.7223 63.8936C78.6508 63.1339 78.582 62.653 78.1666 62.0127C77.4046 61.5021 76.6454 61.4668 75.7534 61.4148C75.5714 61.4027 75.3894 61.3907 75.2019 61.3782C71.8532 61.1951 67.808 61.5756 65.1486 63.8519C62.3376 66.5463 61.4062 69.6705 61.2812 73.504C61.1901 75.6299 61.1901 75.6299 61.614 77.6822C62.6988 78.7849 63.6584 78.8786 65.1268 78.8937C65.3286 78.8981 65.5304 78.9025 65.7384 78.907C69.288 78.9327 72.9169 78.2695 75.563 75.7566C78.6207 72.6231 79.0695 68.0716 78.7223 63.8936Z" fill="white"/>
<path d="M71.1442 75.4045C69.5019 75.5914 68.024 75.386 66.6924 74.3633C65.4515 73.1766 64.7868 72.2622 64.6852 70.525C64.6503 68.7643 64.9914 67.6143 66.1254 66.2333C67.1644 65.2633 68.369 64.7656 69.787 64.6984C71.959 64.7979 73.0942 65.4695 74.592 67.0329C75.4255 68.042 75.6546 68.7894 75.5296 70.1266C75.095 72.7136 73.834 74.8114 71.1442 75.4045Z" fill="white"/>
<path d="M61.3005 36.4567C60.403 35.9234 59.5104 35.3825 58.6185 34.8401C58.3643 34.6892 58.1101 34.5383 57.8482 34.3828C57.6046 34.2336 57.3609 34.0844 57.1099 33.9308C56.8851 33.7953 56.6604 33.6599 56.4289 33.5203C55.4114 32.6973 55.1072 31.5853 54.7432 30.3642C54.6672 30.1196 54.5911 29.875 54.5128 29.623C54.3564 29.1134 54.2028 28.6029 54.052 28.0915C53.9751 27.8474 53.8982 27.6032 53.8189 27.3517C53.7186 27.0195 53.7186 27.0195 53.6162 26.6806C52.862 25.2218 51.1571 24.6186 49.742 23.93C49.3117 23.7163 48.8816 23.5026 48.4514 23.2887C47.7791 22.9562 47.1064 22.6248 46.4325 22.2956C45.7779 21.9751 45.1255 21.6503 44.4734 21.3249C44.2741 21.229 44.0748 21.133 43.8695 21.0342C42.5736 20.3832 41.3686 19.6251 40.5292 18.4128C40.2712 16.8596 40.8621 15.4279 41.7245 14.1532C42.5159 13.2004 43.2146 12.3958 44.4515 12.1072C46.9249 12.5948 49.3854 14.1734 51.6166 15.2916C52.3051 15.6361 52.9953 15.9768 53.6857 16.3174C58.5964 18.7567 60.4306 20.3105 62.1807 25.5247C62.7684 27.2897 62.7684 27.2897 63.4894 29.0023C64.078 30.3328 64.371 31.2255 63.8444 32.6081C63.1862 34.0597 62.4582 35.3507 61.3005 36.4567Z" fill="white"/>
<path d="M36.4126 61.3452C35.9153 61.7853 35.4227 62.1595 34.8786 62.5387C34.6526 62.6996 34.4266 62.8604 34.1938 63.0261C32.9376 63.7939 31.9066 64.396 30.4061 64.1225C29.244 63.8218 28.1355 63.389 27.0208 62.9485C26.6327 62.806 26.2441 62.6648 25.8552 62.5247C24.8252 62.1499 23.8033 61.7576 22.7843 61.3542C22.6249 61.2916 22.4655 61.2289 22.3014 61.1644C18.34 59.5986 16.886 54.9344 15.1122 51.3424C14.75 50.6111 14.3831 49.8823 14.0161 49.1534C13.7839 48.6849 13.5521 48.2162 13.3206 47.7474C13.2111 47.5317 13.1016 47.316 12.9888 47.0937C12.3961 45.8776 12.0705 45.0015 12.234 43.6443C13.1878 42.0531 14.9602 41.1531 16.6652 40.5751C17.5703 40.3935 17.5703 40.3935 18.3687 40.5739C19.8119 41.6609 20.5868 43.0854 21.3492 44.6851C21.461 44.9112 21.5729 45.1374 21.6881 45.3704C22.042 46.0866 22.3916 46.8048 22.7401 47.5236C23.2015 48.4738 23.6671 49.4218 24.135 50.3688C24.2389 50.5863 24.3428 50.8038 24.4498 51.0279C24.9933 52.1281 25.4013 52.9408 26.5372 53.5155C27.1977 53.7492 27.1977 53.7492 27.9051 53.9072C32.923 55.2411 32.923 55.2411 34.2537 57.5244C34.513 58.0048 34.7543 58.4873 34.9825 58.9833C35.3882 59.8138 35.902 60.5762 36.4126 61.3452Z" fill="white"/>
</svg>
