<svg width="279" height="683" viewBox="0 0 279 683" fill="none" xmlns="http://www.w3.org/2000/svg">
<mask id="mask0_853_476" style="mask-type:alpha" maskUnits="userSpaceOnUse" x="47" y="15" width="185" height="621">
<rect x="137.751" y="15" width="3.59445" height="566.127" fill="white"/>
<path d="M180.296 635.912C181.404 635.635 182.373 635.058 183.112 634.181C183.712 633.534 184.612 630.995 188.352 619.8C192.622 606.965 192.876 606.112 192.876 604.472C192.876 603.503 192.714 602.164 192.507 601.495C192.299 600.802 190.129 596.232 187.659 591.315L183.204 582.382L178.934 580.951C176.579 580.166 174.363 579.566 174.017 579.612L173.371 579.681L172.425 584.344C171.893 586.906 171.293 589.63 171.086 590.392L170.693 591.777L173.948 598.263L177.202 604.773L173.279 616.568C170.624 624.508 169.331 628.71 169.331 629.379C169.331 631.203 170.416 632.957 172.101 633.811C173.163 634.342 177.756 635.819 178.795 635.958C179.234 636.027 179.903 636.004 180.296 635.912Z" fill="white"/>
<path d="M100.082 635.958C100.982 635.819 105.645 634.25 106.545 633.811C108.231 632.957 109.315 631.203 109.315 629.379C109.315 628.71 108.022 624.508 105.368 616.568L101.444 604.773L104.699 598.263L107.953 591.777L107.561 590.392C107.353 589.63 106.753 586.906 106.222 584.344L105.276 579.681L104.629 579.612C104.283 579.566 102.067 580.166 99.7125 580.951L95.4423 582.382L90.9873 591.315C88.5174 596.232 86.3476 600.802 86.1398 601.494C85.9321 602.164 85.7705 603.503 85.7705 604.472C85.7705 606.111 86.0244 606.965 90.2948 619.8C95.1422 634.388 95.1885 634.48 97.058 635.404C98.0047 635.888 99.2282 636.096 100.082 635.958Z" fill="white"/>
<path d="M143.733 604.842C149.088 603.78 153.52 600.918 156.936 596.301C158.39 594.362 160.191 590.807 160.999 588.337C161.345 587.252 164.946 570.078 164.946 569.478C164.946 569.432 167.624 569.409 170.878 569.409H176.834L186.344 572.572L195.877 575.757L204.303 588.384C211.712 599.486 212.843 601.079 213.697 601.587C216.144 602.972 217.391 602.741 221.361 600.11C223.831 598.494 224.593 597.847 225.031 597.063C225.77 595.793 225.978 594.431 225.654 593.185C225.493 592.585 222.007 587.137 216.167 578.388C206.288 563.569 206.103 563.315 203.38 562.138C202.733 561.861 197.378 559.945 191.445 557.844L180.642 554.059L194.1 553.943C202.918 553.851 207.765 553.736 208.227 553.574C209.519 553.113 210.997 552.281 212.012 551.451C213.328 550.388 231.31 523.474 231.564 522.204C231.795 520.981 231.541 519.688 230.871 518.534C230.133 517.241 225.239 513.848 223.508 513.386C222.146 513.04 220.53 513.317 219.376 514.079C218.845 514.425 216.144 518.303 210.651 526.521L202.687 538.454L195.115 538.478H187.568L188.675 536.7C202.987 513.871 207.373 506.738 207.857 505.584L208.458 504.199L208.527 490.349C208.573 480.447 208.527 476.222 208.319 475.553C207.996 474.307 206.934 473.037 205.734 472.391C204.833 471.929 204.441 471.883 200.955 471.883C197.424 471.883 197.078 471.929 196.039 472.437C195.439 472.714 194.677 473.314 194.354 473.753C193.13 475.322 193.107 475.715 193.107 488.641V500.575L181.404 519.296C174.964 529.591 169.655 537.97 169.609 537.9C169.562 537.855 169.632 535.639 169.793 533.007C170.209 526.336 170.001 520.634 169.262 517.472C166.677 506.508 159.037 497.621 149.065 494.066C143.04 491.919 135.584 491.919 129.583 494.066C125.358 495.589 121.665 497.944 118.434 501.198C113.355 506.3 110.285 512.232 109.061 519.273C108.554 522.343 108.485 527.305 108.877 533.399C109.016 535.546 109.085 537.462 109.039 537.67C108.992 537.9 103.845 529.891 97.2429 519.318L85.5399 500.575V488.641C85.5399 475.715 85.5168 475.322 84.2934 473.753C83.9703 473.314 83.2085 472.714 82.6084 472.437C81.5927 471.929 81.2234 471.883 77.9225 471.883C75.014 471.883 74.1369 471.952 73.2597 472.298C71.9209 472.806 70.6975 474.168 70.3281 475.53C70.1204 476.222 70.0742 480.308 70.1204 490.349L70.1896 504.199L70.7898 505.584C71.2746 506.738 75.6603 513.871 89.9719 536.7L91.0799 538.478H83.5317L75.9604 538.454L68.1122 526.659C59.756 514.079 59.5252 513.802 57.3785 513.34C55.6473 512.971 54.4469 513.409 51.1922 515.602C49.0224 517.08 48.2376 517.749 47.7759 518.534C47.1065 519.688 46.8526 520.98 47.0834 522.204C47.3373 523.474 65.3191 550.388 66.6348 551.45C67.9736 552.535 69.6587 553.366 71.1822 553.69C71.9901 553.851 76.6529 553.943 85.2629 553.943L98.1204 553.966L87.0403 557.891C80.9464 560.037 75.4295 562.046 74.8062 562.369C72.4748 563.5 71.9901 564.123 62.7107 578.042C57.794 585.429 53.5698 591.823 53.3389 592.261C52.6926 593.485 52.7619 595.378 53.4543 596.786C53.9622 597.778 54.4238 598.17 57.0322 599.948C60.2639 602.118 61.3026 602.533 62.8953 602.326C65.296 602.003 65.1806 602.141 74.3446 588.383L82.7699 575.757L92.3032 572.572L101.814 569.409H107.769C111.024 569.409 113.701 569.432 113.701 569.478C113.701 570.078 117.302 587.252 117.649 588.337C119.057 592.585 121.18 596.07 124.181 599.094C128.428 603.318 133.161 605.211 139.439 605.165C140.963 605.142 142.901 605.003 143.733 604.842Z" fill="white"/>
</mask>
<g mask="url(#mask0_853_476)">
<g filter="url(#filter0_f_853_476)">
<rect x="14" y="93" width="294" height="748" fill="white"/>
</g>
</g>
<defs>
<filter id="filter0_f_853_476" x="-79.4" y="-0.400002" width="480.8" height="934.8" filterUnits="userSpaceOnUse" color-interpolation-filters="sRGB">
<feFlood flood-opacity="0" result="BackgroundImageFix"/>
<feBlend mode="normal" in="SourceGraphic" in2="BackgroundImageFix" result="shape"/>
<feGaussianBlur stdDeviation="46.7" result="effect1_foregroundBlur_853_476"/>
</filter>
</defs>
</svg>
