<svg width="837" height="227" viewBox="0 0 837 227" fill="none" xmlns="http://www.w3.org/2000/svg">
<g style="mix-blend-mode:screen" opacity="0.71" filter="url(#filter0_d_734_795)">
<g style="mix-blend-mode:screen">
<path d="M101 109.5H736" stroke="url(#paint0_linear_734_795)" stroke-linecap="round"/>
</g>
<g filter="url(#filter1_d_734_795)">
<path d="M348.648 122.288C347.069 122.288 345.746 122.037 344.68 121.536C343.613 121.035 342.808 120.277 342.264 119.264C341.72 118.24 341.448 116.965 341.448 115.44C341.448 115.195 341.448 114.997 341.448 114.848C341.448 114.688 341.448 114.485 341.448 114.24H342.696C342.696 114.485 342.696 114.683 342.696 114.832C342.696 114.981 342.696 115.179 342.696 115.424C342.696 117.408 343.202 118.864 344.216 119.792C345.229 120.709 346.685 121.168 348.584 121.168C350.578 121.168 352.072 120.763 353.064 119.952C354.066 119.131 354.568 117.941 354.568 116.384C354.568 115.296 354.317 114.405 353.816 113.712C353.325 113.008 352.632 112.416 351.736 111.936C350.85 111.456 349.8 111.013 348.584 110.608C347.197 110.149 345.981 109.627 344.936 109.04C343.89 108.443 343.08 107.723 342.504 106.88C341.928 106.027 341.64 104.965 341.64 103.696C341.64 102.491 341.912 101.477 342.456 100.656C343.01 99.8347 343.794 99.216 344.808 98.8C345.832 98.3733 347.048 98.16 348.456 98.16C349.96 98.16 351.245 98.3947 352.312 98.864C353.378 99.3227 354.194 100.032 354.76 100.992C355.336 101.941 355.624 103.152 355.624 104.624C355.624 104.901 355.624 105.131 355.624 105.312C355.624 105.483 355.624 105.707 355.624 105.984H354.376C354.376 105.717 354.376 105.499 354.376 105.328C354.376 105.147 354.376 104.923 354.376 104.656C354.376 102.757 353.858 101.387 352.824 100.544C351.8 99.7013 350.354 99.28 348.488 99.28C346.706 99.28 345.325 99.648 344.344 100.384C343.362 101.12 342.872 102.224 342.872 103.696C342.872 104.795 343.144 105.707 343.688 106.432C344.242 107.147 345 107.749 345.96 108.24C346.92 108.72 348.013 109.168 349.24 109.584C350.626 110.043 351.805 110.555 352.776 111.12C353.757 111.685 354.504 112.379 355.016 113.2C355.538 114.021 355.8 115.067 355.8 116.336C355.8 117.584 355.522 118.651 354.968 119.536C354.424 120.421 353.618 121.104 352.552 121.584C351.496 122.053 350.194 122.288 348.648 122.288ZM372.859 122V115.488C372.859 115.147 372.859 114.757 372.859 114.32C372.859 113.883 372.859 113.445 372.859 113.008C372.859 112.56 372.859 112.16 372.859 111.808C372.859 109.952 372.437 108.512 371.595 107.488C370.752 106.464 369.483 105.952 367.787 105.952C366.645 105.952 365.621 106.203 364.715 106.704C363.808 107.195 363.093 107.845 362.571 108.656C362.048 109.456 361.786 110.315 361.786 111.232L360.891 110.992C360.891 109.915 361.189 108.907 361.786 107.968C362.384 107.019 363.216 106.251 364.283 105.664C365.349 105.077 366.576 104.784 367.963 104.784C369.979 104.784 371.504 105.403 372.539 106.64C373.573 107.867 374.09 109.563 374.09 111.728C374.09 112.293 374.09 112.933 374.09 113.648C374.09 114.352 374.09 115.04 374.09 115.712V122H372.859ZM360.571 122V96.992H361.786V122H360.571ZM387.37 122.288C385.748 122.288 384.314 121.904 383.066 121.136C381.818 120.357 380.836 119.307 380.122 117.984C379.418 116.651 379.066 115.147 379.066 113.472C379.066 111.797 379.418 110.309 380.122 109.008C380.836 107.696 381.818 106.667 383.066 105.92C384.314 105.163 385.748 104.784 387.37 104.784C388.991 104.784 390.426 105.163 391.674 105.92C392.922 106.667 393.898 107.696 394.602 109.008C395.316 110.309 395.674 111.797 395.674 113.472C395.674 115.147 395.316 116.651 394.602 117.984C393.898 119.307 392.922 120.357 391.674 121.136C390.426 121.904 388.991 122.288 387.37 122.288ZM387.37 121.152C388.746 121.152 389.962 120.816 391.018 120.144C392.084 119.472 392.922 118.56 393.53 117.408C394.138 116.245 394.442 114.933 394.442 113.472C394.442 112.021 394.138 110.725 393.53 109.584C392.922 108.443 392.084 107.547 391.018 106.896C389.962 106.245 388.746 105.92 387.37 105.92C385.994 105.92 384.772 106.245 383.706 106.896C382.65 107.547 381.818 108.443 381.21 109.584C380.602 110.725 380.298 112.021 380.298 113.472C380.298 114.933 380.602 116.245 381.21 117.408C381.818 118.56 382.65 119.472 383.706 120.144C384.772 120.816 385.994 121.152 387.37 121.152ZM413.634 122L408.514 105.008H409.65L414.578 121.264H414.322L417.97 105.008H419.266L415.266 122H413.634ZM402.722 122L398.69 105.008H399.986L403.666 121.264H403.41L408.29 105.008H409.426L404.354 122H402.722ZM430.62 122.288C429.148 122.288 427.777 121.947 426.508 121.264C425.238 120.581 424.22 119.584 423.452 118.272C422.694 116.96 422.316 115.376 422.316 113.52C422.316 111.653 422.694 110.069 423.452 108.768C424.22 107.467 425.238 106.48 426.508 105.808C427.777 105.125 429.148 104.784 430.62 104.784C431.772 104.784 432.801 104.965 433.708 105.328C434.614 105.68 435.382 106.144 436.012 106.72C436.641 107.296 437.121 107.925 437.451 108.608C437.793 109.28 437.964 109.931 437.964 110.56C437.964 110.571 437.964 110.587 437.964 110.608C437.964 110.629 437.964 110.651 437.964 110.672H436.732C436.732 110.619 436.726 110.56 436.715 110.496C436.715 110.421 436.71 110.352 436.7 110.288C436.582 109.456 436.246 108.715 435.692 108.064C435.137 107.403 434.422 106.88 433.548 106.496C432.673 106.112 431.697 105.92 430.62 105.92C429.393 105.92 428.241 106.208 427.164 106.784C426.097 107.349 425.228 108.197 424.556 109.328C423.894 110.459 423.564 111.856 423.564 113.52C423.564 115.184 423.894 116.581 424.556 117.712C425.217 118.843 426.086 119.701 427.164 120.288C428.241 120.864 429.393 121.152 430.62 121.152C431.996 121.152 433.132 120.917 434.028 120.448C434.924 119.979 435.59 119.387 436.028 118.672C436.476 117.957 436.71 117.232 436.732 116.496H437.964C437.964 117.168 437.809 117.845 437.5 118.528C437.19 119.2 436.726 119.824 436.108 120.4C435.489 120.965 434.721 121.424 433.804 121.776C432.897 122.117 431.836 122.288 430.62 122.288ZM448.815 122.288C447.481 122.288 446.329 122.096 445.359 121.712C444.399 121.328 443.657 120.768 443.135 120.032C442.612 119.285 442.351 118.379 442.351 117.312C442.351 116.256 442.617 115.381 443.151 114.688C443.684 113.995 444.457 113.451 445.471 113.056C446.484 112.661 447.705 112.395 449.135 112.256C451.375 112.032 452.996 111.792 453.999 111.536C455.001 111.28 455.503 110.88 455.503 110.336C455.503 110.261 455.503 110.192 455.503 110.128C455.503 110.053 455.503 109.984 455.503 109.92C455.503 108.704 455.007 107.733 454.015 107.008C453.023 106.283 451.625 105.92 449.823 105.92C447.956 105.92 446.495 106.325 445.439 107.136C444.383 107.936 443.855 109.077 443.855 110.56H442.623C442.623 109.355 442.916 108.325 443.503 107.472C444.1 106.608 444.937 105.947 446.015 105.488C447.103 105.019 448.372 104.784 449.823 104.784C451.145 104.784 452.324 104.987 453.359 105.392C454.404 105.797 455.225 106.389 455.823 107.168C456.431 107.936 456.735 108.869 456.735 109.968C456.735 110.181 456.735 110.4 456.735 110.624C456.735 110.848 456.735 111.067 456.735 111.28V119.184C456.735 119.525 456.751 119.856 456.783 120.176C456.815 120.485 456.868 120.757 456.943 120.992C457.028 121.269 457.113 121.493 457.199 121.664C457.295 121.824 457.369 121.936 457.423 122H456.191C456.137 121.957 456.068 121.856 455.983 121.696C455.897 121.525 455.817 121.312 455.743 121.056C455.647 120.747 455.583 120.421 455.551 120.08C455.519 119.728 455.503 119.264 455.503 118.688L455.695 118.864C455.364 119.547 454.863 120.149 454.191 120.672C453.519 121.184 452.724 121.584 451.807 121.872C450.889 122.149 449.892 122.288 448.815 122.288ZM448.991 121.168C450.196 121.168 451.289 120.96 452.271 120.544C453.252 120.128 454.036 119.541 454.623 118.784C455.209 118.016 455.503 117.12 455.503 116.096V111.504L455.743 111.968C455.199 112.32 454.361 112.597 453.231 112.8C452.111 113.003 450.857 113.173 449.47 113.312C447.561 113.493 446.1 113.883 445.087 114.48C444.084 115.067 443.583 116 443.583 117.28C443.583 118.517 444.047 119.477 444.975 120.16C445.903 120.832 447.241 121.168 448.991 121.168ZM468.097 122.288C467.063 122.288 466.14 122.187 465.329 121.984C464.519 121.771 463.825 121.467 463.249 121.072C462.684 120.677 462.247 120.192 461.937 119.616C461.628 119.04 461.452 118.389 461.409 117.664C461.409 117.557 461.409 117.445 461.409 117.328C461.409 117.211 461.409 117.109 461.409 117.024H462.641C462.641 117.109 462.641 117.205 462.641 117.312C462.641 117.419 462.647 117.525 462.657 117.632C462.711 118.752 463.207 119.621 464.145 120.24C465.095 120.859 466.412 121.168 468.097 121.168C469.196 121.168 470.156 121.035 470.977 120.768C471.799 120.491 472.433 120.101 472.881 119.6C473.34 119.088 473.569 118.475 473.569 117.76C473.569 116.587 473.089 115.749 472.129 115.248C471.18 114.736 469.799 114.325 467.985 114.016C467.079 113.845 466.236 113.648 465.457 113.424C464.689 113.189 464.023 112.891 463.457 112.528C462.903 112.165 462.471 111.717 462.161 111.184C461.852 110.651 461.697 110.005 461.697 109.248C461.697 108.288 461.985 107.477 462.561 106.816C463.148 106.155 463.921 105.653 464.881 105.312C465.852 104.96 466.913 104.784 468.065 104.784C469.239 104.784 470.311 104.955 471.281 105.296C472.252 105.627 473.025 106.149 473.601 106.864C474.188 107.568 474.481 108.475 474.481 109.584C474.481 109.637 474.481 109.701 474.481 109.776C474.481 109.84 474.481 109.899 474.481 109.952H473.249C473.249 109.899 473.249 109.845 473.249 109.792C473.249 109.728 473.249 109.669 473.249 109.616C473.249 108.699 473.009 107.968 472.529 107.424C472.049 106.88 471.42 106.491 470.641 106.256C469.863 106.021 469.02 105.904 468.113 105.904C467.207 105.904 466.359 106.021 465.569 106.256C464.78 106.491 464.14 106.853 463.649 107.344C463.159 107.835 462.913 108.459 462.913 109.216C462.913 109.995 463.143 110.624 463.601 111.104C464.06 111.573 464.7 111.947 465.521 112.224C466.343 112.501 467.303 112.741 468.401 112.944C469.393 113.125 470.284 113.339 471.073 113.584C471.863 113.829 472.535 114.133 473.089 114.496C473.644 114.848 474.065 115.285 474.353 115.808C474.652 116.331 474.801 116.965 474.801 117.712C474.801 118.448 474.636 119.099 474.305 119.664C473.975 120.229 473.511 120.709 472.913 121.104C472.316 121.488 471.607 121.781 470.785 121.984C469.975 122.187 469.079 122.288 468.097 122.288ZM479.818 114.064V112.96H494.201L493.898 113.248C493.898 113.184 493.898 113.131 493.898 113.088C493.898 113.045 493.898 113.003 493.898 112.96C493.898 111.733 493.636 110.587 493.114 109.52C492.591 108.443 491.839 107.573 490.858 106.912C489.887 106.24 488.719 105.904 487.354 105.904C485.978 105.904 484.756 106.24 483.69 106.912C482.623 107.584 481.786 108.496 481.178 109.648C480.57 110.8 480.266 112.096 480.266 113.536C480.266 115.019 480.57 116.336 481.178 117.488C481.786 118.629 482.623 119.531 483.69 120.192C484.767 120.843 485.988 121.168 487.354 121.168C488.42 121.168 489.343 121.019 490.122 120.72C490.9 120.411 491.546 120.021 492.058 119.552C492.57 119.083 492.959 118.592 493.226 118.08C493.503 117.568 493.663 117.099 493.706 116.672H494.954C494.9 117.248 494.703 117.861 494.362 118.512C494.02 119.163 493.535 119.776 492.906 120.352C492.276 120.917 491.498 121.381 490.57 121.744C489.642 122.107 488.564 122.288 487.338 122.288C485.748 122.288 484.33 121.92 483.082 121.184C481.844 120.437 480.863 119.408 480.138 118.096C479.423 116.784 479.066 115.275 479.066 113.568C479.066 111.851 479.423 110.336 480.138 109.024C480.863 107.701 481.85 106.667 483.098 105.92C484.346 105.163 485.764 104.784 487.354 104.784C488.954 104.784 490.34 105.173 491.514 105.952C492.687 106.72 493.594 107.749 494.234 109.04C494.884 110.331 495.21 111.755 495.21 113.312C495.21 113.419 495.204 113.552 495.194 113.712C495.194 113.872 495.188 113.989 495.178 114.064H479.818Z" fill="white"/>
</g>
</g>
<defs>
<filter id="filter0_d_734_795" x="0.300003" y="-5.2" width="836.4" height="231.688" filterUnits="userSpaceOnUse" color-interpolation-filters="sRGB">
<feFlood flood-opacity="0" result="BackgroundImageFix"/>
<feColorMatrix in="SourceAlpha" type="matrix" values="0 0 0 0 0 0 0 0 0 0 0 0 0 0 0 0 0 0 127 0" result="hardAlpha"/>
<feOffset dy="4"/>
<feGaussianBlur stdDeviation="50.1"/>
<feComposite in2="hardAlpha" operator="out"/>
<feColorMatrix type="matrix" values="0 0 0 0 1 0 0 0 0 1 0 0 0 0 1 0 0 0 0.25 0"/>
<feBlend mode="normal" in2="BackgroundImageFix" result="effect1_dropShadow_734_795"/>
<feBlend mode="normal" in="SourceGraphic" in2="effect1_dropShadow_734_795" result="shape"/>
</filter>
<filter id="filter1_d_734_795" x="292.547" y="52.0922" width="251.563" height="123.096" filterUnits="userSpaceOnUse" color-interpolation-filters="sRGB">
<feFlood flood-opacity="0" result="BackgroundImageFix"/>
<feColorMatrix in="SourceAlpha" type="matrix" values="0 0 0 0 0 0 0 0 0 0 0 0 0 0 0 0 0 0 127 0" result="hardAlpha"/>
<feOffset dy="4"/>
<feGaussianBlur stdDeviation="24.45"/>
<feComposite in2="hardAlpha" operator="out"/>
<feColorMatrix type="matrix" values="0 0 0 0 1 0 0 0 0 1 0 0 0 0 1 0 0 0 0.42 0"/>
<feBlend mode="normal" in2="BackgroundImageFix" result="effect1_dropShadow_734_795"/>
<feBlend mode="normal" in="SourceGraphic" in2="effect1_dropShadow_734_795" result="shape"/>
</filter>
<linearGradient id="paint0_linear_734_795" x1="101" y1="110" x2="736" y2="110" gradientUnits="userSpaceOnUse">
<stop stop-color="white"/>
<stop offset="0.3"/>
<stop offset="0.7"/>
<stop offset="1" stop-color="white"/>
</linearGradient>
</defs>
</svg>
