<svg width="1800" height="678" viewBox="0 0 1800 678" fill="none" xmlns="http://www.w3.org/2000/svg">
<g style="mix-blend-mode:overlay">
<path d="M734.001 513.5L897.501 675.5L1058 513.5L1793.5 510.5L897.501 2.5L5.99999 509L734.001 513.5Z" fill="url(#paint0_radial_734_891)"/>
<path d="M734.001 513.5L897.501 675.5L1058 513.5L1793.5 510.5L897.501 2.5L5.99999 509L734.001 513.5Z" fill="url(#paint1_linear_734_891)" fill-opacity="0.37"/>
<path d="M734.001 513.5L897.501 675.5L1058 513.5L1793.5 510.5L897.501 2.5L5.99999 509L734.001 513.5Z" stroke="url(#paint2_linear_734_891)" stroke-width="3"/>
<path d="M734.001 513.5L897.501 675.5L1058 513.5L1793.5 510.5L897.501 2.5L5.99999 509L734.001 513.5Z" stroke="url(#paint3_linear_734_891)" stroke-opacity="0.2" stroke-width="3"/>
</g>
<defs>
<radialGradient id="paint0_radial_734_891" cx="0" cy="0" r="1" gradientUnits="userSpaceOnUse" gradientTransform="translate(896.5 676) rotate(-90) scale(409.5 405.432)">
<stop stop-color="white"/>
<stop offset="1" stop-color="#737373" stop-opacity="0"/>
</radialGradient>
<linearGradient id="paint1_linear_734_891" x1="827" y1="206.5" x2="974.848" y2="517.605" gradientUnits="userSpaceOnUse">
<stop stop-color="white"/>
<stop offset="1" stop-opacity="0"/>
</linearGradient>
<linearGradient id="paint2_linear_734_891" x1="754" y1="339" x2="916.5" y2="363.5" gradientUnits="userSpaceOnUse">
<stop stop-color="white"/>
<stop offset="1" stop-color="#999999" stop-opacity="0"/>
</linearGradient>
<linearGradient id="paint3_linear_734_891" x1="1250" y1="943" x2="899.75" y2="675.5" gradientUnits="userSpaceOnUse">
<stop stop-color="white" stop-opacity="0"/>
<stop offset="1" stop-color="white"/>
</linearGradient>
</defs>
</svg>
