<svg width="1800" height="678" viewBox="0 0 1800 678" fill="none" xmlns="http://www.w3.org/2000/svg">
<g style="mix-blend-mode:overlay">
<path d="M734.001 513L897.501 675L1058 513L1793.5 510L897.501 2L5.99999 508.5L734.001 513Z" fill="url(#paint0_radial_1146_201)"/>
<path d="M734.001 513L897.501 675L1058 513L1793.5 510L897.501 2L5.99999 508.5L734.001 513Z" fill="url(#paint1_linear_1146_201)" fill-opacity="0.37"/>
<path d="M734.001 513L897.501 675L1058 513L1793.5 510L897.501 2L5.99999 508.5L734.001 513Z" stroke="url(#paint2_linear_1146_201)" stroke-width="3"/>
<path d="M734.001 513L897.501 675L1058 513L1793.5 510L897.501 2L5.99999 508.5L734.001 513Z" stroke="url(#paint3_linear_1146_201)" stroke-opacity="0.2" stroke-width="3"/>
</g>
<defs>
<radialGradient id="paint0_radial_1146_201" cx="0" cy="0" r="1" gradientUnits="userSpaceOnUse" gradientTransform="translate(896.5 675.5) rotate(-90) scale(409.5 405.432)">
<stop stop-color="#00649E"/>
<stop offset="1" stop-color="#737373" stop-opacity="0"/>
</radialGradient>
<linearGradient id="paint1_linear_1146_201" x1="827" y1="206" x2="974.848" y2="517.105" gradientUnits="userSpaceOnUse">
<stop stop-color="#00649E"/>
<stop offset="1" stop-opacity="0"/>
</linearGradient>
<linearGradient id="paint2_linear_1146_201" x1="754" y1="338.5" x2="916.5" y2="363" gradientUnits="userSpaceOnUse">
<stop stop-color="#0083CA"/>
<stop offset="1" stop-color="#999999" stop-opacity="0"/>
</linearGradient>
<linearGradient id="paint3_linear_1146_201" x1="1250" y1="942.5" x2="899.75" y2="675" gradientUnits="userSpaceOnUse">
<stop stop-color="#00649E"/>
<stop offset="1" stop-color="white"/>
</linearGradient>
</defs>
</svg>
