<svg width="1989" height="956" viewBox="0 0 1989 956" fill="none" xmlns="http://www.w3.org/2000/svg">
<mask id="mask0_734_791" style="mask-type:alpha" maskUnits="userSpaceOnUse" x="49" y="49" width="1891" height="858">
<rect x="49" y="49" width="1891" height="858" rx="307" fill="#171717"/>
</mask>
<g mask="url(#mask0_734_791)">
<g style="mix-blend-mode:color-dodge" opacity="0.13" filter="url(#filter0_d_734_791)">
<path d="M1014.62 -655.688C1011.98 -620.733 1007.28 -608.102 989.944 -591.946C976.432 -579.022 947.939 -563.453 922.971 -555.229C901.528 -548.179 895.066 -547.298 852.473 -547.298C799.599 -547.004 784.912 -549.941 757.007 -566.685C736.445 -579.022 730.57 -588.128 722.052 -621.321C718.233 -636.302 714.414 -647.757 713.827 -647.17C712.946 -646.289 715.295 -633.364 718.82 -618.383C722.933 -601.052 724.695 -586.953 723.52 -579.903C714.708 -525.267 640.097 -471.806 556.381 -460.35C531.119 -456.825 515.845 -458 490.876 -464.756C470.021 -470.631 462.677 -477.681 446.521 -505.88C438.884 -519.686 431.247 -530.848 430.072 -530.848C428.603 -530.848 430.072 -526.442 433.303 -521.448C436.828 -516.161 443.584 -503.236 448.578 -492.955C457.096 -475.625 457.977 -472.1 456.802 -453.887C452.396 -392.202 379.254 -320.529 300.238 -300.26C259.114 -289.686 240.021 -294.973 210.059 -324.641C197.428 -336.978 187.147 -346.084 187.147 -344.909C187.147 -343.44 195.959 -332.572 206.828 -320.529C229.74 -295.267 233.558 -286.748 233.852 -260.605C234.733 -189.813 167.173 -100.222 96.6745 -78.485C67.0065 -69.379 58.7817 -70.554 28.5263 -87.5909C15.0134 -95.4285 3.24106 -101.277 0.987518 -101.475C0.725128 -101.499 0.561615 -101.257 0.716293 -101.044C1.75305 -99.6147 9.06163 -94.6013 18.2453 -89.3535C44.9758 -73.7852 56.138 -63.2104 63.7753 -45.5858C92.8558 22.2686 42.6259 149.459 -27.2847 184.12C-49.0217 195.283 -54.6028 195.576 -86.3269 187.058C-100.652 183.411 -113.13 180.689 -116.388 180.528C-116.915 180.502 -117.135 180.876 -116.689 181.16C-114.257 182.705 -103.251 186.497 -89.8518 190.289C-57.2464 199.983 -44.9093 209.089 -32.2784 232.294C-11.4227 270.481 -9.07271 336.866 -26.4035 390.034C-38.4469 427.927 -59.8901 459.651 -82.802 474.044C-95.1392 481.975 -98.3703 482.563 -126.863 482.856L-158 483.444L-126.276 486.088C-107.476 487.556 -90.4393 490.494 -85.1519 493.137C-69.5836 501.362 -48.4342 526.036 -37.8595 548.067C-21.4099 582.729 -17.2975 602.116 -17.0038 648.527C-17.0038 697.582 -22.2911 721.081 -39.3282 746.637C-52.2528 766.024 -60.1839 770.724 -94.8454 779.83C-108.358 783.355 -118.051 786.586 -116.289 787.173C-114.232 788.054 -105.714 786.586 -97.1954 784.236C-88.6768 781.592 -74.871 778.948 -66.6462 777.773C-9.36646 770.43 57.0193 851.503 69.6502 944.619C73.1751 969.881 72.0001 985.155 65.244 1010.12C59.3692 1030.98 52.3194 1038.32 24.1201 1054.48C10.3143 1062.12 -0.847931 1069.46 -0.847931 1070.63C-0.847931 1071.81 11.783 1066.23 27.3513 1058C54.9631 1043.02 55.8443 1043.02 75.8188 1044.2C145.142 1049.19 225.334 1140.25 232.971 1222.5C235.908 1253.64 231.502 1264.8 205.359 1290.94C193.022 1303.57 183.916 1313.85 185.091 1313.85C186.56 1313.85 197.428 1305.04 209.471 1293.88C234.733 1271.26 243.252 1267.44 269.395 1267.15C349.88 1266.27 449.459 1351.16 456.509 1426.65C457.977 1444.27 457.684 1445.45 442.703 1471.89C435.244 1485 429.362 1496.54 428.605 1499.61C428.478 1500.12 428.882 1500.56 429.306 1500.24C430.702 1499.2 433.765 1494.87 436.828 1489.22C460.327 1446.33 480.596 1431.94 521.719 1429.29C596.917 1424.01 688.271 1473.06 716.764 1533.87L724.977 1551.39C725.365 1552.21 725.458 1553.15 725.24 1554.04L717.645 1584.98C713.533 1602.6 710.596 1617.88 711.183 1618.46C712.064 1619.34 714.121 1614.06 715.883 1607.3C724.989 1571.46 731.158 1557.95 742.32 1547.67C766.994 1525.35 796.368 1516.24 843.661 1516.24C913.865 1515.95 978.489 1543.27 1004.04 1583.8C1011.98 1596.14 1012.56 1599.37 1012.86 1627.86L1013.44 1659L1016.09 1626.69C1019.02 1592.03 1024.02 1578.81 1041.06 1562.95C1054.57 1550.02 1083.06 1534.45 1108.03 1526.23C1129.47 1519.18 1135.93 1518.3 1178.53 1518.3C1231.4 1518 1246.09 1520.94 1273.99 1537.68C1294.56 1550.02 1300.43 1559.13 1308.95 1592.32C1312.77 1607.3 1316.59 1618.76 1317.17 1618.17C1318.05 1617.29 1315.7 1604.36 1312.18 1589.38C1308.07 1572.05 1306.3 1557.95 1307.48 1550.9C1313.65 1512.42 1356.24 1470.42 1412.05 1447.8C1458.17 1429 1512.81 1424.59 1544.82 1436.93C1563.92 1444.27 1570.09 1451.03 1586.83 1480.7C1593.29 1492.45 1599.75 1501.85 1600.93 1501.85C1602.4 1501.85 1600.93 1497.44 1597.7 1492.15C1594.17 1487.16 1587.42 1474.24 1582.42 1463.96C1573.9 1446.62 1573.02 1443.1 1574.2 1424.89C1580.37 1342.35 1705.21 1250.99 1786.28 1269.79C1794.8 1271.55 1803.61 1278.02 1820.94 1295.35C1833.57 1307.68 1843.85 1317.08 1843.85 1315.91C1843.85 1314.44 1835.04 1303.57 1824.17 1291.53C1801.26 1266.27 1797.44 1257.75 1797.15 1231.61C1796.56 1161.4 1861.18 1074.75 1932.86 1049.48C1960.17 1039.79 1972.22 1041.26 2002.47 1058.59C2015.99 1066.43 2027.76 1072.28 2030.01 1072.48C2030.27 1072.5 2030.45 1072.26 2030.3 1072.04C2029.37 1070.69 2022.9 1066.19 2014.81 1061.23C1986.32 1044.49 1975.74 1034.5 1968.11 1017.76C1937.26 951.081 1987.79 821.835 2058.28 786.879C2080.02 775.717 2085.6 775.424 2117.33 783.942C2133.48 788.054 2147.58 790.992 2148.46 790.111C2149.34 789.229 2144.06 786.879 2137.3 785.117C2101.46 776.011 2087.95 769.842 2077.67 758.68C2055.35 734.006 2046.24 704.632 2046.24 657.339C2045.95 587.722 2073.85 521.337 2113.51 496.662C2122.61 491.081 2129.96 489.612 2156.69 488.144L2189 486.381L2158.45 486.088C2121.44 485.5 2108.81 480.506 2089.13 458.476C2043.01 407.071 2029.5 301.617 2060.93 237.288C2073.85 211.145 2082.37 204.389 2112.92 195.87C2142.24 188.126 2147.08 186.372 2146.07 184.722C2145.93 184.497 2145.74 184.291 2145.48 184.22C2143.85 183.763 2137.15 184.928 2129.96 187.058C2102.64 194.989 2084.13 195.576 2067.39 189.114C2033.02 176.189 2004.53 145.347 1982.21 97.1729C1966.34 62.8051 1960.47 37.5432 1960.47 2.29407C1960.47 -20.9115 1961.94 -30.605 1966.93 -43.8234C1974.27 -62.9166 1981.03 -69.0852 2010.7 -85.8285C2022.45 -92.2909 2031.85 -98.7532 2031.85 -99.9282C2031.85 -101.397 2027.44 -99.9282 2022.45 -96.697C2017.16 -93.1721 2004.24 -86.416 1993.96 -81.4224C1976.62 -72.9039 1973.1 -72.0227 1954.89 -73.1976C1905.83 -76.7225 1849.43 -123.427 1818.59 -185.701C1798.62 -226.531 1793.04 -256.493 1799.79 -285.28C1801.55 -293.798 1808.02 -302.61 1825.35 -319.941C1837.68 -332.572 1847.08 -342.853 1845.91 -342.853C1844.44 -342.853 1833.57 -334.041 1821.53 -323.172C1796.27 -300.26 1787.75 -296.442 1761.61 -296.148C1691.4 -295.56 1604.75 -360.184 1579.48 -431.857C1569.79 -459.469 1571.26 -471.806 1588.59 -501.768C1597.11 -516.161 1603.28 -528.498 1602.4 -529.379C1601.81 -529.967 1596.82 -522.917 1591.23 -513.811C1585.95 -504.705 1577.43 -491.78 1572.44 -485.612C1567.44 -479.149 1563.33 -472.393 1563.04 -470.631C1561.86 -463.581 1490.19 -341.384 1484.31 -336.391C1474.62 -328.166 1442.6 -319.354 1422.63 -319.354C1400.6 -319.354 1365.35 -327.872 1345.37 -338.153C1308.95 -356.365 1278.4 -388.089 1269.29 -417.463L1264.93 -431.643C1264.71 -432.359 1264.7 -433.122 1264.89 -433.845L1282.51 -500.299C1292.5 -537.31 1301.31 -569.328 1302.19 -571.678C1303.07 -574.322 1307.19 -568.153 1312.47 -557.285C1329.8 -520.861 1376.8 -484.437 1432.03 -465.344C1455.23 -457.119 1461.11 -456.238 1495.77 -456.238C1529.55 -455.944 1535.72 -456.825 1548.35 -462.7C1556.28 -466.225 1562.15 -469.75 1561.27 -470.631C1560.39 -471.512 1553.64 -469.456 1545.7 -465.931C1491.36 -441.844 1387.08 -473.274 1336.85 -528.792C1323.34 -543.773 1306.3 -574.615 1306.3 -584.309C1306.3 -586.953 1309.83 -601.934 1313.94 -617.502C1317.77 -631.99 1320.32 -644.697 1319.95 -647.101C1319.91 -647.361 1319.69 -647.64 1319.47 -647.485C1318.59 -646.842 1316.63 -642.116 1315.12 -636.302C1306.01 -600.465 1299.84 -586.953 1288.68 -576.672C1261.66 -552.291 1232.28 -544.36 1177.06 -546.123C1142.1 -547.298 1134.17 -548.766 1109.5 -556.991C1069.25 -570.503 1043.11 -588.128 1027.84 -611.04C1020.79 -621.614 1019.61 -626.314 1018.44 -655.395L1016.97 -688L1014.62 -655.688ZM1048.69 -583.428C1115.67 -533.785 1229.64 -526.148 1283.98 -567.859C1291.32 -573.441 1297.49 -577.553 1297.49 -576.672C1297.49 -575.791 1288.97 -543.185 1278.4 -503.824C1257.25 -425.395 1256.37 -423.632 1229.34 -408.945C1208.19 -397.489 1188.22 -392.789 1157.96 -392.789C1113.32 -392.789 1071.9 -407.476 1044.58 -433.032C1018.44 -457.412 1018.44 -458 1018.44 -542.891V-604.674C1018.44 -608.542 1023.38 -610.158 1025.67 -607.036L1027.25 -604.871C1032.24 -598.115 1041.64 -588.421 1048.69 -583.428ZM1008.45 -455.062C1001.4 -441.55 977.313 -420.107 958.22 -410.708C934.133 -398.664 907.403 -392.789 877.441 -392.789C836.905 -392.789 801.362 -405.126 780.8 -426.276C771.694 -435.676 772.281 -433.913 736.445 -568.447C735.581 -571.614 739.213 -574.081 741.839 -572.112L743.201 -571.091C771.4 -549.647 801.949 -541.423 851.004 -541.716C890.953 -542.01 920.034 -547.885 950.583 -561.691C972.614 -571.972 995.819 -589.89 1004.04 -603.402C1006.12 -606.69 1011.2 -605.251 1011.25 -601.363L1011.98 -538.779C1012.56 -478.268 1011.98 -461.525 1008.45 -455.062ZM748.195 -504.411C757.888 -468.281 765.819 -434.207 765.819 -429.213C765.819 -414.526 749.663 -386.327 731.158 -368.702C699.433 -338.447 655.666 -321.116 610.136 -321.116C583.699 -320.822 580.762 -321.41 561.668 -331.103L542.188 -340.844C541.483 -341.196 540.897 -341.749 540.506 -342.433L505.27 -403.951C485.295 -438.613 469.14 -467.106 469.14 -467.693C469.14 -468.281 476.189 -465.931 484.708 -462.406C497.339 -457.119 505.857 -456.238 533.763 -456.238C573.712 -456.238 593.98 -461.231 632.166 -479.149C677.99 -500.886 707.071 -527.617 722.052 -561.985C725.167 -568.993 728.281 -573.937 729.167 -573.776C729.449 -573.725 729.44 -573.325 729.526 -573.051C730.77 -569.093 738.948 -539.157 748.195 -504.411ZM503.801 -396.608C526.419 -357.246 539.638 -331.397 539.638 -326.11C539.638 -311.129 530.825 -282.93 521.132 -267.068C509.382 -247.387 478.246 -217.425 457.096 -205.382C432.716 -191.576 407.454 -184.232 384.836 -184.232C350.468 -184.232 349.293 -185.113 292.013 -242.393L247.266 -287.14C244.69 -289.716 246.619 -294.114 250.259 -293.965L261.464 -293.504C346.649 -289.098 456.802 -377.515 460.621 -453.006C461.208 -463.287 462.09 -465.637 464.733 -462.7C466.79 -460.644 484.414 -430.976 503.801 -396.608ZM1584.48 -410.708C1593 -393.377 1601.52 -382.214 1623.55 -360.184C1654.39 -328.753 1681.12 -311.422 1715.19 -299.967C1736.93 -292.329 1769.83 -289.686 1785.1 -294.092C1789.8 -295.56 1772.47 -276.467 1736.64 -240.631L1681.78 -185.774C1681.16 -185.155 1680.36 -184.756 1679.49 -184.638L1663.5 -182.47C1589.77 -173.657 1499.88 -246.212 1495.18 -318.472L1494.08 -337.243C1494.03 -338.028 1494.22 -338.809 1494.61 -339.489L1531.6 -403.07L1563.18 -457.348C1565.12 -460.667 1570.16 -459.622 1570.61 -455.807L1571.26 -450.363C1572.73 -440.082 1578.02 -424.219 1584.48 -410.708ZM1046.64 -425.395C1098.34 -382.508 1189.69 -376.34 1241.68 -412.176C1253.43 -420.107 1256.66 -421.282 1255.19 -417.17C1254.31 -414.232 1245.79 -382.508 1235.81 -346.378C1226.11 -310.248 1216.42 -278.23 1214.36 -275.292C1198.8 -252.968 1160.31 -242.687 1118.31 -249.149C1077.77 -255.318 1042.23 -272.649 1026.96 -293.798L1019.2 -304.497C1018.7 -305.18 1018.44 -306.002 1018.44 -306.845V-381.921V-445.962C1018.44 -449.839 1023.4 -451.448 1025.68 -448.31L1026.96 -446.544C1031.66 -440.082 1040.47 -430.682 1046.64 -425.395ZM1012.56 -307.016C1012.56 -142.815 1013.74 -151.921 986.713 -134.59C948.233 -109.915 886.547 -110.797 859.523 -136.646C848.948 -146.927 847.773 -150.452 833.38 -204.794C825.155 -236.224 817.518 -264.718 816.637 -267.655C815.168 -272.649 816.343 -272.355 824.274 -265.599C838.961 -253.555 867.454 -245.918 899.766 -245.918C932.077 -245.918 952.345 -249.737 973.789 -259.724C989.063 -266.774 1009.63 -284.398 1009.63 -289.979C1009.63 -291.742 1004.34 -287.629 997.582 -280.873C976.726 -260.018 942.358 -248.855 899.472 -248.855C860.698 -248.855 822.511 -263.836 814.287 -282.048C811.937 -287.336 802.537 -319.354 793.725 -353.134C784.619 -387.208 776.688 -417.17 775.806 -420.401C774.338 -424.513 777.275 -423.338 787.85 -415.407C845.423 -371.346 952.345 -382.802 999.638 -437.732C1004.27 -443.461 1008.56 -448.199 1010.54 -450.332C1011.27 -451.109 1011.79 -450.957 1011.84 -449.897C1012.32 -439.348 1012.56 -379.225 1012.56 -307.016ZM806.943 -275.292C806.649 -243.274 769.932 -209.788 717.058 -194.219C706.483 -190.988 689.446 -188.932 673.29 -188.932C650.378 -188.638 645.091 -189.52 633.929 -195.982C622.179 -202.738 617.479 -209.2 583.405 -268.536L552.369 -322.544C550.425 -325.927 553.978 -329.806 557.517 -328.167L561.962 -326.11C611.604 -303.491 690.621 -322.879 736.445 -368.996C749.076 -381.627 758.476 -394.258 762.882 -404.833L765.643 -411.128C767.162 -414.592 772.194 -414.208 773.171 -410.554L788.437 -353.428C798.718 -316.122 806.943 -280.873 806.943 -275.292ZM1297.2 -368.996C1321.58 -344.615 1348.9 -329.047 1381.21 -320.822C1406.47 -314.36 1443.78 -314.948 1464.04 -322.291C1473.44 -325.522 1481.08 -328.166 1481.67 -328.166C1484.61 -328.166 1412.05 -207.144 1404.71 -199.801C1382.09 -178.064 1343.61 -179.239 1294.56 -202.444C1263.71 -217.425 1232.58 -246.212 1226.7 -265.892C1223.18 -277.936 1224.06 -282.048 1241.68 -348.14C1251.67 -386.327 1260.77 -418.932 1261.66 -420.401C1262.54 -421.87 1265.77 -415.995 1269 -407.182C1273.41 -395.139 1280.46 -385.739 1297.2 -368.996ZM1503.99 -274.705C1517.8 -247.093 1536.3 -226.237 1563.33 -208.025C1596.23 -185.995 1613.56 -180.414 1647.63 -180.12L1666.9 -179.923C1670.44 -179.887 1672.19 -175.601 1669.69 -173.095L1624.13 -127.54C1589.18 -92.5846 1568.91 -74.3726 1562.15 -72.3164C1556.57 -70.554 1544.53 -69.6727 1535.13 -70.554C1483.14 -75.2538 1414.99 -141.346 1414.99 -187.463C1414.99 -200.094 1418.81 -208.025 1452.59 -266.186L1483.69 -320.3C1485.62 -323.672 1490.75 -322.575 1491.13 -318.705L1491.66 -313.479C1492.83 -301.729 1496.94 -288.511 1503.99 -274.705ZM581.055 -262.955C622.473 -190.694 624.529 -183.938 612.192 -156.914C591.336 -111.09 524.657 -69.6727 477.658 -73.1976L461.533 -74.2726C460.566 -74.337 459.656 -74.7502 458.971 -75.4353L405.398 -129.009L359.923 -174.484C357.14 -177.266 359.626 -181.972 363.493 -181.243L366.33 -180.707C376.904 -178.945 388.067 -178.945 400.991 -181.295C468.552 -193.044 529.357 -247.974 540.813 -308.191C542.575 -317.591 544.044 -325.228 544.338 -325.228C544.631 -325.228 561.081 -297.029 581.055 -262.955ZM1059.56 -263.543C1110.38 -237.987 1174.12 -236.812 1204.67 -261.193C1213.48 -268.242 1215.54 -269.124 1214.07 -264.718C1213.19 -261.486 1205.84 -234.168 1197.62 -203.325C1189.4 -172.776 1180.29 -144.283 1177.65 -140.171C1174.71 -136.058 1165.9 -129.596 1157.67 -125.484C1145.04 -119.021 1139.46 -118.14 1112.43 -118.14C1083.65 -118.14 1080.12 -118.728 1061.32 -127.834C1050.46 -132.827 1036.65 -142.227 1031.36 -148.102C1025.78 -153.977 1021.37 -157.502 1021.37 -156.033C1021.37 -149.864 1043.99 -131.359 1061.03 -123.721C1092.75 -109.034 1143.57 -110.503 1168.54 -126.952L1170.38 -128.127C1173.46 -130.097 1177.35 -127.235 1176.39 -123.705L1162.96 -74.3726C1154.15 -42.0609 1145.04 -12.9805 1142.4 -9.74927C1133 0.531616 1115.67 6.99402 1096.57 7.28772C1073.95 7.28772 1058.68 3.17529 1041.35 -7.69312C1017.85 -22.674 1018.44 -16.7992 1018.44 -165.139V-286.785C1018.44 -290.349 1022.75 -292.133 1025.27 -289.613L1030.77 -284.104C1037.53 -277.348 1050.46 -268.242 1059.56 -263.543ZM347.53 -162.495C356.343 -89.3535 284.669 0.237915 212.703 5.81897L194.581 7.46643C193.758 7.54126 192.931 7.35925 192.216 6.94531L127.811 -30.3113L72.6757 -62.2058C69.3501 -64.1295 70.3851 -69.179 74.1994 -69.6394L79.3437 -70.2603C109.599 -74.0789 137.505 -89.9409 169.816 -122.253C200.953 -153.389 218.284 -179.826 230.033 -213.606C237.671 -235.343 240.314 -269.124 235.908 -284.104C234.44 -288.804 254.12 -270.886 289.369 -235.637L344.226 -180.78C344.845 -180.161 345.244 -179.356 345.362 -178.489L347.53 -162.495ZM1794.5 -266.48C1790.69 -183.938 1874.99 -77.8975 1950.78 -70.2603L1957.92 -69.5026C1961.77 -69.0939 1962.85 -63.9929 1959.49 -62.0587L1906.42 -31.4862C1871.46 -11.218 1839.74 6.40649 1835.63 7.87524C1825.35 11.4001 1798.32 6.11279 1777.17 -3.87451C1756.32 -14.1555 1719.31 -49.6982 1706.68 -72.6101C1692.28 -98.1658 1685.23 -122.546 1685.23 -147.221C1685.23 -159.264 1686.7 -172.776 1688.17 -177.476C1689.93 -181.882 1714.9 -209.2 1743.39 -237.987C1762.43 -257.02 1779.23 -273.825 1788.29 -282.885C1790.85 -285.443 1795.19 -283.554 1795.05 -279.939C1794.91 -276.121 1794.73 -271.476 1794.5 -266.48ZM828.68 -203.325C847.479 -132.827 847.479 -129.596 827.799 -107.565C792.843 -67.9103 724.108 -54.1044 695.321 -80.835C688.242 -87.3473 630.944 -182.836 628.661 -191.558C628.552 -191.974 628.857 -192.224 629.284 -192.173C631.021 -191.967 635.792 -190.614 640.979 -188.638C667.709 -179.239 717.352 -186.288 754.363 -204.794C776.1 -215.956 801.656 -240.337 807.237 -255.612C809.293 -261.486 811.349 -265.892 811.643 -265.599C811.937 -265.305 819.574 -237.4 828.68 -203.325ZM1228.46 -254.437C1240.8 -228.587 1287.21 -196.276 1326.87 -185.701C1346.84 -180.414 1374.75 -180.414 1389.43 -185.407C1395.31 -187.757 1400.3 -188.638 1400.3 -187.757C1400.3 -186.876 1386.2 -161.908 1368.87 -131.946C1339.2 -80.5411 1336.85 -77.3101 1324.52 -71.7289C1276.64 -50.8732 1189.1 -96.1095 1188.81 -142.227C1188.81 -151.333 1218.77 -266.48 1221.12 -266.48C1222 -266.48 1225.23 -260.899 1228.46 -254.437ZM1431.15 -135.765C1461.4 -91.4097 1520.15 -59.098 1555.4 -67.0291C1565.09 -69.0852 1562.15 -65.2666 1517.21 -20.6178L1469.71 26.5966C1468.91 27.3943 1467.81 27.8148 1466.68 27.7538L1446.71 26.6747C1430.56 25.7935 1421.16 23.4436 1408.23 16.9812C1372.98 -0.643311 1344.49 -37.6548 1344.49 -66.4415C1344.49 -77.6038 1348.9 -87.2972 1376.22 -134.296L1403.21 -181.467C1404.92 -184.467 1409.38 -184.024 1410.47 -180.745L1413.81 -170.72C1417.05 -160.439 1424.98 -144.577 1431.15 -135.765ZM658.603 -128.421C688.271 -77.0162 689.74 -73.4913 688.271 -61.1542C682.984 -22.0865 635.104 21.0936 590.455 26.381C565.781 29.0247 559.612 25.2061 510.263 -24.1427L471.562 -62.8442C469.042 -65.3641 470.827 -69.6727 474.39 -69.6727H483.827C543.75 -69.9664 621.592 -131.359 621.885 -178.357C621.885 -184.526 623.06 -187.17 624.529 -185.701C625.998 -183.938 641.272 -158.383 658.603 -128.421ZM1681.71 -163.083C1679.94 -153.095 1679.94 -141.64 1682.29 -129.009C1694.04 -61.448 1748.39 -1.52454 1809.49 10.8126L1816.58 12.2554C1820.17 12.9867 1820.97 17.7681 1817.81 19.625L1764.25 51.0553C1702.56 86.8918 1701.09 87.4794 1683.76 87.1855C1671.72 87.1855 1662.32 85.1294 1654.39 81.017C1610.33 57.8114 1570.97 -7.39941 1574.2 -52.0482L1575.27 -68.4642C1575.34 -69.4326 1575.75 -70.3448 1576.44 -71.031L1629.71 -124.309C1659.38 -153.977 1683.76 -178.357 1684.06 -178.357C1684.35 -178.357 1683.18 -171.601 1681.71 -163.083ZM456.509 -65.5603C463.852 -51.4607 460.327 -22.0865 448.284 2.58789C427.722 44.593 375.436 86.0106 343.124 86.0106C329.318 86.0106 315.806 78.9608 220.927 23.4436L210.655 17.2803C207.359 15.3026 208.478 10.2671 212.302 9.87158L217.402 9.34387C286.138 1.70667 354.874 -81.7162 351.055 -153.683L350.587 -165.233C350.44 -168.867 354.825 -170.796 357.404 -168.232L400.991 -124.896C428.897 -96.9907 453.865 -70.2603 456.509 -65.5603ZM1012.56 -20.9115V108.059C1012.56 109.172 1012.1 110.234 1011.28 110.991L1004.34 117.441C999.932 121.553 992.001 126.841 986.42 129.191C967.326 137.416 932.077 132.716 922.677 120.966C920.915 118.616 912.396 91.0043 904.172 59.5739C895.653 28.1434 888.31 -0.0557861 887.428 -2.99329C885.96 -7.39941 887.428 -6.81189 896.534 -0.937012C917.096 13.1626 954.108 15.5125 979.957 4.93774C992.001 -0.0557861 1009.63 -12.9805 1009.63 -16.7992C1009.63 -18.5616 1003.75 -15.0367 996.407 -9.45557C979.957 2.88159 967.033 6.7002 940.596 6.7002C917.096 6.7002 892.128 -2.69946 886.253 -13.8617C884.197 -17.6804 876.854 -42.3547 869.804 -69.379C862.46 -96.1095 855.411 -122.546 853.942 -127.834C853.145 -130.756 856.614 -132.945 858.908 -130.967L859.817 -130.184C874.797 -117.846 895.066 -112.853 926.79 -114.322C959.983 -115.79 984.657 -124.896 1001.11 -141.933C1006.39 -147.514 1011.09 -151.921 1011.68 -151.921C1011.98 -151.921 1012.56 -92.8784 1012.56 -20.9115ZM1207.31 -99.6344C1222.59 -83.7723 1255.19 -67.6166 1278.4 -64.0917C1295.14 -61.448 1314.53 -63.2104 1328.34 -68.4978C1333.92 -70.8477 1333.92 -70.554 1329.51 -63.7979C1327.16 -59.6855 1312.77 -35.0111 1297.79 -8.86804C1272.82 34.312 1269.59 39.0118 1259.01 43.1243C1228.46 55.4614 1186.75 41.0681 1163.25 9.9314C1157.96 3.17529 1153.56 -6.22437 1153.56 -10.3368C1153.56 -14.7429 1160.31 -44.4109 1168.83 -76.4288L1181.32 -123.978C1182.27 -127.588 1187.21 -128.047 1188.8 -124.674L1189.4 -123.427C1192.33 -117.259 1200.56 -106.684 1207.31 -99.6344ZM864.517 -69.6727C879.791 -12.3929 880.085 -10.0431 875.679 0.237915C864.81 26.381 832.499 45.4742 798.425 45.4742C774.631 45.7679 762.588 40.1869 753.188 24.9122C742.614 8.46265 698.258 -69.0852 698.258 -70.8477C698.258 -71.7289 702.958 -70.2603 708.539 -67.9103C732.333 -57.9231 777.569 -65.5603 807.824 -84.9473C823.686 -95.2283 841.605 -114.615 844.248 -124.896C845.018 -127.975 846.012 -130.382 846.838 -130.354C847.102 -130.345 847.273 -130.1 847.385 -129.861C848.89 -126.648 856.177 -100.528 864.517 -69.6727ZM726.164 -10.9243C754.069 37.5432 757.007 44.0055 755.244 53.4053C749.076 89.2418 700.902 125.078 665.066 120.378C654.491 118.91 648.616 114.21 608.08 73.6735L569.965 35.5593C567.446 33.0394 569.23 28.731 572.794 28.731H584.58C602.792 28.731 608.667 27.2622 626.292 18.7437C659.778 2.29407 685.628 -27.9613 690.915 -55.8668C692.09 -62.0354 693.559 -66.4415 694.146 -65.8541C694.734 -65.2666 709.127 -40.5923 726.164 -10.9243ZM1342.73 -50.8732C1355.07 -8.28064 1406.76 31.3746 1449.65 31.3746H1455.52C1459.09 31.3746 1460.87 35.6962 1458.34 38.2122L1419.98 76.3171L1376.21 120.088C1375.46 120.838 1374.44 121.26 1373.38 121.26H1358.88C1329.51 121.26 1296.91 99.229 1283.1 69.8549C1272.52 47.5304 1273.99 42.5367 1306.89 -14.4492C1323.34 -43.236 1337.15 -66.7354 1337.44 -66.7354C1338.03 -66.7354 1340.38 -59.6855 1342.73 -50.8732ZM1579.19 -2.11206C1599.17 46.3555 1640 86.3043 1675.54 91.298L1678.26 91.6951C1682.01 92.2422 1682.97 97.2152 1679.69 99.1149L1633.83 125.666C1583.6 154.746 1576.55 157.977 1564.5 157.684C1536.3 156.802 1501.64 128.309 1484.61 92.7667C1476.68 76.0234 1475.21 69.2673 1475.21 51.6428V31.8564C1475.21 30.7957 1475.63 29.7782 1476.38 29.0281L1522.21 -16.7992L1563.06 -57.6562C1565.48 -60.0714 1569.61 -58.5438 1569.88 -55.1387L1570.97 -41.1797C1571.85 -27.9613 1575.37 -11.5117 1579.19 -2.11206ZM129.28 -23.5552L192.821 13.1252C193.526 13.5321 194.089 14.1442 194.437 14.8799L201.54 29.9059C208.297 44.593 209.178 49.8804 209.178 78.6671C209.178 104.516 207.709 114.797 202.422 130.366C185.091 180.596 146.611 222.895 108.718 232.588C97.2619 235.819 90.5059 234.35 29.4075 218.195C-7.31026 208.501 -39.6219 199.689 -41.9718 198.808C-44.6155 197.926 -41.3844 195.283 -33.1596 191.464C12.0767 171.196 53.4944 115.091 69.9439 51.0553C78.1687 18.7437 76.9937 -25.6115 67.594 -47.0546C64.0691 -54.6919 62.0129 -60.8605 62.8941 -60.8605C63.7753 -60.8605 93.737 -44.1172 129.28 -23.5552ZM556.968 54.2865C556.087 70.7361 553.737 79.842 546.981 93.3541C529.357 128.309 492.345 156.509 463.852 156.509C453.277 156.509 442.997 151.809 397.173 125.372C367.211 108.335 343.712 93.0604 344.593 91.5917C345.474 90.123 348.999 88.948 352.818 88.948C363.686 88.948 393.06 72.7922 410.979 56.6364C428.897 40.4806 450.34 10.2251 458.859 -10.9243C461.502 -18.2678 464.146 -32.3674 464.146 -42.6484L464.291 -51.9603C464.347 -55.4994 468.633 -57.228 471.128 -54.7173L511.145 -14.4492L556.628 31.606C557.407 32.3951 557.824 33.4725 557.778 34.5809L556.968 54.2865ZM1963.41 -45.5858C1955.18 -25.3176 1954.59 27.8497 1962.52 56.6364C1969.57 83.0732 1993.66 131.247 2009.23 150.046C2025.09 169.433 2049.18 187.645 2064.45 192.052C2070.62 194.108 2075.91 196.458 2075.91 197.339C2075.91 199.983 1938.14 236.113 1928.74 235.819C1914.64 235.819 1886.15 218.782 1868.82 200.276C1838.86 167.965 1822.41 125.666 1822.12 81.6045C1821.82 52.524 1827.4 31.6683 1838.86 17.5687C1844.08 11.1852 1957.94 -57.9694 1967.51 -60.5035C1967.76 -60.571 1967.99 -60.5669 1968.03 -60.3054C1968.19 -58.9541 1966.46 -52.7108 1963.41 -45.5858ZM1053.69 3.46912C1077.19 14.3375 1111.26 14.3375 1130.35 3.46912L1135.93 0.383301C1139.02 -1.32397 1142.64 1.50842 1141.73 4.91589L1133.88 34.312C1128 55.4614 1120.66 83.3669 1117.13 95.9978C1109.5 124.491 1103.04 130.659 1077.48 132.422C1056.62 133.891 1041.94 129.484 1028.42 117.735L1019.79 110.117C1018.93 109.357 1018.44 108.265 1018.44 107.117V42.5367V-13.9845C1018.44 -17.577 1022.81 -19.3483 1025.31 -16.7704L1028.13 -13.8617C1033.12 -8.57434 1044.87 -0.643311 1053.69 3.46912ZM1179.11 31.3746C1186.75 37.2494 1199.09 43.7118 1206.14 46.3555C1220.83 51.349 1246.38 52.2302 1257.54 47.8241C1261.66 46.3555 1265.18 45.7679 1265.18 46.3555C1265.18 47.2367 1251.08 72.2047 1233.75 102.167C1200.26 159.446 1197.62 162.384 1176.18 162.384C1154.44 162.384 1128.88 147.697 1119.78 130.072C1115.67 122.141 1116.55 117.735 1132.12 58.6926L1146.79 4.80066C1147.7 1.45776 1152.14 0.77417 1154.01 3.6886L1157.08 8.46265C1161.49 15.5125 1171.48 25.7935 1179.11 31.3746ZM899.178 60.4551C917.39 128.309 917.39 128.016 898.884 145.347C882.435 160.915 850.417 167.377 833.967 158.565C828.974 155.628 790.493 93.3541 765.525 47.5304C763.175 43.1243 764.057 43.1243 775.513 46.9429C807.531 58.1051 858.054 39.3057 875.091 9.6377C878.91 3.46912 881.847 -1.52454 882.141 -1.23083C882.435 -0.937012 890.072 26.9685 899.178 60.4551ZM1830.93 22.8561C1828.28 26.6747 1824.17 37.5432 1821.82 46.9429C1804.49 113.035 1843.85 202.333 1902.6 230.826L1912.67 235.785C1915.99 237.42 1915.5 242.301 1911.92 243.242L1852.96 258.731C1814.77 268.718 1779.82 276.943 1774.82 276.943C1751.03 276.649 1724.01 252.856 1706.97 217.313C1696.69 195.283 1688.17 162.971 1688.17 144.172C1688.17 126.547 1694.04 103.929 1700.8 95.9978C1705.42 90.8057 1823.9 19.6135 1834.29 15.9395C1834.64 15.813 1834.89 15.8966 1834.75 16.2491C1834.35 17.2585 1832.88 19.8167 1830.93 22.8561ZM272.92 59.5739C301.707 76.0234 328.437 93.3541 332.549 98.0541C359.867 130.659 341.949 204.976 296.125 250.506C264.989 281.643 265.576 281.349 183.916 259.318C147.313 249.596 115.442 240.987 111.612 239.453C111.436 239.383 111.266 239.32 111.096 239.237C109.053 238.243 113.474 235.394 122.524 232C145.436 223.482 179.803 188.527 193.903 159.446C217.109 112.154 220.046 64.2737 203.009 23.1498C200.953 17.5687 201.247 17.5687 210.94 23.4436C216.521 26.6747 244.427 43.1243 272.92 59.5739ZM651.26 142.703C651.26 162.677 642.741 181.477 625.998 198.808C613.661 211.732 589.28 224.069 576.649 224.069C568.131 224.069 463.265 166.496 463.265 161.502C463.265 160.327 467.083 159.446 471.49 159.446C482.945 159.446 507.914 146.521 521.426 133.303C546.981 108.335 565.193 69.561 562.256 46.6492C560.493 35.1932 560.787 35.1932 606.023 80.4296L650.088 124.494C650.838 125.244 651.26 126.262 651.26 127.323V142.703ZM1479.32 90.4167C1494.3 124.197 1525.14 152.984 1554.22 160.327L1558.13 161.369C1561.57 162.287 1562.19 166.904 1559.11 168.693L1518.39 192.345C1491.36 207.914 1466.1 222.013 1461.99 223.482C1452 227.301 1429.97 221.426 1416.46 211.145C1402.65 200.57 1386.79 176.189 1382.38 158.565C1375.63 131.541 1377.98 127.428 1425.86 79.5483L1463.28 42.1239C1465.68 39.724 1469.79 41.2152 1470.09 44.5955L1471.09 55.7551C1471.98 66.9174 1475.5 82.192 1479.32 90.4167ZM1281.92 75.7296C1296.32 102.754 1329.51 125.078 1356.83 125.372L1361.55 125.47C1365.07 125.544 1366.79 129.807 1364.3 132.298L1325.99 170.608C1301.6 195.283 1278.4 216.138 1274.87 217.02C1271.35 217.901 1261.36 216.726 1252.55 214.082C1233.75 208.501 1214.66 190.289 1209.37 171.783L1206.36 161.987C1206.03 160.928 1206.16 159.782 1206.71 158.821L1239.04 102.46C1270.76 47.5304 1272.52 44.8867 1274.29 54.2865C1275.17 59.5739 1278.69 69.2673 1281.92 75.7296ZM794.9 107.748L824.304 158.848C824.847 159.793 824.982 160.919 824.675 161.966L821.63 172.371C816.93 188.233 794.606 210.557 779.038 214.964C756.126 221.132 756.126 221.132 706.483 171.783L665.707 131.52C663.319 129.162 664.721 125.089 668.054 124.7L677.403 123.61C714.708 119.497 748.782 92.7667 757.301 61.63C759.063 55.1677 761.413 51.0553 762.588 52.524C763.763 53.9927 778.45 78.9608 794.9 107.748ZM456.802 174.427C462.677 185.589 463.558 190.583 462.677 211.145C461.502 230.826 459.74 238.463 450.928 256.675C435.359 289.28 409.51 312.192 388.067 312.192C380.723 312.192 270.864 283.993 265.576 280.762C264.108 279.88 269.689 275.474 277.62 270.774C305.525 254.912 333.724 213.788 344.299 174.133C349.88 153.278 349.88 123.903 344.299 110.391C341.949 104.81 339.893 99.5228 339.893 98.9353C339.893 98.3478 364.567 112.154 395.117 129.778C445.346 158.565 450.634 162.677 456.802 174.427ZM1689.64 110.979C1671.72 161.502 1707.26 252.856 1753.09 274.887L1757.97 277.229C1761.32 278.839 1760.85 283.757 1757.25 284.703L1705.21 298.386C1652.33 312.486 1640.88 314.542 1632.36 312.192C1597.99 302.792 1565.09 245.806 1568.32 201.451C1570.67 169.14 1573.32 166.496 1636.18 130.072C1667.02 112.447 1692.58 98.3478 1692.87 98.6416C1693.46 99.229 1691.99 104.81 1689.64 110.979ZM1008.16 272.831C997.875 288.693 981.72 292.218 967.62 281.643C964.095 278.705 956.164 254.031 942.358 203.214C932.266 165.026 923.946 133.17 923.045 128.346C922.966 127.923 923.186 127.66 923.604 127.758C924.974 128.079 928.34 129.438 932.077 131.541C953.52 142.409 989.357 138.003 1003.75 122.435L1004.32 121.838C1006.81 119.258 1011.17 120.985 1011.21 124.564L1011.98 190.583C1012.56 254.325 1011.98 267.25 1008.16 272.831ZM1043.41 131.834C1058.68 138.297 1085.12 138.297 1097.75 132.128C1103.04 129.191 1107.74 127.428 1108.03 127.722C1110.08 130.366 1069.84 270.774 1066.02 275.181C1057.8 284.287 1042.82 289.28 1035.18 285.462C1017.85 276.356 1018.44 279.88 1018.44 193.814V123.572C1018.44 120.096 1022.63 118.328 1025.19 120.672C1028.72 123.903 1036.94 129.191 1043.41 131.834ZM937.365 202.92C957.927 279.587 958.22 281.937 944.414 296.624C936.777 304.849 921.796 305.436 913.278 298.093C908.578 294.568 833.38 167.965 833.38 164.44C833.38 164.146 843.955 163.852 856.586 163.852C877.735 163.852 880.966 162.971 892.716 155.04C899.472 150.046 907.99 141.822 911.222 136.828C914.453 131.834 917.39 128.603 917.684 129.778C917.978 130.659 926.79 163.559 937.365 202.92ZM1146.51 158.565C1159.14 164.44 1166.19 165.615 1180 164.734C1189.69 164.44 1197.62 163.852 1197.62 164.146C1197.62 166.496 1122.42 293.686 1120.07 295.155C1112.14 300.442 1096.87 303.086 1090.7 299.855C1082.77 296.036 1074.54 285.755 1074.25 279.88C1074.25 277.531 1083.06 242.281 1093.93 201.745L1111.47 136.014C1112.34 132.781 1116.55 131.973 1118.55 134.659L1122.13 139.472C1127.42 147.109 1136.23 153.865 1146.51 158.565ZM748.195 229.944C748.195 259.612 719.995 291.924 694.146 292.218C687.684 292.511 669.472 283.405 633.635 262.55C576.649 229.357 573.712 227.007 583.112 227.007C593.686 227.007 616.598 213.788 629.523 199.983C646.266 182.652 654.785 164.734 655.078 145.934L655.322 139.484C655.453 136.001 659.666 134.341 662.138 136.797L702.077 176.483C737.326 211.438 748.195 224.363 748.195 229.944ZM1385.91 178.833C1395.6 199.689 1416.46 219.076 1435.26 225.538C1443.78 228.182 1450.24 230.826 1449.65 231.413C1449.06 232 1424.39 246.394 1394.43 263.725L1341.58 294.29C1340.63 294.842 1339.49 294.975 1338.43 294.658L1328.34 291.63C1312.77 286.93 1290.44 264.312 1286.04 249.038C1279.87 226.126 1279.87 226.126 1329.22 176.483L1369.49 135.692C1371.85 133.307 1375.92 134.702 1376.31 138.031L1377.39 147.109C1378.27 156.509 1382.38 170.902 1385.91 178.833ZM1226.41 203.801C1238.74 214.376 1255.19 221.132 1268.41 221.132C1273.99 221.132 1264.89 231.707 1221.12 275.474L1167.95 328.645C1167.2 329.395 1166.18 329.817 1165.12 329.817H1153.27C1142.98 329.817 1138.28 328.348 1133.29 322.767C1120.95 309.548 1123.01 303.38 1163.84 232.588L1198.11 172.739C1199.74 169.9 1203.9 170.108 1205.24 173.095L1208.19 179.714C1211.72 187.352 1219.94 198.22 1226.41 203.801ZM516.432 200.276C551.387 220.251 569.306 232.294 572.243 237.582C574.593 242.281 576.355 254.031 576.355 266.368C576.355 283.405 574.887 290.455 568.131 303.967C558.437 323.648 537.288 343.623 523.482 346.266C516.726 347.441 496.458 343.329 454.452 332.167L405.783 319.156C402.169 318.19 401.74 313.235 405.134 311.662L407.16 310.723C433.597 298.974 460.327 258.437 466.202 222.013C468.846 205.27 467.083 186.177 461.796 172.958C460.327 169.727 460.327 167.965 462.09 168.846C463.558 169.727 487.939 183.827 516.432 200.276ZM868.335 235.232C902.409 293.98 904.172 298.386 902.409 309.255C900.059 323.354 889.485 332.754 876.266 332.754C868.335 332.754 859.817 325.704 811.349 276.943C763.469 229.063 756.713 221.132 763.175 221.132C786.087 221.132 811.937 203.214 822.218 180.302C825.449 173.252 828.974 168.846 830.149 170.021C831.617 171.49 848.654 200.864 868.335 235.232ZM1568.91 178.539C1562.45 194.108 1563.62 225.244 1571.85 247.863C1582.72 278.999 1600.05 301.03 1622.08 311.898C1631.48 316.304 1632.36 317.479 1627.66 318.948C1624.72 320.123 1597.11 327.467 1566.85 335.692C1505.46 351.847 1503.99 351.847 1483.14 334.223C1455.23 310.723 1445.24 249.625 1465.81 230.532C1472.27 224.657 1567.44 168.552 1571.26 168.258C1572.44 168.258 1571.26 172.958 1568.91 178.539ZM26.7638 222.601C106.955 244.044 107.543 244.338 124.874 279.293C134.567 299.267 135.448 303.086 136.623 333.635C138.68 384.453 125.167 426.164 97.5557 455.832C73.1751 481.681 70.2377 482.563 -14.0663 482.563H-75.0531C-78.9127 482.563 -80.5338 477.636 -77.4285 475.344L-74.871 473.457C-31.6909 441.732 -2.31665 353.903 -12.3039 285.462C-17.0038 255.206 -24.9348 233.469 -37.8595 216.726C-43.4406 209.382 -46.9655 203.507 -45.4967 203.507C-44.3218 203.507 -11.7164 212.026 26.7638 222.601ZM2064.45 224.069C2047.12 250.8 2042.13 273.418 2042.13 323.942C2042.42 371.822 2046.24 390.915 2062.69 425.577C2072.38 445.551 2092.65 470.225 2108.22 480.506C2115.27 484.912 2111.16 485.206 2039.78 485.206C1988.08 485.5 1961.94 484.325 1957.53 482.269C1899.37 451.72 1872.93 349.497 1905.83 281.055C1919.34 251.975 1930.21 244.338 1973.39 233.175C1993.37 227.888 2023.04 219.663 2039.19 215.257C2055.35 210.851 2070.33 207.032 2072.09 206.739C2074.15 206.445 2070.62 214.376 2064.45 224.069ZM859.229 348.616C858.642 360.072 856.879 364.184 851.004 368.297C836.024 378.872 834.555 378.284 766.407 338.923C730.276 318.067 700.021 300.149 699.14 299.267C698.258 298.386 702.958 295.449 709.714 292.805C731.745 283.993 751.132 256.087 751.132 232.882C751.132 226.713 759.944 234.644 805.474 279.88L858.828 332.947C859.643 333.758 860.07 334.88 860 336.028L859.229 348.616ZM1288.09 262.843C1296.61 276.649 1308.95 287.812 1322.17 293.099C1335.97 298.974 1341.55 294.274 1262.54 339.804C1206.73 371.822 1202.03 374.172 1191.45 372.409C1177.06 370.059 1168.25 359.485 1168.25 344.797C1168.25 334.516 1171.77 330.404 1223.18 279.587L1272.5 231.052C1274.83 228.758 1278.78 230.079 1279.26 233.314L1280.16 239.344C1281.34 247.275 1284.86 257.85 1288.09 262.843ZM632.754 267.25C690.034 300.442 692.384 302.499 692.384 323.354C692.384 340.685 687.39 354.197 676.228 367.122C659.484 386.803 657.722 386.803 588.986 368.297C555.206 359.191 527.888 351.26 527.888 350.379C527.888 349.497 532.882 346.266 538.756 343.035C551.975 335.985 570.187 312.486 576.355 294.861C581.349 279.88 582.23 249.919 577.824 241.4C576.062 238.463 575.474 235.819 576.649 235.819C577.53 235.819 603.086 249.919 632.754 267.25ZM1454.94 240.813C1442.6 273.124 1459.34 323.648 1489.01 343.329L1495.59 347.809C1498.42 349.737 1497.68 354.098 1494.37 354.981L1441.13 369.178C1372.98 387.684 1373.28 387.684 1355.65 368.884C1340.09 352.435 1333.62 320.417 1342.44 303.967C1345.33 297.878 1444.12 237.98 1454.01 236.154C1454.28 236.104 1454.5 236.031 1454.76 236.125C1455.58 236.427 1455.71 238.509 1454.94 240.813ZM181.272 264.018C215.934 273.124 247.364 282.524 251.183 284.874C254.708 286.93 258.82 288.105 260.289 287.224C261.758 286.343 290.544 293.099 324.325 302.205C380.136 316.892 386.304 319.242 394.823 328.348C427.722 362.716 414.21 452.895 372.498 476.1C361.63 482.269 359.28 482.563 216.521 482.563H84.0383C80.1613 482.563 78.5516 477.6 81.6904 475.324L83.4561 474.044C113.418 452.307 133.099 415.002 140.442 365.066C146.317 324.823 136.33 282.524 114.593 254.031C108.13 245.513 107.837 244.338 112.537 245.513C115.768 246.688 146.611 254.912 181.272 264.018ZM1915.53 256.969C1897.9 278.118 1887.91 312.192 1887.91 351.26C1887.91 404.133 1909.94 452.895 1945.19 478.744C1948 480.798 1946.55 485.237 1943.08 485.252L1883.51 485.5C1841.21 485.5 1808.31 484.325 1801.26 482.269C1765.13 472.282 1740.46 409.714 1749.27 349.791C1752.79 324.529 1763.07 299.561 1773.35 290.161C1778.35 285.462 1906.71 248.45 1919.64 247.863C1921.99 247.569 1920.52 251.387 1915.53 256.969ZM1011.98 413.827L1011.64 431.231C1011.55 435.865 1004.97 436.663 1003.78 432.183L989.651 379.165C977.901 335.104 967.326 296.036 966.445 292.218C964.976 286.049 965.564 285.755 972.614 288.693C985.245 293.393 994.057 292.218 1002.87 284.58L1004.66 283.048C1007.22 280.848 1011.19 282.627 1011.26 286.007L1011.98 322.767C1012.27 347.735 1012.27 388.565 1011.98 413.827ZM1043.7 291.63C1046.93 291.63 1053.39 288.986 1058.39 286.049L1059.31 285.5C1062.4 283.667 1066.15 286.516 1065.21 289.983L1058.97 313.073C1053.98 331.285 1043.11 371.822 1034.3 403.252L1026.59 431.613C1025.37 436.119 1018.73 435.233 1018.73 430.564V370.059L1018.46 286.492C1018.45 283.354 1021.89 281.427 1024.56 283.076L1028.42 285.462C1033.71 288.986 1040.76 291.63 1043.7 291.63ZM983.188 374.465C995.819 421.758 1005.81 460.826 1005.51 461.119C1004.93 461.707 984.657 427.339 960.276 385.04L918.833 313.332C917.353 310.771 919.068 307.546 922.018 307.34L928.259 306.905C941.477 305.73 952.345 298.093 955.577 287.518C958.22 279.88 955.87 272.243 983.188 374.465ZM1093.05 305.142C1097.16 306.024 1104.5 305.436 1109.5 303.674C1112.73 302.632 1115.55 306.104 1113.87 309.052L1108.91 317.773C1079.24 370.059 1025.78 461.413 1025.19 460.826C1024.61 460.238 1066.9 300.442 1069.84 291.924C1071.02 288.986 1073.37 289.868 1078.36 295.449C1082.47 299.855 1088.94 303.967 1093.05 305.142ZM1767.48 291.336C1767.48 292.805 1765.42 295.449 1763.07 297.505C1754.26 304.849 1746.33 333.635 1744.86 363.597C1742.51 411.477 1754.26 449.076 1778.94 473.163L1784.7 478.8C1787.29 481.324 1785.47 485.708 1781.86 485.66L1725.77 484.912L1660.74 484.049C1659.86 484.038 1659.01 483.735 1658.32 483.189L1648.22 475.219C1615.91 448.782 1604.75 374.465 1628.25 340.098C1636.47 327.76 1637.35 324.529 1630.3 330.11C1615.91 342.154 1607.39 390.328 1614.73 421.17C1619.73 442.907 1631.18 464.644 1643.52 476.1L1646.54 479.038C1649.15 481.564 1647.31 485.971 1643.69 485.906L1588.3 484.912L1524.85 484.055C1523.73 484.04 1522.66 483.551 1521.91 482.709L1511.63 471.107C1496.65 454.363 1490.19 432.626 1491.95 406.483C1493.71 385.04 1502.23 364.772 1512.81 358.016C1521.32 352.435 1631.77 323.354 1635.59 325.704C1637.06 326.585 1640.58 325.704 1642.93 323.648C1646.75 320.417 1753.97 289.574 1763.96 288.986C1765.72 288.693 1767.48 289.868 1767.48 291.336ZM759.944 340.685C819.574 375.347 824.861 378.872 828.974 389.446C834.555 403.252 832.792 411.183 822.218 419.995C817.812 423.814 815.755 426.752 817.518 426.752C822.511 426.752 833.086 415.296 835.142 407.658C836.024 403.546 835.436 396.202 833.674 391.209C831.911 386.215 831.617 382.69 832.792 383.278C838.514 385.566 984.107 470.329 990.879 475.289C991.092 475.445 991.005 475.521 990.746 475.474C986.766 474.765 951.67 465.745 909.753 454.363C819.28 429.983 777.275 418.527 707.952 400.315L667.245 389.51C664.229 388.709 663.25 384.917 665.502 382.757L674.759 373.878C691.209 357.722 696.496 344.21 695.027 320.123C694.44 311.017 694.146 303.38 694.44 303.38C695.027 303.38 724.401 320.123 759.944 340.685ZM999.05 462.001C1000.52 464.351 972.32 437.326 936.483 401.783L877.059 342.628C874.756 340.336 876.003 336.4 879.205 335.851L881.847 335.398C895.066 333.048 903.291 325.704 905.64 313.073C907.403 303.674 909.459 306.611 952.052 380.634C976.726 422.933 997.875 459.651 999.05 462.001ZM1335.39 314.248C1330.39 336.573 1342.14 364.772 1362.12 379.459L1366.24 382.467C1368.95 384.447 1368.16 388.688 1364.92 389.56L1299.84 407.071C1231.99 425.283 1226.11 426.458 1217.3 422.639C1201.73 416.177 1196.45 408.246 1198.5 394.146C1199.38 387.096 1202.03 380.634 1204.08 379.459C1256.44 348.61 1329.25 306.855 1335.55 303.846C1335.84 303.705 1336.21 303.59 1336.39 303.862C1337.04 304.834 1336.64 309.218 1335.39 314.248ZM1131.82 326.585C1136.82 332.46 1140.93 334.223 1150.33 334.223C1151.15 334.223 1151.95 334.223 1152.71 334.223C1156.28 334.223 1158.07 338.526 1155.55 341.046C1144.52 352.073 1121.32 375.27 1094.81 401.783L1048.39 447.999C1045.08 451.297 1039.77 447.207 1042.11 443.161L1073.37 389.153C1111.26 323.354 1120.37 309.548 1122.72 313.955C1124.18 316.598 1128.59 322.473 1131.82 326.585ZM458.565 338.629C489.114 346.854 515.257 354.197 516.726 355.078C518.195 355.96 523.482 357.428 528.769 358.016C534.057 358.603 563.137 366.241 593.686 374.759C658.016 392.384 660.366 394.146 662.422 423.52C663.891 444.376 659.484 459.063 647.735 472.575L640.117 481.209C639.357 482.07 638.265 482.563 637.117 482.563H572.537H515.451C511.939 482.563 510.132 478.361 512.547 475.812L516.726 471.4C538.463 449.37 547.275 412.652 538.463 382.103C535.819 373.291 531.707 364.184 529.357 362.128C523.776 357.428 523.776 360.366 529.063 368.884C542.575 389.446 540.519 427.633 524.657 455.832C509.676 481.681 507.032 482.563 434.772 482.563H382.551C378.895 482.563 377.155 478.062 379.86 475.603L385.129 470.813C404.516 452.895 414.21 428.808 415.678 394.44C417.147 363.303 413.916 347.441 403.341 331.873C399.229 325.998 397.76 321.886 399.523 322.473C401.579 323.061 428.016 330.404 458.565 338.629ZM930.315 405.015C985.832 460.826 994.057 469.932 981.426 463.176C875.972 403.546 839.255 380.928 843.955 378.284C859.229 369.178 863.929 362.716 863.929 350.672C863.965 349.882 863.996 349.106 864.024 348.351C864.155 344.78 868.542 342.987 871.058 345.523C881.872 356.423 904.381 379.081 930.315 405.015ZM1165.31 350.085C1165.31 360.953 1173.83 371.234 1185.87 375.347C1195.27 378.578 1194.98 378.578 1116.84 423.814C1073.37 448.782 1036.65 469.932 1034.89 470.519C1033.12 471.107 1060.74 442.32 1096.28 406.483C1131.82 370.647 1161.78 341.566 1162.96 341.566C1164.43 341.566 1165.31 345.385 1165.31 350.085ZM1503.11 360.366C1503.11 361.247 1500.17 366.828 1496.65 372.703C1491.95 380.634 1489.89 389.74 1489.01 407.658C1487.54 437.032 1492.83 455.832 1507.81 473.457L1512.52 478.817C1514.79 481.409 1512.94 485.473 1509.49 485.456L1458.46 485.206C1425.56 484.912 1395.6 484.031 1391.49 482.856C1387.67 481.681 1380.33 475.219 1375.63 468.463C1360.94 447.901 1361.82 409.421 1376.8 395.909C1380.03 392.971 1408.23 383.571 1439.37 375.053C1495.77 359.778 1503.11 358.016 1503.11 360.366ZM1194.68 398.552C1194.68 409.421 1196.15 412.652 1203.79 419.114C1208.78 423.227 1214.07 426.752 1215.83 426.752C1217.59 426.752 1218.48 427.339 1217.89 427.927C1216.13 429.689 1038.71 477.275 1037.53 476.1C1036.65 475.219 1188.81 386.509 1192.63 385.921C1193.8 385.628 1194.68 391.502 1194.68 398.552ZM737.62 413.533C794.312 428.808 805.474 432.626 809.88 438.795C819.28 451.426 819.574 459.651 812.23 470.813L806.357 479.379C805.619 480.454 804.405 481.102 803.101 481.117L724.695 481.975L653.143 482.497C649.801 482.522 648.071 478.518 650.378 476.1C667.122 457.594 672.115 432.92 663.597 408.246L660.044 397.589C659.184 395.007 661.568 392.517 664.184 393.265C667.709 394.44 700.608 403.546 737.62 413.533ZM1370.93 395.321C1370.93 395.909 1368.87 400.609 1366.23 405.896C1360.94 416.471 1360.35 444.964 1364.76 457.301C1366.52 461.707 1371.52 469.932 1375.92 475.807L1378.87 479.731C1380.88 482.413 1378.89 486.231 1375.54 486.129L1306.3 484.031C1222.29 481.681 1219.06 481.094 1212.31 464.938C1209.37 457.594 1209.66 454.657 1214.07 445.257L1218.85 435.693C1219.36 434.676 1220.28 433.924 1221.37 433.624L1291.62 414.414C1361.23 395.615 1370.93 393.265 1370.93 395.321ZM902.409 457.594C949.408 469.932 988.182 480.8 988.77 481.388C989.357 481.975 949.408 482.563 899.766 482.563H816.425C813.302 482.563 811.383 479.142 813.012 476.477L815.755 471.988C823.099 460.238 822.218 447.313 813.405 437.326C809.587 432.92 809.293 432.039 812.818 433.214C815.168 434.095 855.704 444.964 902.409 457.594ZM1210.54 443.495C1204.67 455.245 1205.55 463.176 1214.07 473.457L1216.17 475.964C1218.36 478.572 1216.5 482.546 1213.1 482.535L1130.94 482.269H1070.37C1065.7 482.269 1064.82 475.636 1069.32 474.409L1125.65 459.063C1170.29 447.066 1207.78 436.924 1212.44 435.936C1212.76 435.868 1213.17 435.733 1213.3 436.035C1213.63 436.816 1212.49 439.855 1210.54 443.495ZM74.9375 492.55C88.7434 499.6 110.48 525.743 121.055 547.186C144.848 597.416 141.911 666.445 113.712 706.982C108.718 714.619 101.374 722.844 97.2619 725.194C91.9746 728.719 -43.1468 767.199 -50.4904 767.492C-51.3716 767.492 -48.4342 763.968 -44.3218 759.268C-5.54781 718.731 -0.847931 614.159 -34.922 545.717C-44.9093 525.155 -62.8275 503.125 -77.2209 493.725C-84.2707 489.025 -80.4521 488.731 -8.77898 488.731C50.8507 488.437 68.769 489.319 74.9375 492.55ZM378.373 495.487C390.123 503.418 403.341 526.33 409.216 548.361C419.791 587.428 408.922 633.546 385.717 648.527C381.898 651.171 353.699 659.689 323.443 667.914C292.894 675.845 265.282 683.482 262.051 684.363C256.47 685.832 256.47 685.832 261.17 680.545C263.814 677.314 269.689 667.033 274.095 657.339C280.851 642.652 282.32 634.427 283.495 608.872C284.963 573.329 281.438 552.767 269.689 527.799C261.464 510.174 245.308 491.375 239.139 491.375C237.083 491.375 239.139 494.312 243.546 497.25C266.751 514.874 282.907 562.754 280.263 607.403C278.501 640.302 271.451 661.452 257.939 676.726C247.658 688.182 245.896 688.77 182.741 705.513C146.904 714.913 114.593 723.725 110.774 724.9C104.312 726.956 104.605 726.075 114.886 711.975C131.924 689.063 138.092 668.501 139.561 630.902C141.617 575.679 126.049 532.499 94.0308 503.125L85.6586 495.372C82.989 492.901 84.7379 488.437 88.3762 488.437H222.984H366.853C367.66 488.437 368.449 488.682 369.115 489.139L378.373 495.487ZM809.587 499.012C814.58 504.593 818.693 511.056 818.693 513.406C818.693 522.805 808.412 538.667 801.068 540.43C796.956 541.311 763.469 550.417 726.164 560.404C691.907 569.648 662.935 577.13 658.346 577.727C657.92 577.783 657.559 577.555 657.607 577.128C657.756 575.776 659.072 572.391 660.953 568.629C672.115 546.598 669.178 516.93 653.903 499.893C648.616 494.019 646.854 492.844 649.497 497.25C665.066 520.749 667.709 548.948 656.253 568.923L650.611 579.181C650.087 580.134 649.198 580.833 648.148 581.116L586.636 597.709C551.975 606.816 523.188 614.747 522.894 614.747C522.601 614.747 525.244 610.047 529.063 604.466C542.575 584.785 544.631 547.48 533.763 519.28C529.65 508.412 517.02 491.375 512.907 491.375C511.438 491.375 514.082 496.368 518.782 502.243C530.825 517.224 536.7 535.436 536.7 557.173C536.7 581.26 532.294 595.653 521.132 607.697C512.613 616.803 507.032 619.153 461.796 631.196C434.478 638.246 407.454 645.589 402.46 646.764C399.347 647.613 396.942 644.015 398.917 641.463L399.816 640.302C412.154 623.853 417.147 603.291 415.678 572.741C414.21 541.311 405.398 517.518 387.773 499.6L383.516 495.228C381.048 492.693 382.844 488.437 386.382 488.437H588.693H798.647C799.811 488.437 800.918 488.945 801.678 489.827L809.587 499.012ZM988.77 489.612C986.42 491.962 818.105 535.73 816.637 534.261C816.049 533.674 816.637 530.443 818.399 527.211C823.686 517.224 822.218 506.943 813.993 497.543L811.866 495.008C809.683 492.405 811.534 488.437 814.931 488.437H898.297C948.821 488.437 989.357 489.025 988.77 489.612ZM1215.24 498.718C1208.19 510.174 1208.78 526.036 1216.71 532.499C1222.29 537.199 1222.29 535.73 1216.42 524.274C1211.43 513.993 1212.6 507.237 1221.41 496.075L1226.09 489.999C1226.84 489.014 1228.02 488.437 1229.26 488.437H1306.89H1377.76C1381.12 488.437 1382.88 492.418 1380.62 494.9C1363.88 513.112 1358.88 538.08 1367.11 562.46L1370.25 571.55C1371.29 574.57 1368.55 577.534 1365.46 576.727L1340.09 570.098C1322.46 565.104 1289.27 555.998 1266.65 549.83C1244.03 543.367 1222.29 537.492 1218.18 536.611C1209.49 534.874 1052.06 492.879 1043.67 490.287C1043.42 490.209 1043.41 490.078 1043.67 490.024C1047.36 489.241 1084.69 488.731 1130.94 488.731L1214.44 488.461C1217.59 488.451 1219.52 491.921 1217.84 494.59L1215.24 498.718ZM1514.86 497.837C1487.84 524.274 1480.49 581.554 1500.76 607.403C1503.01 610.261 1504.69 612.693 1505.3 613.911C1505.58 614.465 1505.16 614.643 1504.56 614.473C1499.48 613.03 1473.74 606.21 1443.19 597.709C1371.22 578.029 1370.34 577.441 1368.58 544.542C1367.11 521.924 1373.57 505.474 1387.38 494.606C1394.72 488.731 1398.83 488.437 1459.93 488.437H1514.76C1518.39 488.437 1520.14 492.868 1517.5 495.35L1514.86 497.837ZM1645.87 500.187C1626.48 518.105 1616.79 542.192 1615.32 576.56C1613.85 607.697 1617.08 623.559 1627.66 639.127L1628.46 640.29C1630.57 643.376 1627.67 647.419 1624.07 646.401L1621.2 645.589C1613.56 643.24 1586.83 636.19 1561.86 629.434C1536.89 622.678 1514.27 615.922 1511.63 614.453C1501.35 609.165 1493.12 585.372 1493.12 562.46C1493.42 544.248 1494.89 538.374 1503.41 521.63C1519.86 489.025 1521.32 488.437 1595.93 488.437H1648.45C1652.11 488.437 1653.84 492.938 1651.14 495.397L1645.87 500.187ZM1785.1 500.775C1753.09 532.499 1735.76 602.997 1748.68 647.352C1753.38 663.508 1763.96 682.307 1768.36 682.307C1769.83 682.307 1768.07 678.489 1764.54 673.789C1750.15 653.521 1744.86 622.678 1749.86 589.485C1756.61 544.836 1776.88 506.062 1799.79 493.725C1808.9 489.025 1817.71 488.437 1884.98 488.437C1955.48 488.437 1959.29 488.731 1952.54 493.431C1918.76 515.755 1894.38 562.167 1889.38 613.278C1885.86 650.289 1896.43 690.826 1916.41 716.969C1922.87 725.487 1923.16 726.662 1918.46 725.194C1915.23 724.312 1885.27 716.381 1851.2 707.275C1817.42 698.463 1786.28 689.357 1782.17 687.595C1778.05 685.832 1771.59 684.07 1767.48 683.482C1748.39 682.013 1645.28 651.758 1638.82 645.883C1623.55 632.077 1619.14 618.859 1619.14 583.904C1619.14 554.823 1620.02 549.83 1627.07 534.555C1637.35 512.818 1644.7 503.418 1658.21 495.193C1668.49 488.731 1672.01 488.437 1733.41 488.437H1787.78C1791.35 488.437 1793.13 492.746 1790.61 495.266L1785.1 500.775ZM2105.87 497.543C2090.3 508.999 2075.32 529.561 2062.98 556.586C2032.14 623.559 2034.79 709.919 2068.86 754.274C2074.44 761.618 2077.97 767.492 2077.08 767.492C2076.2 767.492 2043.6 758.974 2004.53 748.399C1923.75 726.662 1923.46 726.662 1906.13 691.707C1896.43 671.733 1895.55 667.914 1894.38 637.365C1892.32 586.547 1905.83 544.836 1933.44 515.168C1957.82 489.025 1960.47 488.437 2044.77 488.437H2106.05C2109.91 488.437 2111.53 493.364 2108.43 495.656L2105.87 497.543ZM990.532 497.837C987.301 499.6 951.758 520.162 911.515 543.367C871.566 566.573 838.08 585.372 837.492 585.372C836.905 585.372 836.317 579.791 836.317 572.741C836.317 559.817 831.324 552.179 817.812 545.13C813.993 543.073 834.261 536.611 900.059 518.693C989.357 494.606 1001.11 491.669 990.532 497.837ZM1131.53 519.28C1176.76 531.618 1230.23 546.011 1250.49 551.298C1270.76 556.586 1306.01 565.985 1328.92 572.154L1363.78 581.481C1366.79 582.286 1367.76 586.074 1365.51 588.231L1356.24 597.122C1339.79 613.278 1334.5 626.79 1335.97 650.877C1336.47 658.655 1336.33 665.146 1335.73 666.692C1335.6 667.023 1335.24 666.941 1334.93 666.761C1331 664.45 1303.04 648.502 1269.88 629.434C1209.66 594.772 1206.14 592.128 1201.73 580.966C1196.45 567.16 1199.38 555.411 1209.37 550.123C1212.38 548.618 1214.32 546.683 1214.46 545.602C1214.5 545.278 1214.25 545.002 1213.96 544.842C1210.38 542.82 1201.01 550.742 1197.62 558.936C1194.68 565.692 1194.68 570.685 1197.03 578.029L1197.45 579.445C1198.4 582.666 1195.02 585.449 1192.04 583.904C1179.11 577.441 1040.76 496.956 1039 495.193C1038.12 494.312 1040.17 494.312 1043.41 495.193C1046.64 496.368 1086.29 506.943 1131.53 519.28ZM934.721 564.81C899.178 600.353 869.216 629.434 868.041 629.434C866.573 629.434 865.691 625.615 865.691 620.915C865.691 610.047 857.173 599.766 845.13 595.653C835.73 592.422 836.024 592.422 914.453 546.598C957.927 521.337 994.644 500.775 996.407 500.481C997.875 500.187 970.264 529.268 934.721 564.81ZM1120.95 548.655C1178.82 582.141 1191.16 590.366 1187.05 592.716C1171.77 601.528 1167.07 608.284 1167.07 620.328C1167.04 621.118 1167 621.894 1166.98 622.649C1166.85 626.22 1162.46 628.013 1159.94 625.477C1149.13 614.577 1126.62 591.919 1100.69 565.985C1064.26 529.561 1038.12 501.362 1042.23 503.418C1046.34 505.768 1081.59 526.036 1120.95 548.655ZM995.819 515.462C992.882 520.749 972.614 555.998 950.877 593.597C918.565 649.408 910.634 661.158 908.284 657.045C899.178 641.771 892.716 636.777 880.672 636.777H878.286C874.722 636.777 872.938 632.469 875.457 629.949L933.84 571.566C969.97 535.436 999.638 506.062 1000.23 506.062C1000.81 506.062 998.757 510.468 995.819 515.462ZM1148.86 635.602C1136.52 637.658 1129.77 643.827 1125.36 656.458C1122.42 665.564 1121.83 664.683 1080.12 592.422C1056.92 552.179 1036.06 516.049 1033.71 511.937C1031.07 507.824 1058.39 533.674 1094.22 569.217L1153.88 628.338C1156.2 630.634 1154.94 634.589 1151.72 635.125L1148.86 635.602ZM984.363 592.716C972.32 637.952 961.745 676.726 960.864 679.076C959.689 682.307 957.633 681.72 952.052 675.551C943.239 665.858 933.252 663.214 921.503 667.033C918.442 668.155 915.624 664.886 917.185 662.024L917.978 660.57C927.944 641.491 1000.58 517.229 1005.54 510.458C1005.7 510.245 1005.81 510.288 1005.77 510.547C1005.07 514.556 996.028 550.222 984.363 592.716ZM1071.6 587.428L1112.18 657.679C1113.65 660.237 1111.94 663.459 1109 663.669L1103.04 664.095C1089.23 665.27 1084.53 668.208 1077.19 679.957C1072.49 688.182 1072.19 687.301 1049.28 602.116C1036.65 555.117 1025.78 514.287 1024.9 511.937C1021.08 501.068 1030.77 516.637 1071.6 587.428ZM1012.56 601.822V684.535C1012.56 687.667 1009.13 689.584 1006.46 687.938L1002.58 685.538C990.532 677.901 984.363 677.901 972.614 684.951L971.684 685.503C968.597 687.336 964.845 684.488 965.78 681.021L973.201 653.521C978.782 632.959 989.651 592.716 997.288 564.223C1004.93 535.436 1011.39 511.937 1011.98 511.937C1012.27 511.937 1012.56 552.473 1012.56 601.822ZM1043.41 598.591C1055.45 643.827 1065.44 681.72 1065.44 682.895C1065.44 684.07 1061.91 683.776 1057.8 682.307C1045.76 677.607 1036.94 678.782 1027.54 687.007L1025.04 689.111C1022.43 691.298 1018.45 689.436 1018.46 686.033L1018.73 602.409C1018.73 551.886 1019.32 511.643 1020.2 513.406C1020.79 514.874 1031.07 553.354 1043.41 598.591ZM812.818 547.186C819.28 547.186 833.38 562.754 833.38 570.098C833.38 588.016 831.617 589.485 762.882 628.846C725.87 650.289 695.321 667.62 694.734 667.62C694.146 667.62 694.44 659.102 694.734 648.527C695.909 625.028 688.859 607.99 671.528 593.01L665.924 588.268C663.456 586.18 664.357 582.178 667.482 581.349L712.064 569.51C740.851 561.579 772.869 553.061 783.444 550.123C793.576 547.309 803.438 545.303 806.055 545.916C806.262 545.964 806.459 546.037 806.667 546.088C808.935 546.649 811.414 547.186 812.818 547.186ZM659.484 589.485C678.871 599.766 692.384 622.384 692.384 645.296C692.384 668.795 690.915 670.558 635.985 701.988C564.899 743.112 571.949 740.174 576.943 725.487C588.105 693.763 570.481 645.296 540.813 626.496L535.813 623.428C532.82 621.592 533.477 617.066 536.869 616.156L564.018 608.872C583.699 603.584 611.017 596.241 624.823 592.716C636.626 589.451 646.711 586.616 649.756 585.862C650.359 585.713 650.999 585.602 651.593 585.782C653.095 586.237 656.118 587.689 659.484 589.485ZM1479.03 612.103C1492.24 615.628 1503.11 619.153 1503.11 620.328C1503.11 621.209 1498.12 624.734 1492.24 627.965C1479.03 635.015 1460.81 658.514 1454.64 676.139C1449.65 691.12 1448.77 721.081 1453.18 729.6C1454.94 732.537 1455.53 735.181 1454.64 735.181C1453.76 735.181 1428.5 721.081 1398.54 703.75C1340.09 669.97 1338.62 668.795 1338.62 645.296C1338.62 629.727 1343.61 616.803 1354.77 603.291C1370.05 585.372 1375.63 584.785 1417.63 595.947C1437.9 601.528 1465.51 608.872 1479.03 612.103ZM1266.65 632.959C1300.72 652.639 1329.51 669.676 1330.98 670.851C1332.45 672.026 1328.04 675.257 1321.29 678.195C1299.26 687.007 1279.87 714.913 1279.87 738.118C1279.87 744.287 1271.06 736.356 1225.53 691.12L1172.35 637.949C1171.6 637.199 1171.18 636.181 1171.18 635.12V623.559C1171.18 616.215 1172.36 608.872 1173.53 606.816C1176.76 601.528 1195.56 594.185 1200.56 595.947C1202.91 596.828 1232.87 613.572 1266.65 632.959ZM856.292 607.697C860.404 612.69 862.754 618.859 862.754 626.203C862.754 636.777 860.11 640.008 807.824 691.12L758.171 739.977C755.904 742.207 752.067 741.028 751.443 737.91L749.663 729.012C744.963 705.219 730.276 686.713 708.539 677.901C699.727 674.082 697.965 672.32 701.196 670.264C703.546 669.089 732.626 652.052 765.819 632.665C821.043 600.059 826.918 597.416 837.786 598.885C845.423 599.766 851.886 602.703 856.292 607.697ZM530.238 625.321C544.925 631.196 556.381 642.652 565.193 659.983C579.587 688.182 579.587 726.956 565.193 740.468C559.025 746.049 471.783 797.748 462.09 801.567C457.977 803.035 457.977 802.154 461.796 792.754C479.127 751.63 446.521 672.026 406.866 658.22C402.166 656.458 398.935 654.695 399.816 653.814C400.684 652.947 494.328 626.751 517.437 621.166C518.159 620.992 518.881 620.894 519.591 621.111C521.496 621.692 525.62 623.342 530.238 625.321ZM1578.9 639.127L1625.32 651.81C1628.92 652.793 1629.33 657.73 1625.95 659.298L1623.84 660.277C1607.39 667.62 1586.83 690.532 1576.25 712.856C1561.86 743.699 1559.51 773.661 1569.5 798.335C1571.55 803.623 1570.97 803.623 1560.1 797.16C1553.93 793.342 1529.55 779.242 1506.05 765.73C1482.55 752.218 1461.69 738.412 1459.34 734.887C1452 722.844 1451.71 694.644 1458.76 676.139C1469.33 647.939 1495.47 623.559 1514.86 623.853C1518.97 623.853 1547.76 630.609 1578.9 639.127ZM1219.65 694.057C1266.06 740.762 1274.29 749.868 1268.12 749.868C1244.91 749.868 1217.01 769.255 1208.19 791.286C1205.26 798.042 1202.03 802.448 1200.85 800.979C1199.38 799.51 1182.35 770.136 1162.37 735.475C1130.06 678.782 1126.53 671.733 1128.3 662.039C1130.35 648.821 1141.81 638.246 1154.44 638.246C1162.66 638.246 1170.6 644.708 1219.65 694.057ZM895.947 646.471C898.591 649.408 902.115 655.87 903.878 660.57C906.815 668.795 904.172 674.082 867.748 737.531L832.609 798.369C830.921 801.291 826.595 800.939 825.403 797.782L823.393 792.461C814.58 769.842 786.087 749.868 762.588 749.868C757.007 749.868 766.113 739.293 809.88 695.526L863.051 642.355C863.801 641.605 864.819 641.183 865.88 641.183H877.735C887.135 641.183 892.716 642.946 895.947 646.471ZM414.797 667.326C441.528 685.245 460.034 721.081 462.383 758.68C463.265 777.48 462.677 782.767 456.802 794.81C450.34 808.323 447.696 810.379 394.529 841.222C366.428 857.434 342.8 870.664 338.737 872.222C338.336 872.376 337.987 872.177 338.004 871.747C338.07 870.052 339.413 865.138 341.362 860.021C359.28 809.498 323.737 718.144 277.913 696.113L273.273 693.979C269.873 692.415 270.291 687.455 273.905 686.482L324.325 672.908C362.511 662.627 388.654 656.752 394.235 657.633C399.229 658.514 408.335 662.92 414.797 667.326ZM1709.32 674.082C1741.34 682.601 1767.48 690.238 1767.48 691.12C1767.48 692.001 1761.31 695.819 1753.97 699.638C1727.24 714.031 1694.04 762.499 1685.53 799.804C1681.12 819.191 1681.71 848.272 1686.7 860.609C1689.05 866.19 1691.11 871.477 1691.11 871.771C1691.11 872.358 1666.43 858.553 1636.18 840.928C1585.95 812.141 1580.37 808.323 1574.2 796.573C1568.32 785.411 1567.44 780.417 1568.32 759.855C1569.5 740.174 1571.26 732.537 1580.07 714.325C1595.05 682.601 1621.78 658.808 1642.35 658.808C1647.05 658.808 1677.3 665.858 1709.32 674.082ZM941.477 671.733C945.883 674.082 951.464 679.37 953.814 683.482C957.339 690.532 955.87 697.876 937.658 767.199L919.54 834.947C918.673 838.187 914.444 838.986 912.455 836.287L909.165 831.822C904.465 825.36 894.478 817.135 885.96 812.729C873.329 806.56 867.748 805.385 852.179 806.266C843.315 806.773 835.978 806.406 834.314 805.73C833.984 805.597 834.059 805.24 834.239 804.934C836.55 801.005 852.498 773.06 871.566 740.174C903.878 684.363 909.459 676.139 918.565 672.32C931.49 666.739 931.783 666.739 941.477 671.733ZM1117.72 672.614C1122.42 676.726 1197.62 802.448 1197.62 806.266C1197.62 806.854 1189.1 806.56 1178.53 806.266C1155.03 805.091 1137.99 812.141 1122.72 830.06C1117.13 836.522 1112.43 840.928 1112.43 840.047C1112.43 838.872 1103.92 806.266 1093.34 767.199C1073.07 691.413 1072.78 689.063 1086.59 674.082C1094.22 666.151 1109.2 665.564 1117.72 672.614ZM708.539 682.013C730.57 692.001 748.195 717.85 748.195 740.762C748.195 746.049 736.151 760.149 702.077 794.517L661.515 835.336C659.154 837.712 655.092 836.307 654.704 832.98L653.61 823.597C649.497 788.054 624.823 755.449 593.98 744.874C584.286 741.643 581.349 739.587 583.993 737.825C664.184 690.826 688.859 677.02 692.384 676.726C694.734 676.726 702.077 679.076 708.539 682.013ZM1401.77 711.094C1452.59 740.762 1455.23 742.524 1446.42 744.287C1411.46 750.455 1376.22 790.992 1375.63 825.653L1375.52 831.488C1375.45 835.02 1371.17 836.736 1368.68 834.231L1329.22 794.517C1279.87 745.168 1279.87 744.874 1286.04 722.256C1292.21 699.932 1326.28 673.495 1342.44 678.195C1345.37 679.076 1372.1 694.057 1401.77 711.094ZM1001.11 689.063L1009.36 694.645C1010.45 695.381 1011.1 696.602 1011.12 697.915L1011.98 776.011L1012.5 847.545C1012.52 850.956 1008.54 852.831 1005.93 850.639L1003.46 848.565C984.951 832.997 952.639 828.885 931.783 839.753C927.921 841.813 924.284 843.196 923.247 843.308C923.059 843.328 922.946 843.284 922.961 843.095C923.416 837.227 961.476 697.263 962.92 695.819C966.739 692.294 985.245 682.307 987.888 682.307C989.651 682.307 995.526 685.245 1001.11 689.063ZM1058.39 687.007C1064.85 689.945 1069.25 694.644 1070.43 699.638C1071.31 703.75 1080.42 737.531 1090.4 774.836C1099.65 809.104 1106.88 838.336 1107.67 842.948C1107.74 843.371 1107.56 843.768 1107.13 843.752C1106.22 843.717 1104.63 842.881 1103.04 841.516C1100.98 839.753 1092.75 836.816 1085.12 834.759C1065.73 830.06 1042.23 835.347 1028.42 847.39L1025.08 850.338C1022.5 852.617 1018.44 850.783 1018.44 847.339V779.242V703.939C1018.44 702.878 1018.86 701.86 1019.61 701.11L1028.42 692.294C1039.59 681.132 1043.99 680.251 1058.39 687.007ZM277.032 699.932C312.869 717.556 340.774 772.78 341.068 827.71C341.362 850.622 340.48 855.909 334.018 867.071C327.556 878.821 321.387 883.227 273.801 910.839C244.721 927.582 215.346 944.325 208.59 948.438L207.002 949.345C203.632 951.271 199.77 947.751 201.376 944.217L203.597 939.332C232.383 876.765 193.022 771.899 129.28 740.468C118.705 735.181 111.362 730.481 113.124 729.893C138.386 721.669 244.427 694.644 252.945 694.351C259.408 694.057 270.276 696.701 277.032 699.932ZM1849.43 711.681C1931.39 733.712 1926.98 731.95 1914.06 736.65C1874.11 751.043 1835.04 799.804 1821.82 851.209C1815.65 875.59 1816.24 914.657 1823.29 934.926C1825.94 942.885 1828.12 949.647 1828.3 951.097C1828.32 951.285 1828.27 951.421 1828.09 951.403C1822.15 950.848 1705.4 880.183 1699.33 873.533C1678.77 850.915 1681.12 806.266 1705.21 760.443C1723.12 726.369 1757.49 694.644 1777.47 694.057C1780.7 694.057 1813.01 701.988 1849.43 711.681ZM127.811 743.993C160.417 760.443 190.084 800.392 203.597 845.628C210.646 869.127 210.646 910.839 203.89 930.813C201.247 938.744 195.078 949.613 190.672 954.606C184.797 961.362 67.594 1031.86 62.3066 1031.86C61.7191 1031.86 64.0691 1024.81 67.594 1016.29C75.8188 996.024 76.4063 946.088 68.4752 915.832C57.0193 871.183 26.1763 819.485 -3.19788 795.985C-16.1225 785.998 -34.0408 776.305 -40.5031 776.305C-42.8531 776.305 -44.9093 775.424 -44.9093 773.955C-44.9093 771.017 86.6872 735.768 99.3181 735.475C105.487 735.181 116.943 738.706 127.811 743.993ZM2002.18 752.805C2038.6 762.499 2070.33 771.311 2072.68 771.899C2075.03 772.78 2068.57 777.48 2057.99 782.767C2020.69 801.567 1986.02 846.509 1966.05 902.026C1957.82 925.526 1956.94 930.519 1956.94 965.768C1956.94 998.961 1957.82 1005.72 1963.41 1017.76C1966.93 1025.69 1968.99 1031.86 1968.11 1031.86C1967.22 1031.86 1937.56 1015.12 1902.31 994.849C1838.27 957.837 1837.98 957.837 1830.34 941.975C1804.49 889.102 1831.52 798.335 1885.27 757.211C1898.2 747.518 1924.04 735.475 1933.15 735.181C1934.62 735.181 1965.76 743.112 2002.18 752.805ZM603.38 753.393C628.935 765.143 649.203 798.335 649.497 828.297L649.764 845.109C649.781 846.192 649.359 847.235 648.593 848.001L605.142 891.452L567.028 929.566C564.508 932.086 560.2 930.301 560.2 926.737V919.651C560.2 874.708 519.663 821.541 477.071 810.673L472.982 809.606C469.523 808.704 468.894 804.062 471.989 802.273L506.739 782.18C580.174 739.881 576.649 740.762 603.38 753.393ZM1515.16 776.892C1543.94 793.342 1566.85 807.735 1565.97 809.204C1565.09 810.379 1561.57 811.554 1557.75 811.554C1539.24 811.554 1499.88 841.809 1484.31 868.54C1474.33 885.871 1466.98 913.189 1469.04 925.526C1470.51 935.513 1468.16 933.751 1425.27 890.864L1380.91 846.506C1380.16 845.756 1379.74 844.738 1379.74 843.677V828.297C1379.74 808.029 1388.85 788.054 1405 771.605C1417.63 759.268 1442.01 746.931 1454.35 746.931C1460.23 746.931 1481.38 757.505 1515.16 776.892ZM781.388 757.505C797.837 763.086 816.93 782.767 821.63 799.217L824.644 809.013C824.97 810.071 824.842 811.218 824.291 812.179L791.962 868.54C760.238 923.176 758.476 925.82 756.713 916.714C750.545 880.877 708.833 845.628 672.409 845.334H669.729C666.165 845.334 664.381 841.026 666.9 838.506L706.483 798.923C757.007 748.693 756.713 748.987 781.388 757.505ZM1324.52 798.923L1365.35 839.5C1367.72 841.858 1366.33 845.915 1363 846.309L1353.89 847.39C1314.24 851.797 1286.33 874.415 1271.94 913.776C1269.88 919.651 1265.47 913.776 1237.86 866.19C1220.53 835.934 1206.43 809.791 1206.43 807.735C1206.43 805.679 1209.66 797.16 1213.78 788.936C1224.35 767.786 1246.09 753.687 1269.29 753.099C1276.64 752.805 1284.86 759.855 1324.52 798.923ZM874.797 811.848C888.31 815.96 905.347 829.472 911.222 840.928C915.04 848.272 914.159 853.559 898.884 911.426C883.022 971.056 881.847 973.7 877.735 966.943C869.51 954.019 849.242 936.101 834.555 928.757C818.105 920.826 782.269 917.301 771.988 922.882C768.757 924.938 765.819 925.526 765.819 924.645C765.819 918.77 829.561 814.491 834.555 812.141C843.073 808.029 861.285 808.029 874.797 811.848ZM1197.03 812.435C1202.03 815.372 1240.51 877.646 1265.47 923.47C1267.82 927.876 1266.94 927.876 1255.49 924.057C1233.16 916.126 1198.5 923.47 1173.53 941.094C1168.54 944.619 1160.9 953.431 1156.2 960.775C1151.5 968.118 1147.68 973.112 1147.68 971.937C1147.68 970.762 1140.34 942.563 1131.53 909.664C1116.84 854.44 1115.67 848.859 1119.48 841.516C1125.36 830.647 1138.28 818.604 1150.62 813.316C1162.96 808.029 1187.93 807.441 1197.03 812.435ZM496.458 822.716C534.938 843.278 565.487 902.614 554.619 935.219C552.562 941.975 536.113 960.481 505.857 990.737L467.156 1029.44C464.636 1031.96 460.327 1030.17 460.327 1026.61V1017.17C460.034 958.719 405.104 886.752 355.461 879.702L352.822 879.317C349.061 878.769 348.113 873.778 351.41 871.888L395.704 846.509C425.666 829.178 452.102 814.491 454.452 813.61C462.383 810.673 482.064 814.785 496.458 822.716ZM1634.12 845.628C1663.79 862.665 1687.29 877.94 1686.41 879.408C1685.53 880.877 1682 882.052 1678.18 882.052C1667.31 882.052 1637.94 898.208 1620.02 914.364C1602.1 930.519 1580.66 960.775 1572.14 981.924C1569.5 989.268 1566.85 1003.37 1566.85 1013.65L1566.71 1022.96C1566.65 1026.5 1562.37 1028.23 1559.87 1025.72L1519.86 985.449L1474.37 939.394C1473.59 938.605 1473.18 937.527 1473.22 936.419L1474.03 916.714C1474.91 900.558 1477.26 890.864 1483.73 878.233C1500.47 843.572 1538.65 814.491 1567.44 814.491C1578.6 814.491 1588 818.897 1634.12 845.628ZM1103.62 846.215C1109.5 850.622 1113.32 861.196 1125.65 907.314C1134.17 937.863 1141.81 966.65 1142.98 971.056C1143.6 973.843 1140.46 975.924 1138.14 974.265L1134.47 971.643C1113.9 957.837 1076.89 955.487 1051.04 966.062C1039 971.056 1021.37 983.98 1021.37 987.799C1021.37 989.562 1027.25 986.037 1034.59 980.456C1051.04 968.118 1063.97 964.3 1090.4 964.3C1113.9 964.3 1138.87 973.7 1144.75 984.862C1146.8 988.68 1154.15 1013.35 1161.2 1040.38C1168.54 1067.11 1175.59 1093.55 1177.06 1099.13L1177.31 1100.08C1177.99 1102.65 1174.87 1104.49 1172.95 1102.65C1160.9 1091.2 1138.28 1084.73 1111.55 1084.73C1074.25 1084.73 1045.17 1095.31 1026.07 1116.16L1025.32 1116.95C1022.82 1119.54 1018.44 1117.78 1018.44 1114.17V993.968C1018.44 915.539 1019.61 861.784 1021.37 858.553C1032.24 837.991 1082.18 830.647 1103.62 846.215ZM985.538 842.69C991.413 845.04 999.932 850.622 1004.63 854.734L1011.39 861.493C1012.14 862.244 1012.56 863.261 1012.56 864.322V928.757V984.763C1012.56 988.385 1008.13 990.142 1005.65 987.504L1003.16 984.862C987.007 968.412 964.976 960.187 937.658 959.894C917.39 959.894 912.103 961.069 899.766 967.825C890.953 972.818 886.253 974.287 887.135 971.937C888.016 969.587 895.653 942.269 903.878 910.839C912.396 879.702 920.621 852.384 922.384 850.034C932.077 838.284 965.564 834.172 985.538 842.69ZM702.665 856.79C729.689 869.421 754.069 901.439 754.069 924.645C754.069 934.338 695.909 1038.32 691.796 1035.97C690.621 1035.09 689.446 1031.86 689.446 1028.63C689.446 1011 666.828 978.693 642.447 961.95C621.298 946.969 601.03 939.625 581.643 939.332H575.731C572.168 939.332 570.383 935.023 572.903 932.503L611.017 894.389L654.494 850.912C655.244 850.162 656.262 849.74 657.323 849.74H671.822C682.69 849.74 692.971 852.09 702.665 856.79ZM1421.16 895.564L1458.86 933.262C1461.26 935.665 1459.76 939.781 1456.37 940.075L1444.66 941.094C1397.66 944.619 1348.02 985.449 1339.2 1027.75C1337.15 1038.03 1336.85 1037.74 1305.42 983.099C1277.22 933.457 1273.99 926.701 1275.76 917.595C1281.92 881.758 1325.69 848.272 1363.29 850.915C1377.1 851.797 1377.98 852.384 1421.16 895.564ZM376.904 890.277C420.378 912.601 460.034 978.399 456.802 1023.34L455.727 1039.47C455.663 1040.43 455.25 1041.34 454.565 1042.03L400.991 1095.6L355.517 1141.08C352.734 1143.86 348.028 1141.37 348.757 1137.51L349.293 1134.67C351.055 1124.1 351.055 1112.93 348.705 1100.01C336.956 1032.45 282.613 972.525 221.515 960.187L214.575 958.776C210.96 958.041 210.182 953.222 213.382 951.386L242.077 934.926C335.193 881.171 334.018 881.464 350.468 883.227C358.693 883.814 370.736 887.046 376.904 890.277ZM1767.19 922.295L1821.38 953.685C1824.74 955.631 1823.64 960.74 1819.78 961.126L1814.48 961.656C1745.45 968.412 1676.13 1052.42 1679.94 1124.68L1680.41 1136.23C1680.56 1139.87 1676.18 1141.8 1673.6 1139.23L1630.01 1095.9C1602.1 1067.99 1577.14 1041.26 1574.49 1036.56C1566.85 1022.17 1570.38 992.499 1582.42 968.412C1596.52 940.507 1630.6 905.845 1655.86 894.095C1689.05 878.233 1692.28 879.115 1767.19 922.295ZM834.849 933.163C853.942 942.563 873.623 964.006 876.266 978.106C877.735 985.449 873.916 1003.66 862.46 1046.55L849.567 1094.96C848.625 1098.5 843.817 1099.01 842.144 1095.76L841.311 1094.13C822.218 1054.77 757.888 1025.1 715.589 1035.97C706.777 1038.32 699.433 1040.09 699.14 1039.79C698.846 1039.5 712.358 1015.41 729.395 986.33C755.832 940.213 761.413 932.869 770.813 928.169C786.381 920.826 813.699 922.882 834.849 933.163ZM1263.12 931.107C1267.53 933.163 1274.29 939.919 1277.81 946.088C1288.39 962.537 1332.74 1040.09 1332.74 1041.85C1332.74 1042.73 1328.04 1041.26 1322.46 1038.91C1281.34 1021.87 1204.67 1053.3 1187.34 1094.72C1186.07 1097.64 1181.83 1097.34 1180.99 1094.27L1180 1090.61C1149.74 978.399 1150.62 981.924 1155.32 970.468C1170.3 934.632 1228.17 913.482 1263.12 931.107ZM623.354 954.019C658.31 971.643 686.509 1008.65 686.509 1037.44C686.509 1048.6 682.103 1058 655.372 1104.12C638.335 1133.79 623.06 1157.29 621.592 1156.41C620.123 1155.53 618.948 1152 618.948 1148.18C618.948 1137.31 602.792 1107.94 586.636 1090.02C570.481 1072.1 540.225 1050.66 519.076 1042.14C511.438 1039.2 497.926 1037.15 487.058 1037.15L477.787 1037C474.242 1036.95 472.517 1032.65 475.039 1030.16L515.551 990.149L561.604 944.381C562.394 943.596 563.476 943.176 564.588 943.222L584.286 944.032C600.736 944.913 609.842 947.263 623.354 954.019ZM1468.74 947.85C1474.03 950.2 1497.82 971.937 1522.21 996.318L1559.49 1033.85C1562 1036.38 1560.21 1040.67 1556.65 1040.67H1546.59C1487.54 1040.67 1409.41 1102.65 1409.11 1149.06C1409.11 1155.23 1407.94 1158.17 1406.47 1156.41C1405 1154.94 1389.73 1129.38 1372.4 1099.42C1342.73 1048.02 1341.26 1044.49 1342.73 1032.15C1349.48 980.749 1425.86 929.344 1468.74 947.85ZM240.902 969.293C298.182 991.618 345.768 1058.59 345.768 1116.16C345.768 1150.53 344.887 1151.71 287.607 1208.99L242.86 1253.73C240.284 1256.31 235.886 1254.38 236.035 1250.74L236.496 1239.54C240.902 1156.7 156.01 1048.31 81.3999 1041.55C71.7064 1040.67 64.6566 1038.91 65.8315 1037.44C67.8877 1035.39 158.654 982.512 187.147 966.65C199.19 960.187 219.752 961.069 240.902 969.293ZM965.564 967.531C980.838 971.35 1002.87 986.33 1007.86 996.318C1011.68 1003.37 1012.56 1016.88 1012.56 1066.82V1118.45C1012.56 1122.11 1008.06 1123.84 1005.6 1121.14L1000.81 1115.87C982.601 1096.19 958.808 1086.79 924.146 1085.32C893.303 1083.85 880.085 1086.79 862.167 1098.25L860.254 1099.44C857.127 1101.38 853.258 1098.42 854.308 1094.9L855.411 1091.2C857.76 1083.56 864.81 1056.83 871.566 1031.86C880.672 997.493 885.666 984.274 891.247 978.399C905.934 962.831 932.665 959.012 965.564 967.531ZM1904.07 1001.6L1958.35 1033.18C1961.67 1035.12 1960.62 1040.16 1956.81 1040.61L1951.36 1041.26C1921.69 1045.08 1893.5 1061.23 1861.18 1093.55C1830.05 1124.39 1812.72 1150.83 1800.67 1185.19C1793.04 1206.93 1790.39 1239.83 1795.09 1255.1C1796.56 1259.8 1776.59 1241.59 1741.63 1206.64L1686.77 1151.78C1686.15 1151.16 1685.76 1150.36 1685.64 1149.49L1683.47 1133.5C1674.36 1058 1752.21 964.887 1824.76 964.3C1838.27 964.3 1844.44 967.237 1904.07 1001.6ZM786.675 1050.07C819.28 1065.64 842.192 1091.49 842.192 1113.23C842.192 1122.33 812.23 1237.48 809.88 1237.48C808.999 1237.48 805.181 1231.61 801.362 1223.97C786.969 1196.94 739.089 1164.04 701.196 1155.53C681.809 1151.12 652.728 1151.71 640.391 1156.7C634.81 1159.05 629.523 1161.11 629.229 1161.11C628.642 1161.11 643.035 1135.85 660.953 1105C699.433 1038.32 701.196 1036.85 741.145 1038.62C760.826 1039.5 768.463 1041.26 786.675 1050.07ZM1316 1040.97C1322.17 1042.44 1330.98 1047.43 1335.68 1051.83C1342.76 1058.35 1400.06 1153.84 1402.34 1162.56C1402.45 1162.97 1402.14 1163.22 1401.72 1163.17C1399.98 1162.97 1395.21 1161.61 1390.02 1159.64C1363.58 1150.24 1313.35 1157.29 1278.11 1175.21C1254.61 1186.96 1234.93 1205.17 1226.11 1222.5L1223.73 1227.46C1222.13 1230.81 1217.23 1230.35 1216.26 1226.77L1202.32 1174.91C1183.23 1102.65 1183.52 1099.13 1205.26 1075.92C1232.87 1046.55 1281.04 1031.27 1316 1040.97ZM532.294 1052.72C574.887 1073.57 616.011 1125.56 616.011 1158.46C616.011 1171.09 612.192 1179.03 578.705 1237.19L547.297 1291.41C545.353 1294.77 540.249 1293.67 539.857 1289.81L539.344 1284.77C532.294 1215.16 449.165 1146.13 376.317 1149.94L364.766 1150.41C361.132 1150.56 359.203 1146.18 361.767 1143.6L403.635 1101.48C430.953 1074.16 457.096 1049.19 461.796 1045.96C475.602 1036.85 506.151 1039.79 532.294 1052.72ZM1625.6 1100.01L1671.08 1145.48C1673.86 1148.27 1671.37 1152.97 1667.51 1152.24L1664.67 1151.71C1622.37 1144.07 1563.62 1169.04 1526.02 1210.75C1506.64 1232.19 1495.47 1253.64 1490.48 1278.6L1488.78 1286.84C1488.04 1290.44 1483.25 1291.21 1481.4 1288.03L1450.24 1234.25C1407.35 1159.64 1405.88 1154.35 1420.57 1124.68C1442.6 1080.03 1503.41 1042.44 1550.99 1044.49L1569.41 1045.3C1570.41 1045.35 1571.36 1045.76 1572.07 1046.47L1625.6 1100.01ZM966.739 1097.36C988.182 1107.06 997.582 1114.7 1005.81 1128.21C1012.27 1138.49 1012.56 1142.01 1012.56 1203.41V1257.78C1012.56 1261.35 1008.25 1263.13 1005.73 1260.61L1000.23 1255.1C974.67 1229.55 922.09 1211.92 880.379 1215.16C852.767 1216.92 838.961 1221.32 826.918 1232.19L825.543 1233.44C824.736 1234.18 825.712 1235.43 826.624 1234.84C848.948 1220.15 878.322 1214.86 911.809 1219.86C952.933 1226.32 988.476 1243.35 1004.04 1264.8L1011.8 1275.5C1012.3 1276.18 1012.56 1277 1012.56 1277.85V1352.92V1417.21C1012.56 1421.06 1007.65 1422.69 1005.35 1419.6L1004.04 1417.84C959.395 1355.86 845.13 1339.7 784.031 1386.41C775.513 1392.87 774.338 1393.16 775.806 1388.46C776.688 1385.23 784.912 1354.98 793.725 1321.2C802.831 1287.12 812.23 1255.69 814.58 1250.99C816.637 1246.29 818.105 1241.59 817.224 1240.42C815.755 1238.07 846.598 1122.63 850.711 1114.7C855.411 1105.59 865.398 1098.54 880.966 1092.96C903.878 1085.03 943.827 1087.08 966.739 1097.36ZM1144.45 1092.37C1154.15 1095.31 1164.43 1100.89 1171.48 1107.65C1182.05 1117.93 1183.23 1121.45 1197.62 1175.79C1205.84 1207.22 1213.48 1235.72 1214.36 1238.65C1215.83 1243.65 1214.66 1243.35 1206.73 1236.6C1177.94 1212.51 1102.45 1209.57 1057.21 1230.72C1041.06 1238.36 1021.37 1255.4 1021.37 1261.86C1021.37 1263.62 1025.49 1260.39 1030.48 1254.52C1040.47 1241.89 1067.79 1228.08 1091.29 1223.09C1142.1 1212.51 1205.26 1227.79 1216.71 1253.05C1219.06 1258.34 1228.46 1290.06 1237.28 1324.13C1246.38 1357.91 1254.31 1388.17 1255.19 1391.11C1256.37 1394.93 1253.43 1393.75 1243.44 1386.11C1215.83 1364.96 1171.48 1355.27 1129.77 1360.85C1086.88 1366.73 1055.74 1382 1030.77 1409.03L1025.36 1414.82C1022.88 1417.48 1018.44 1415.73 1018.44 1412.1V1278.02C1018.44 1138.49 1018.73 1133.5 1024.61 1124.1C1029.45 1116.4 1052.3 1097.9 1058.73 1096.56C1059.09 1096.48 1059.44 1096.43 1059.78 1096.34C1061.81 1095.8 1068.65 1094.17 1075.72 1092.08C1095.69 1086.5 1125.65 1086.79 1144.45 1092.37ZM411.566 1156.7C475.602 1173.44 532.294 1233.96 535.819 1289.47L536.923 1308.24C536.969 1309.03 536.783 1309.81 536.387 1310.49L499.395 1374.07L467.815 1428.35C465.884 1431.67 460.838 1430.62 460.386 1426.81L459.74 1421.36C453.277 1369.66 393.06 1302.4 329.612 1275.96C304.35 1265.39 273.214 1260.39 254.708 1263.92C247.364 1265.09 241.196 1265.97 240.902 1265.68C240.608 1265.39 264.401 1241 294.069 1211.34C334.899 1170.51 350.174 1156.99 357.811 1155.23C373.967 1151.41 393.354 1152 411.566 1156.7ZM701.196 1159.64C730.57 1167.57 759.944 1184.02 780.8 1205.17C811.643 1235.72 811.643 1235.13 789.319 1319.14C779.038 1357.33 770.225 1389.93 769.344 1391.4C768.463 1392.87 765.232 1386.99 762 1378.18C757.594 1366.14 750.545 1356.74 733.801 1340C709.421 1315.62 682.103 1300.05 649.791 1291.82C625.41 1285.65 586.343 1286.24 566.074 1293.29C557.262 1296.23 549.919 1298.58 549.625 1298.28C548.156 1296.52 619.829 1176.38 625.704 1170.8C640.391 1155.82 670.647 1151.41 701.196 1159.64ZM1676.42 1158.17C1684.06 1160.23 1700.21 1174.62 1738.99 1213.39L1783.62 1258.28C1786.21 1260.88 1784.22 1265.3 1780.56 1265.09L1770.12 1264.5C1741.34 1262.74 1721.36 1267.74 1686.7 1284.48C1622.96 1315.62 1573.32 1374.95 1570.09 1423.71C1569.5 1433.7 1568.32 1436.05 1565.97 1433.41C1564.21 1431.35 1546.59 1401.98 1527.2 1367.61C1504.58 1328.25 1491.36 1302.4 1491.36 1297.11C1491.36 1282.13 1500.17 1253.93 1509.87 1238.07C1521.03 1219.27 1551.87 1189.31 1572.14 1177.26C1605.63 1157.88 1647.34 1149.94 1676.42 1158.17ZM1397.66 1167.57C1410 1174.33 1417.05 1185.19 1482.55 1299.75C1484.9 1303.87 1482.55 1303.28 1469.33 1297.11C1406.18 1268.32 1302.49 1307.39 1270.17 1372.01L1265.21 1382.1C1263.57 1385.42 1258.7 1384.93 1257.75 1381.35L1242.27 1322.67C1231.99 1284.77 1224.06 1249.23 1224.06 1243.94C1224.35 1201.35 1299.84 1155.82 1364.17 1159.34C1379.45 1160.23 1389.14 1162.58 1397.66 1167.57ZM646.854 1294.76C701.49 1308.86 749.957 1348.51 761.707 1389.05L765.813 1403.56C766.009 1404.25 766.015 1404.99 765.828 1405.68L748.195 1471.59C738.501 1508.6 729.689 1540.33 728.808 1542.68C727.926 1545.32 723.814 1539.45 718.82 1528.87C701.49 1492.15 654.785 1456.02 598.974 1436.05C575.474 1427.82 570.481 1426.94 535.232 1426.94C502.039 1426.94 495.283 1427.82 483.239 1433.41C475.308 1436.93 469.14 1438.99 469.14 1438.11C469.14 1437.22 485.589 1407.85 505.857 1372.9C545.513 1304.16 549.331 1300.05 576.649 1293.58C594.861 1289.47 628.054 1290.06 646.854 1294.76ZM1461.69 1297.4C1484.31 1305.63 1489.31 1311.8 1525.44 1374.36C1544.53 1407.85 1560.69 1436.34 1561.27 1437.52C1561.86 1438.69 1555.1 1436.93 1546.59 1433.7C1472.86 1405.5 1347.13 1455.44 1311.89 1526.82C1306.6 1537.68 1301.9 1545.62 1301.31 1544.15C1291.91 1513.01 1265.18 1406.97 1265.18 1400.51C1265.18 1378.18 1292.79 1340.29 1323.34 1320.61C1341.55 1308.86 1370.93 1297.11 1392.37 1293.29C1412.05 1289.77 1445.54 1291.82 1461.69 1297.4ZM917.096 1368.2C956.752 1378.48 987.007 1398.45 1004.34 1425.18L1011.96 1437.43C1012.35 1438.06 1012.56 1438.8 1012.56 1439.54V1513.3V1576.05C1012.56 1579.91 1007.64 1581.53 1005.34 1578.43L1003.46 1575.87C971.732 1532.69 883.904 1503.32 815.462 1513.3C785.206 1518 763.469 1525.93 746.726 1538.86C739.382 1544.44 733.508 1547.97 733.508 1547.08C733.508 1546.2 742.026 1513.6 752.601 1474.53C767.875 1418.13 773.163 1402.27 779.331 1395.81C788.731 1385.82 812.524 1372.9 830.149 1367.9C849.242 1362.61 896.241 1362.91 917.096 1368.2ZM1196.15 1368.2C1217.3 1373.78 1238.45 1384.94 1250.2 1397.28C1259.31 1406.68 1258.72 1404.91 1294.56 1539.45C1295.42 1542.61 1291.79 1545.08 1289.16 1543.11L1287.8 1542.09C1260.19 1521.23 1229.34 1512.72 1181.46 1512.72C1115.08 1512.72 1056.33 1535.33 1028.72 1571.76L1025.59 1575.77C1023.26 1578.78 1018.44 1577.13 1018.44 1573.32V1508.9C1018.44 1439.28 1019.02 1431.94 1024.02 1423.71C1032.24 1410.2 1052.22 1391.99 1068.37 1383.18C1101.27 1365.26 1158.85 1358.5 1196.15 1368.2Z" fill="white" fill-opacity="0.58" shape-rendering="crispEdges"/>
</g>
</g>
<defs>
<filter id="filter0_d_734_791" x="-219.3" y="-749.3" width="2469.6" height="2469.6" filterUnits="userSpaceOnUse" color-interpolation-filters="sRGB">
<feFlood flood-opacity="0" result="BackgroundImageFix"/>
<feColorMatrix in="SourceAlpha" type="matrix" values="0 0 0 0 0 0 0 0 0 0 0 0 0 0 0 0 0 0 127 0" result="hardAlpha"/>
<feMorphology radius="16" operator="dilate" in="SourceAlpha" result="effect1_dropShadow_734_791"/>
<feOffset/>
<feGaussianBlur stdDeviation="22.65"/>
<feComposite in2="hardAlpha" operator="out"/>
<feColorMatrix type="matrix" values="0 0 0 0 1 0 0 0 0 1 0 0 0 0 1 0 0 0 0.77 0"/>
<feBlend mode="normal" in2="BackgroundImageFix" result="effect1_dropShadow_734_791"/>
<feBlend mode="normal" in="SourceGraphic" in2="effect1_dropShadow_734_791" result="shape"/>
</filter>
</defs>
</svg>
